{"glyphs":{"0":{"ha":833,"x_min":76,"x_max":782,"o":"m 408 -11 q 161 99 246 -11 q 76 419 76 208 q 120 727 76 599 q 248 923 164 856 q 449 990 332 990 q 697 880 611 990 q 782 560 782 769 q 738 252 782 381 q 610 56 693 124 q 408 -11 526 -11 m 413 106 q 581 226 524 106 q 639 581 639 347 q 592 803 639 732 q 447 874 546 874 q 278 753 336 874 q 219 399 219 632 q 267 177 219 249 q 413 106 314 106 z "},"1":{"ha":833,"x_min":144,"x_max":725,"o":"m 725 118 l 717 0 l 144 0 l 154 118 l 367 118 l 422 806 l 246 703 l 188 810 l 475 979 l 578 979 l 510 118 l 725 118 z "},"2":{"ha":833,"x_min":85,"x_max":747,"o":"m 279 118 l 736 118 l 726 0 l 85 0 l 92 107 l 461 474 q 572 612 538 551 q 606 733 606 672 q 564 836 606 799 q 446 874 522 874 q 167 767 304 874 l 125 872 q 276 960 189 929 q 460 990 363 990 q 669 922 592 990 q 747 735 747 853 q 705 573 747 650 q 560 393 663 496 l 279 118 z "},"3":{"ha":833,"x_min":51,"x_max":747,"o":"m 569 500 q 690 422 646 478 q 733 285 733 367 q 692 131 733 197 q 572 27 650 64 q 386 -10 493 -10 q 201 21 288 -10 q 51 108 115 51 l 110 214 q 244 133 176 160 q 389 107 313 107 q 541 153 488 107 q 594 283 594 199 q 396 439 594 439 l 276 439 l 286 554 l 392 554 q 549 602 492 554 q 606 735 606 650 q 563 837 606 800 q 443 874 519 874 q 167 767 300 874 l 125 872 q 276 959 188 928 q 460 990 364 990 q 668 924 589 990 q 747 750 747 858 q 700 597 747 663 q 569 500 653 532 z "},"4":{"ha":833,"x_min":54,"x_max":789,"o":"m 779 203 l 635 203 l 619 0 l 478 0 l 494 203 l 54 203 l 61 310 l 578 979 l 696 979 l 644 317 l 789 317 l 779 203 m 503 317 l 538 746 l 207 317 l 503 317 z "},"5":{"ha":833,"x_min":82,"x_max":779,"o":"m 313 864 l 288 561 q 475 619 369 619 q 629 583 563 619 q 733 483 696 547 q 769 335 769 418 q 725 153 769 231 q 600 33 681 75 q 414 -10 519 -10 q 233 21 318 -10 q 82 108 147 51 l 142 214 q 415 107 271 107 q 572 165 514 107 q 631 322 631 224 q 579 455 631 406 q 442 504 528 504 q 226 404 307 504 l 135 404 l 181 979 l 779 979 l 769 864 l 313 864 z "},"6":{"ha":832,"x_min":79,"x_max":811,"o":"m 469 619 q 624 582 557 619 q 729 477 692 544 q 767 322 767 410 q 724 151 767 226 q 608 32 682 75 q 440 -11 533 -11 q 173 99 267 -11 q 79 414 79 210 q 130 719 79 589 q 274 919 181 849 q 493 990 368 990 q 665 960 582 990 q 811 872 747 929 l 753 767 q 626 847 690 819 q 499 874 561 874 q 310 776 381 874 q 224 493 239 679 l 222 475 q 324 581 258 542 q 469 619 389 619 m 436 106 q 575 164 522 106 q 628 317 628 222 q 576 453 628 401 q 440 504 525 504 q 297 446 353 504 q 240 296 240 388 q 294 158 240 211 q 436 106 349 106 z "},"7":{"ha":833,"x_min":126,"x_max":799,"o":"m 799 979 l 790 872 l 279 0 l 126 0 l 632 861 l 126 861 l 136 979 l 799 979 z "},"8":{"ha":833,"x_min":51,"x_max":783,"o":"m 608 500 q 769 269 769 446 q 725 123 769 186 q 598 25 681 60 q 404 -10 515 -10 q 144 60 236 -10 q 51 256 51 129 q 106 413 51 346 q 253 506 160 481 q 148 587 185 532 q 111 717 111 642 q 153 862 111 800 q 274 957 196 924 q 456 990 351 990 q 698 925 613 990 q 783 743 783 860 q 735 593 783 658 q 608 500 688 528 m 456 875 q 303 832 356 875 q 250 707 250 789 q 299 594 250 635 q 442 554 349 554 q 592 599 540 554 q 644 728 644 644 q 597 838 644 800 q 456 875 550 875 m 403 106 q 573 150 514 106 q 632 276 632 194 q 581 399 632 360 q 418 438 531 438 q 247 394 306 438 q 189 263 189 350 q 242 146 189 186 q 403 106 296 106 z "},"9":{"ha":833,"x_min":47,"x_max":781,"o":"m 418 990 q 686 880 592 990 q 781 565 781 769 q 730 260 781 390 q 585 60 679 131 q 365 -11 490 -11 q 194 19 276 -11 q 47 107 111 50 l 106 213 q 233 133 168 160 q 360 106 297 106 q 549 203 478 106 q 635 486 621 300 l 636 504 q 535 399 600 438 q 389 360 469 360 q 234 397 301 360 q 129 502 167 435 q 92 657 92 569 q 134 828 92 753 q 251 947 176 904 q 418 990 325 990 m 418 475 q 562 533 506 475 q 618 683 618 592 q 565 821 618 768 q 426 874 513 874 q 285 815 339 874 q 231 663 231 757 q 282 526 231 578 q 418 475 333 475 z "},"\u0000":{"ha":0,"x_min":0,"x_max":0,"o":""},"\r":{"ha":367,"x_min":0,"x_max":0,"o":""}," ":{"ha":367,"x_min":0,"x_max":0,"o":""},"A":{"ha":1019,"x_min":-12,"x_max":979,"o":"m 753 242 l 258 242 l 136 0 l -12 0 l 500 979 l 619 979 l 979 0 l 838 0 l 753 242 m 713 356 l 550 819 l 315 356 l 713 356 z "},"Á":{"ha":1019,"x_min":-12,"x_max":979,"o":"m 753 242 l 258 242 l 136 0 l -12 0 l 500 979 l 619 979 l 979 0 l 838 0 l 753 242 m 713 356 l 550 819 l 315 356 l 713 356 m 521 1063 l 674 1275 l 825 1275 l 613 1063 l 521 1063 z "},"Ă":{"ha":1019,"x_min":-12,"x_max":979,"o":"m 753 242 l 258 242 l 136 0 l -12 0 l 500 979 l 619 979 l 979 0 l 838 0 l 753 242 m 713 356 l 550 819 l 315 356 l 713 356 m 572 1078 q 432 1116 493 1078 q 347 1226 371 1154 l 428 1260 q 490 1191 453 1211 q 576 1171 526 1171 q 665 1191 626 1171 q 736 1260 704 1211 l 811 1226 q 715 1115 778 1153 q 572 1078 651 1078 z "},"Ắ":{"ha":1019,"x_min":-12,"x_max":979,"o":"m 753 242 l 258 242 l 136 0 l -12 0 l 500 979 l 619 979 l 979 0 l 838 0 l 753 242 m 713 356 l 550 819 l 315 356 l 713 356 m 683 1403 l 828 1403 l 622 1207 l 533 1207 l 683 1403 m 571 1056 q 430 1093 490 1056 q 346 1204 369 1131 l 415 1233 q 576 1140 465 1140 q 744 1233 685 1140 l 810 1204 q 711 1092 774 1129 q 571 1056 649 1056 z "},"Ặ":{"ha":1019,"x_min":-12,"x_max":979,"o":"m 753 242 l 258 242 l 136 0 l -12 0 l 500 979 l 619 979 l 979 0 l 838 0 l 753 242 m 713 356 l 550 819 l 315 356 l 713 356 m 547 -119 l 536 -260 l 389 -260 l 401 -119 l 547 -119 m 572 1078 q 432 1116 493 1078 q 347 1226 371 1154 l 428 1260 q 490 1191 453 1211 q 576 1171 526 1171 q 665 1191 626 1171 q 736 1260 704 1211 l 811 1226 q 715 1115 778 1153 q 572 1078 651 1078 z "},"Ằ":{"ha":1019,"x_min":-12,"x_max":979,"o":"m 753 242 l 258 242 l 136 0 l -12 0 l 500 979 l 619 979 l 979 0 l 838 0 l 753 242 m 713 356 l 550 819 l 315 356 l 713 356 m 365 1403 l 494 1403 l 622 1207 l 533 1207 l 365 1403 m 571 1056 q 430 1093 490 1056 q 346 1204 369 1131 l 415 1233 q 576 1140 465 1140 q 744 1233 685 1140 l 810 1204 q 711 1092 774 1129 q 571 1056 649 1056 z "},"Ẳ":{"ha":1019,"x_min":-12,"x_max":979,"o":"m 753 242 l 258 242 l 136 0 l -12 0 l 500 979 l 619 979 l 979 0 l 838 0 l 753 242 m 713 356 l 550 819 l 315 356 l 713 356 m 539 1232 q 558 1270 540 1257 q 606 1296 575 1283 q 631 1308 622 1303 q 639 1321 639 1314 q 594 1340 639 1340 q 501 1325 553 1340 l 485 1389 q 606 1411 540 1411 q 703 1389 668 1411 q 739 1332 739 1367 q 722 1288 739 1303 q 671 1260 704 1274 q 635 1242 647 1250 q 621 1219 622 1233 l 619 1207 l 538 1207 l 539 1232 m 571 1056 q 430 1093 490 1056 q 346 1204 369 1131 l 415 1233 q 576 1140 465 1140 q 744 1233 685 1140 l 810 1204 q 711 1092 774 1129 q 571 1056 649 1056 z "},"Ẵ":{"ha":1019,"x_min":-12,"x_max":979,"o":"m 753 242 l 258 242 l 136 0 l -12 0 l 500 979 l 619 979 l 979 0 l 838 0 l 753 242 m 713 356 l 550 819 l 315 356 l 713 356 m 683 1265 q 631 1274 656 1265 q 571 1301 607 1283 q 524 1324 542 1317 q 489 1331 507 1331 q 444 1315 461 1331 q 424 1269 426 1299 l 354 1269 q 397 1374 357 1336 q 494 1413 436 1413 q 549 1403 522 1413 q 607 1376 575 1393 q 656 1355 639 1361 q 689 1349 672 1349 q 734 1364 717 1349 q 753 1408 751 1379 l 822 1408 q 781 1303 821 1342 q 683 1265 740 1265 m 571 1056 q 430 1093 490 1056 q 346 1204 369 1131 l 415 1233 q 576 1140 465 1140 q 744 1233 685 1140 l 810 1204 q 711 1092 774 1129 q 571 1056 649 1056 z "},"Â":{"ha":1019,"x_min":-12,"x_max":979,"o":"m 753 242 l 258 242 l 136 0 l -12 0 l 500 979 l 619 979 l 979 0 l 838 0 l 753 242 m 713 356 l 550 819 l 315 356 l 713 356 m 353 1063 l 539 1275 l 628 1275 l 781 1063 l 664 1063 l 582 1199 l 471 1063 l 353 1063 z "},"Ấ":{"ha":1019,"x_min":-12,"x_max":979,"o":"m 753 242 l 258 242 l 136 0 l -12 0 l 500 979 l 619 979 l 979 0 l 838 0 l 753 242 m 713 356 l 550 819 l 315 356 l 713 356 m 829 1403 l 971 1403 l 778 1207 l 699 1207 l 829 1403 m 539 1263 l 626 1263 l 781 1063 l 667 1063 l 581 1189 l 469 1063 l 353 1063 l 539 1263 z "},"Ậ":{"ha":1019,"x_min":-12,"x_max":979,"o":"m 753 242 l 258 242 l 136 0 l -12 0 l 500 979 l 619 979 l 979 0 l 838 0 l 753 242 m 713 356 l 550 819 l 315 356 l 713 356 m 547 -119 l 536 -260 l 389 -260 l 401 -119 l 547 -119 m 353 1063 l 539 1275 l 628 1275 l 781 1063 l 664 1063 l 582 1199 l 471 1063 l 353 1063 z "},"Ầ":{"ha":1019,"x_min":-12,"x_max":979,"o":"m 753 242 l 258 242 l 136 0 l -12 0 l 500 979 l 619 979 l 979 0 l 838 0 l 753 242 m 713 356 l 550 819 l 315 356 l 713 356 m 618 1403 l 743 1403 l 836 1207 l 758 1207 l 618 1403 m 539 1263 l 626 1263 l 781 1063 l 667 1063 l 581 1189 l 469 1063 l 353 1063 l 539 1263 z "},"Ẩ":{"ha":1019,"x_min":-12,"x_max":979,"o":"m 753 242 l 258 242 l 136 0 l -12 0 l 500 979 l 619 979 l 979 0 l 838 0 l 753 242 m 713 356 l 550 819 l 315 356 l 713 356 m 700 1232 q 719 1271 701 1258 q 765 1296 736 1283 q 790 1308 779 1301 q 800 1321 800 1314 q 756 1340 800 1340 q 663 1325 714 1340 l 646 1389 q 767 1411 701 1411 q 865 1389 829 1411 q 900 1332 900 1367 q 883 1288 900 1303 q 832 1260 865 1274 q 796 1242 808 1250 q 782 1219 783 1233 l 781 1207 l 697 1207 l 700 1232 m 539 1263 l 626 1263 l 781 1063 l 667 1063 l 581 1189 l 469 1063 l 353 1063 l 539 1263 z "},"Ẫ":{"ha":1019,"x_min":-12,"x_max":979,"o":"m 753 242 l 258 242 l 136 0 l -12 0 l 500 979 l 619 979 l 979 0 l 838 0 l 753 242 m 713 356 l 550 819 l 315 356 l 713 356 m 685 1286 q 630 1294 656 1286 q 571 1318 604 1303 q 525 1336 543 1331 q 490 1342 507 1342 q 446 1326 464 1342 q 425 1285 428 1311 l 356 1285 q 399 1386 358 1349 q 496 1424 439 1424 q 544 1417 522 1424 q 585 1403 567 1410 q 610 1393 604 1396 q 690 1368 660 1368 q 735 1383 718 1368 q 754 1425 753 1399 l 824 1425 q 782 1324 822 1361 q 685 1286 742 1286 m 539 1263 l 626 1263 l 781 1063 l 667 1063 l 581 1189 l 469 1063 l 353 1063 l 539 1263 z "},"Ȁ":{"ha":1019,"x_min":-12,"x_max":979,"o":"m 753 242 l 258 242 l 136 0 l -12 0 l 500 979 l 619 979 l 979 0 l 838 0 l 753 242 m 713 356 l 550 819 l 315 356 l 713 356 m 325 1275 l 432 1275 l 517 1063 l 443 1063 l 325 1275 m 499 1275 l 606 1275 l 690 1063 l 617 1063 l 499 1275 z "},"Ä":{"ha":1019,"x_min":-12,"x_max":979,"o":"m 753 242 l 258 242 l 136 0 l -12 0 l 500 979 l 619 979 l 979 0 l 838 0 l 753 242 m 713 356 l 550 819 l 315 356 l 713 356 m 531 1239 l 519 1101 l 376 1101 l 386 1239 l 531 1239 m 775 1239 l 765 1101 l 621 1101 l 632 1239 l 775 1239 z "},"Ạ":{"ha":1019,"x_min":-12,"x_max":979,"o":"m 753 242 l 258 242 l 136 0 l -12 0 l 500 979 l 619 979 l 979 0 l 838 0 l 753 242 m 713 356 l 550 819 l 315 356 l 713 356 m 547 -119 l 536 -260 l 389 -260 l 401 -119 l 547 -119 z "},"À":{"ha":1019,"x_min":-12,"x_max":979,"o":"m 753 242 l 258 242 l 136 0 l -12 0 l 500 979 l 619 979 l 979 0 l 838 0 l 753 242 m 713 356 l 550 819 l 315 356 l 713 356 m 350 1275 l 485 1275 l 613 1063 l 521 1063 l 350 1275 z "},"Ả":{"ha":1019,"x_min":-12,"x_max":979,"o":"m 753 242 l 258 242 l 136 0 l -12 0 l 500 979 l 619 979 l 979 0 l 838 0 l 753 242 m 713 356 l 550 819 l 315 356 l 713 356 m 608 1063 l 526 1063 l 528 1089 q 546 1127 529 1113 q 590 1154 563 1142 q 619 1171 610 1164 q 628 1188 628 1178 q 615 1203 628 1197 q 579 1210 603 1210 q 493 1193 538 1210 l 475 1258 q 593 1281 533 1281 q 693 1258 657 1281 q 729 1199 729 1235 q 710 1153 729 1169 q 658 1121 692 1136 q 622 1100 632 1108 q 610 1078 611 1092 l 608 1063 z "},"Ȃ":{"ha":1019,"x_min":-12,"x_max":979,"o":"m 753 242 l 258 242 l 136 0 l -12 0 l 500 979 l 619 979 l 979 0 l 838 0 l 753 242 m 713 356 l 550 819 l 315 356 l 713 356 m 578 1261 q 718 1223 657 1261 q 803 1113 779 1185 l 722 1079 q 660 1148 697 1128 q 574 1168 624 1168 q 485 1148 524 1168 q 414 1079 446 1128 l 339 1113 q 435 1224 372 1186 q 578 1261 499 1261 z "},"Ā":{"ha":1019,"x_min":-12,"x_max":979,"o":"m 753 242 l 258 242 l 136 0 l -12 0 l 500 979 l 619 979 l 979 0 l 838 0 l 753 242 m 713 356 l 550 819 l 315 356 l 713 356 m 369 1218 l 790 1218 l 782 1121 l 361 1121 l 369 1218 z "},"Ą":{"ha":1019,"x_min":-12,"x_max":996,"o":"m 996 -239 q 875 -269 939 -269 q 758 -230 801 -269 q 714 -128 714 -190 q 742 -32 714 -74 q 825 35 771 10 l 753 242 l 258 242 l 136 0 l -12 0 l 500 979 l 619 979 l 979 0 l 940 0 q 849 -32 882 0 q 817 -107 817 -64 q 838 -165 817 -144 q 896 -186 858 -186 q 979 -164 935 -186 l 996 -239 m 713 356 l 550 819 l 315 356 l 713 356 z "},"Å":{"ha":1019,"x_min":-12,"x_max":979,"o":"m 753 242 l 258 242 l 136 0 l -12 0 l 488 957 q 440 1006 458 975 q 422 1075 422 1038 q 464 1176 422 1135 q 567 1217 506 1217 q 668 1176 626 1217 q 710 1075 710 1135 q 688 1000 710 1033 q 631 949 667 967 l 979 0 l 838 0 l 753 242 m 567 1143 q 520 1123 539 1143 q 501 1075 501 1103 q 520 1027 501 1047 q 567 1007 539 1007 q 613 1026 594 1007 q 631 1075 631 1046 q 613 1124 631 1104 q 567 1143 594 1143 m 713 356 l 550 819 l 315 356 l 713 356 z "},"Ǻ":{"ha":1019,"x_min":-12,"x_max":979,"o":"m 753 242 l 258 242 l 136 0 l -12 0 l 488 957 q 440 1006 458 975 q 422 1075 422 1038 q 464 1176 422 1135 q 567 1217 506 1217 q 644 1194 608 1217 l 757 1308 l 911 1308 l 694 1140 q 710 1075 710 1110 q 688 1000 710 1033 q 631 949 667 967 l 979 0 l 838 0 l 753 242 m 567 1143 q 520 1123 539 1143 q 501 1075 501 1103 q 520 1027 501 1047 q 567 1007 539 1007 q 613 1026 594 1007 q 631 1075 631 1046 q 613 1124 631 1104 q 567 1143 594 1143 m 713 356 l 550 819 l 315 356 l 713 356 z "},"Ã":{"ha":1019,"x_min":-12,"x_max":979,"o":"m 753 242 l 258 242 l 136 0 l -12 0 l 500 979 l 619 979 l 979 0 l 838 0 l 753 242 m 713 356 l 550 819 l 315 356 l 713 356 m 340 1086 q 384 1215 344 1172 q 485 1258 424 1258 q 535 1247 511 1258 q 594 1214 558 1236 q 640 1188 624 1196 q 672 1181 657 1181 q 720 1200 701 1181 q 740 1254 739 1219 l 811 1254 q 766 1125 806 1168 q 665 1082 726 1082 q 615 1093 639 1082 q 556 1126 592 1104 q 512 1151 529 1143 q 479 1160 494 1160 q 431 1140 450 1160 q 410 1086 413 1121 l 340 1086 z "},"Æ":{"ha":1381,"x_min":-40,"x_max":1367,"o":"m 778 863 l 821 556 l 1307 556 l 1297 439 l 838 439 l 882 117 l 1300 117 l 1290 0 l 767 0 l 733 242 l 282 242 l 119 0 l -40 0 l 638 979 l 1367 979 l 1358 863 l 778 863 m 718 356 l 657 801 l 358 356 l 718 356 z "},"Ǽ":{"ha":1381,"x_min":-40,"x_max":1367,"o":"m 778 863 l 821 556 l 1307 556 l 1297 439 l 838 439 l 882 117 l 1300 117 l 1290 0 l 767 0 l 733 242 l 282 242 l 119 0 l -40 0 l 638 979 l 1367 979 l 1358 863 l 778 863 m 718 356 l 657 801 l 358 356 l 718 356 m 706 1063 l 858 1275 l 1010 1275 l 797 1063 l 706 1063 z "},"B":{"ha":942,"x_min":88,"x_max":878,"o":"m 700 500 q 822 422 781 479 q 864 282 864 365 q 774 74 864 147 q 522 0 683 0 l 88 0 l 164 979 l 560 979 q 797 915 715 979 q 878 738 878 851 q 833 592 878 653 q 700 500 788 531 m 297 864 l 272 556 l 526 556 q 736 722 736 556 q 543 864 736 864 l 297 864 m 514 115 q 674 156 621 115 q 728 283 728 197 q 531 440 728 440 l 264 440 l 238 115 l 514 115 z "},"C":{"ha":940,"x_min":92,"x_max":919,"o":"m 522 -11 q 294 44 392 -11 q 144 205 197 100 q 92 451 92 310 q 151 736 92 614 q 319 924 210 858 q 575 990 429 990 q 769 960 681 990 q 919 869 857 929 l 860 764 q 728 846 794 821 q 578 871 663 871 q 328 759 417 871 q 239 450 239 647 q 316 197 239 285 q 536 108 393 108 q 817 215 682 108 l 860 110 q 711 20 799 51 q 522 -11 624 -11 z "},"Ć":{"ha":940,"x_min":92,"x_max":919,"o":"m 522 -11 q 294 44 392 -11 q 144 205 197 100 q 92 451 92 310 q 151 736 92 614 q 319 924 210 858 q 575 990 429 990 q 769 960 681 990 q 919 869 857 929 l 860 764 q 728 846 794 821 q 578 871 663 871 q 328 759 417 871 q 239 450 239 647 q 316 197 239 285 q 536 108 393 108 q 817 215 682 108 l 860 110 q 711 20 799 51 q 522 -11 624 -11 m 551 1063 l 704 1275 l 856 1275 l 643 1063 l 551 1063 z "},"Č":{"ha":940,"x_min":92,"x_max":919,"o":"m 522 -11 q 294 44 392 -11 q 144 205 197 100 q 92 451 92 310 q 151 736 92 614 q 319 924 210 858 q 575 990 429 990 q 769 960 681 990 q 919 869 857 929 l 860 764 q 728 846 794 821 q 578 871 663 871 q 328 759 417 871 q 239 450 239 647 q 316 197 239 285 q 536 108 393 108 q 817 215 682 108 l 860 110 q 711 20 799 51 q 522 -11 624 -11 m 828 1275 l 642 1063 l 553 1063 l 400 1275 l 517 1275 l 606 1139 l 710 1275 l 828 1275 z "},"Ç":{"ha":940,"x_min":92,"x_max":919,"o":"m 578 871 q 328 759 417 871 q 239 450 239 647 q 316 197 239 285 q 536 108 393 108 q 817 215 682 108 l 860 110 q 719 23 801 54 q 542 -11 638 -8 l 532 -58 q 554 -57 540 -57 q 632 -81 603 -57 q 661 -150 661 -106 q 617 -236 661 -203 q 492 -269 572 -269 q 424 -262 460 -269 q 363 -243 389 -256 l 383 -178 q 490 -197 440 -197 q 545 -186 525 -197 q 565 -153 565 -175 q 518 -118 565 -118 q 460 -129 496 -118 l 435 -106 l 454 -7 q 188 135 285 14 q 92 451 92 256 q 151 736 92 614 q 319 924 210 858 q 575 990 429 990 q 769 960 681 990 q 919 869 857 929 l 860 764 q 728 846 794 821 q 578 871 663 871 z "},"Ḉ":{"ha":940,"x_min":92,"x_max":919,"o":"m 643 1063 l 551 1063 l 704 1275 l 856 1275 l 643 1063 m 578 871 q 328 759 417 871 q 239 450 239 647 q 316 197 239 285 q 536 108 393 108 q 817 215 682 108 l 860 110 q 719 23 801 54 q 542 -11 638 -8 l 532 -58 q 554 -57 540 -57 q 632 -81 603 -57 q 661 -150 661 -106 q 617 -236 661 -203 q 492 -269 572 -269 q 424 -262 460 -269 q 363 -243 389 -256 l 383 -178 q 490 -197 440 -197 q 545 -186 525 -197 q 565 -153 565 -175 q 518 -118 565 -118 q 460 -129 496 -118 l 435 -106 l 454 -7 q 188 135 285 14 q 92 451 92 256 q 151 736 92 614 q 319 924 210 858 q 575 990 429 990 q 769 960 681 990 q 919 869 857 929 l 860 764 q 728 846 794 821 q 578 871 663 871 z "},"Ĉ":{"ha":940,"x_min":92,"x_max":919,"o":"m 522 -11 q 294 44 392 -11 q 144 205 197 100 q 92 451 92 310 q 151 736 92 614 q 319 924 210 858 q 575 990 429 990 q 769 960 681 990 q 919 869 857 929 l 860 764 q 728 846 794 821 q 578 871 663 871 q 328 759 417 871 q 239 450 239 647 q 316 197 239 285 q 536 108 393 108 q 817 215 682 108 l 860 110 q 711 20 799 51 q 522 -11 624 -11 m 383 1063 l 569 1275 l 658 1275 l 811 1063 l 694 1063 l 613 1199 l 501 1063 l 383 1063 z "},"Ċ":{"ha":940,"x_min":92,"x_max":919,"o":"m 522 -11 q 294 44 392 -11 q 144 205 197 100 q 92 451 92 310 q 151 736 92 614 q 319 924 210 858 q 575 990 429 990 q 769 960 681 990 q 919 869 857 929 l 860 764 q 728 846 794 821 q 578 871 663 871 q 328 759 417 871 q 239 450 239 647 q 316 197 239 285 q 536 108 393 108 q 817 215 682 108 l 860 110 q 711 20 799 51 q 522 -11 624 -11 m 693 1243 l 681 1096 l 519 1096 l 531 1243 l 693 1243 z "},"D":{"ha":1036,"x_min":88,"x_max":968,"o":"m 164 979 l 503 979 q 846 860 724 979 q 968 528 968 740 q 908 244 968 363 q 734 63 849 126 q 458 0 619 0 l 88 0 l 164 979 m 449 119 q 728 224 635 119 q 822 529 822 328 q 739 776 822 693 q 489 860 656 860 l 299 860 l 240 119 l 449 119 z "},"Ǆ":{"ha":1842,"x_min":88,"x_max":1828,"o":"m 164 979 l 503 979 q 846 860 724 979 q 968 528 968 740 q 908 244 968 363 q 734 63 849 126 q 458 0 619 0 l 88 0 l 164 979 m 449 119 q 728 224 635 119 q 822 529 822 328 q 739 776 822 693 q 489 860 656 860 l 299 860 l 240 119 l 449 119 m 1819 875 l 1231 117 l 1775 117 l 1765 0 l 1053 0 l 1061 106 l 1650 863 l 1121 863 l 1131 979 l 1828 979 l 1819 875 m 1717 1275 l 1531 1063 l 1442 1063 l 1289 1275 l 1406 1275 l 1494 1139 l 1599 1275 l 1717 1275 z "},"Ð":{"ha":1061,"x_min":21,"x_max":993,"o":"m 528 979 q 871 860 749 979 q 993 528 993 740 q 933 244 993 363 q 759 63 874 126 q 483 0 644 0 l 113 0 l 147 440 l 21 440 l 31 553 l 156 553 l 189 979 l 528 979 m 474 119 q 753 224 660 119 q 847 529 847 328 q 764 776 847 693 q 514 860 681 860 l 324 860 l 300 553 l 564 553 l 554 440 l 290 440 l 265 119 l 474 119 z "},"Ď":{"ha":1036,"x_min":88,"x_max":968,"o":"m 164 979 l 503 979 q 846 860 724 979 q 968 528 968 740 q 908 244 968 363 q 734 63 849 126 q 458 0 619 0 l 88 0 l 164 979 m 449 119 q 728 224 635 119 q 822 529 822 328 q 739 776 822 693 q 489 860 656 860 l 299 860 l 240 119 l 449 119 m 804 1275 l 618 1063 l 529 1063 l 376 1275 l 493 1275 l 582 1139 l 686 1275 l 804 1275 z "},"Đ":{"ha":1061,"x_min":21,"x_max":993,"o":"m 528 979 q 871 860 749 979 q 993 528 993 740 q 933 244 993 363 q 759 63 874 126 q 483 0 644 0 l 113 0 l 147 440 l 21 440 l 31 553 l 156 553 l 189 979 l 528 979 m 474 119 q 753 224 660 119 q 847 529 847 328 q 764 776 847 693 q 514 860 681 860 l 324 860 l 300 553 l 564 553 l 554 440 l 290 440 l 265 119 l 474 119 z "},"Ḍ":{"ha":1036,"x_min":88,"x_max":968,"o":"m 164 979 l 503 979 q 846 860 724 979 q 968 528 968 740 q 908 244 968 363 q 734 63 849 126 q 458 0 619 0 l 88 0 l 164 979 m 449 119 q 728 224 635 119 q 822 529 822 328 q 739 776 822 693 q 489 860 656 860 l 299 860 l 240 119 l 449 119 m 556 -119 l 544 -260 l 397 -260 l 410 -119 l 556 -119 z "},"Ḏ":{"ha":1036,"x_min":88,"x_max":968,"o":"m 164 979 l 503 979 q 846 860 724 979 q 968 528 968 740 q 908 244 968 363 q 734 63 849 126 q 458 0 619 0 l 88 0 l 164 979 m 449 119 q 728 224 635 119 q 822 529 822 328 q 739 776 822 693 q 489 860 656 860 l 299 860 l 240 119 l 449 119 m 269 -143 l 692 -143 l 683 -236 l 263 -236 l 269 -143 z "},"ǅ":{"ha":1739,"x_min":88,"x_max":1696,"o":"m 164 979 l 503 979 q 846 860 724 979 q 968 528 968 740 q 908 244 968 363 q 734 63 849 126 q 458 0 619 0 l 88 0 l 164 979 m 449 119 q 728 224 635 119 q 822 529 822 328 q 739 776 822 693 q 489 860 656 860 l 299 860 l 240 119 l 449 119 m 1689 579 l 1258 108 l 1667 108 l 1657 0 l 1076 0 l 1083 97 l 1514 569 l 1132 569 l 1140 678 l 1696 678 l 1689 579 m 1665 1049 l 1475 767 l 1382 767 l 1236 1049 l 1354 1049 l 1435 861 l 1542 1049 l 1665 1049 z "},"E":{"ha":813,"x_min":88,"x_max":800,"o":"m 297 864 l 272 556 l 739 556 l 729 439 l 264 439 l 238 115 l 732 115 l 724 0 l 88 0 l 164 979 l 800 979 l 792 864 l 297 864 z "},"É":{"ha":813,"x_min":88,"x_max":800,"o":"m 297 864 l 272 556 l 739 556 l 729 439 l 264 439 l 238 115 l 732 115 l 724 0 l 88 0 l 164 979 l 800 979 l 792 864 l 297 864 m 464 1063 l 617 1275 l 768 1275 l 556 1063 l 464 1063 z "},"Ĕ":{"ha":813,"x_min":88,"x_max":800,"o":"m 297 864 l 272 556 l 739 556 l 729 439 l 264 439 l 238 115 l 732 115 l 724 0 l 88 0 l 164 979 l 800 979 l 792 864 l 297 864 m 515 1078 q 375 1116 436 1078 q 290 1226 314 1154 l 371 1260 q 433 1191 396 1211 q 519 1171 469 1171 q 608 1191 569 1171 q 679 1260 647 1211 l 754 1226 q 658 1115 721 1153 q 515 1078 594 1078 z "},"Ě":{"ha":813,"x_min":88,"x_max":800,"o":"m 297 864 l 272 556 l 739 556 l 729 439 l 264 439 l 238 115 l 732 115 l 724 0 l 88 0 l 164 979 l 800 979 l 792 864 l 297 864 m 740 1275 l 554 1063 l 465 1063 l 313 1275 l 429 1275 l 518 1139 l 622 1275 l 740 1275 z "},"Ȩ":{"ha":813,"x_min":88,"x_max":800,"o":"m 297 864 l 272 556 l 739 556 l 729 439 l 264 439 l 238 115 l 732 115 l 724 0 l 458 0 l 446 -58 q 468 -57 454 -57 q 546 -81 517 -57 q 575 -150 575 -106 q 531 -236 575 -203 q 406 -269 486 -269 q 338 -262 374 -269 q 276 -243 303 -256 l 297 -178 q 404 -197 354 -197 q 459 -186 439 -197 q 479 -153 479 -175 q 432 -118 479 -118 q 374 -129 410 -118 l 349 -106 l 369 0 l 88 0 l 164 979 l 800 979 l 792 864 l 297 864 z "},"Ḝ":{"ha":813,"x_min":88,"x_max":800,"o":"m 515 1078 q 375 1116 436 1078 q 290 1226 314 1154 l 371 1260 q 433 1191 396 1211 q 519 1171 469 1171 q 608 1191 569 1171 q 679 1260 647 1211 l 754 1226 q 658 1115 721 1153 q 515 1078 594 1078 m 297 864 l 272 556 l 739 556 l 729 439 l 264 439 l 238 115 l 732 115 l 724 0 l 458 0 l 446 -58 q 468 -57 454 -57 q 546 -81 517 -57 q 575 -150 575 -106 q 531 -236 575 -203 q 406 -269 486 -269 q 338 -262 374 -269 q 276 -243 303 -256 l 297 -178 q 404 -197 354 -197 q 459 -186 439 -197 q 479 -153 479 -175 q 432 -118 479 -118 q 374 -129 410 -118 l 349 -106 l 369 0 l 88 0 l 164 979 l 800 979 l 792 864 l 297 864 z "},"Ê":{"ha":813,"x_min":88,"x_max":800,"o":"m 297 864 l 272 556 l 739 556 l 729 439 l 264 439 l 238 115 l 732 115 l 724 0 l 88 0 l 164 979 l 800 979 l 792 864 l 297 864 m 296 1063 l 482 1275 l 571 1275 l 724 1063 l 607 1063 l 525 1199 l 414 1063 l 296 1063 z "},"Ế":{"ha":813,"x_min":88,"x_max":914,"o":"m 297 864 l 272 556 l 739 556 l 729 439 l 264 439 l 238 115 l 732 115 l 724 0 l 88 0 l 164 979 l 800 979 l 792 864 l 297 864 m 772 1403 l 914 1403 l 721 1207 l 642 1207 l 772 1403 m 482 1263 l 569 1263 l 724 1063 l 610 1063 l 524 1189 l 413 1063 l 296 1063 l 482 1263 z "},"Ệ":{"ha":813,"x_min":88,"x_max":800,"o":"m 297 864 l 272 556 l 739 556 l 729 439 l 264 439 l 238 115 l 732 115 l 724 0 l 88 0 l 164 979 l 800 979 l 792 864 l 297 864 m 490 -119 l 479 -260 l 332 -260 l 344 -119 l 490 -119 m 296 1063 l 482 1275 l 571 1275 l 724 1063 l 607 1063 l 525 1199 l 414 1063 l 296 1063 z "},"Ề":{"ha":813,"x_min":88,"x_max":800,"o":"m 297 864 l 272 556 l 739 556 l 729 439 l 264 439 l 238 115 l 732 115 l 724 0 l 88 0 l 164 979 l 800 979 l 792 864 l 297 864 m 561 1403 l 686 1403 l 779 1207 l 701 1207 l 561 1403 m 482 1263 l 569 1263 l 724 1063 l 610 1063 l 524 1189 l 413 1063 l 296 1063 l 482 1263 z "},"Ể":{"ha":813,"x_min":88,"x_max":843,"o":"m 297 864 l 272 556 l 739 556 l 729 439 l 264 439 l 238 115 l 732 115 l 724 0 l 88 0 l 164 979 l 800 979 l 792 864 l 297 864 m 643 1232 q 662 1271 644 1258 q 708 1296 679 1283 q 733 1308 722 1301 q 743 1321 743 1314 q 699 1340 743 1340 q 606 1325 657 1340 l 589 1389 q 710 1411 644 1411 q 808 1389 772 1411 q 843 1332 843 1367 q 826 1288 843 1303 q 775 1260 808 1274 q 739 1242 751 1250 q 725 1219 726 1233 l 724 1207 l 640 1207 l 643 1232 m 482 1263 l 569 1263 l 724 1063 l 610 1063 l 524 1189 l 413 1063 l 296 1063 l 482 1263 z "},"Ễ":{"ha":813,"x_min":88,"x_max":800,"o":"m 297 864 l 272 556 l 739 556 l 729 439 l 264 439 l 238 115 l 732 115 l 724 0 l 88 0 l 164 979 l 800 979 l 792 864 l 297 864 m 628 1286 q 573 1294 599 1286 q 514 1318 547 1303 q 468 1336 486 1331 q 433 1342 450 1342 q 389 1326 407 1342 q 368 1285 371 1311 l 299 1285 q 342 1386 301 1349 q 439 1424 382 1424 q 488 1417 465 1424 q 528 1403 510 1410 q 553 1393 547 1396 q 633 1368 603 1368 q 678 1383 661 1368 q 697 1425 696 1399 l 767 1425 q 725 1324 765 1361 q 628 1286 685 1286 m 482 1263 l 569 1263 l 724 1063 l 610 1063 l 524 1189 l 413 1063 l 296 1063 l 482 1263 z "},"Ȅ":{"ha":813,"x_min":88,"x_max":800,"o":"m 297 864 l 272 556 l 739 556 l 729 439 l 264 439 l 238 115 l 732 115 l 724 0 l 88 0 l 164 979 l 800 979 l 792 864 l 297 864 m 268 1275 l 375 1275 l 460 1063 l 386 1063 l 268 1275 m 442 1275 l 549 1275 l 633 1063 l 560 1063 l 442 1275 z "},"Ë":{"ha":813,"x_min":88,"x_max":800,"o":"m 297 864 l 272 556 l 739 556 l 729 439 l 264 439 l 238 115 l 732 115 l 724 0 l 88 0 l 164 979 l 800 979 l 792 864 l 297 864 m 474 1239 l 463 1101 l 319 1101 l 329 1239 l 474 1239 m 718 1239 l 708 1101 l 564 1101 l 575 1239 l 718 1239 z "},"Ė":{"ha":813,"x_min":88,"x_max":800,"o":"m 297 864 l 272 556 l 739 556 l 729 439 l 264 439 l 238 115 l 732 115 l 724 0 l 88 0 l 164 979 l 800 979 l 792 864 l 297 864 m 606 1243 l 593 1096 l 432 1096 l 443 1243 l 606 1243 z "},"Ẹ":{"ha":813,"x_min":88,"x_max":800,"o":"m 297 864 l 272 556 l 739 556 l 729 439 l 264 439 l 238 115 l 732 115 l 724 0 l 88 0 l 164 979 l 800 979 l 792 864 l 297 864 m 490 -119 l 479 -260 l 332 -260 l 344 -119 l 490 -119 z "},"È":{"ha":813,"x_min":88,"x_max":800,"o":"m 297 864 l 272 556 l 739 556 l 729 439 l 264 439 l 238 115 l 732 115 l 724 0 l 88 0 l 164 979 l 800 979 l 792 864 l 297 864 m 293 1275 l 428 1275 l 556 1063 l 464 1063 l 293 1275 z "},"Ẻ":{"ha":813,"x_min":88,"x_max":800,"o":"m 297 864 l 272 556 l 739 556 l 729 439 l 264 439 l 238 115 l 732 115 l 724 0 l 88 0 l 164 979 l 800 979 l 792 864 l 297 864 m 551 1063 l 469 1063 l 471 1089 q 489 1127 472 1113 q 533 1154 506 1142 q 562 1171 553 1164 q 571 1188 571 1178 q 558 1203 571 1197 q 522 1210 546 1210 q 436 1193 481 1210 l 418 1258 q 536 1281 476 1281 q 636 1258 600 1281 q 672 1199 672 1235 q 653 1153 672 1169 q 601 1121 635 1136 q 565 1100 575 1108 q 553 1078 554 1092 l 551 1063 z "},"Ȇ":{"ha":813,"x_min":88,"x_max":800,"o":"m 297 864 l 272 556 l 739 556 l 729 439 l 264 439 l 238 115 l 732 115 l 724 0 l 88 0 l 164 979 l 800 979 l 792 864 l 297 864 m 521 1261 q 661 1223 600 1261 q 746 1113 722 1185 l 665 1079 q 603 1148 640 1128 q 517 1168 567 1168 q 428 1148 467 1168 q 357 1079 389 1128 l 282 1113 q 378 1224 315 1186 q 521 1261 442 1261 z "},"Ē":{"ha":813,"x_min":88,"x_max":800,"o":"m 297 864 l 272 556 l 739 556 l 729 439 l 264 439 l 238 115 l 732 115 l 724 0 l 88 0 l 164 979 l 800 979 l 792 864 l 297 864 m 313 1218 l 733 1218 l 725 1121 l 304 1121 l 313 1218 z "},"Ḗ":{"ha":813,"x_min":88,"x_max":800,"o":"m 297 864 l 272 556 l 739 556 l 729 439 l 264 439 l 238 115 l 732 115 l 724 0 l 88 0 l 164 979 l 800 979 l 792 864 l 297 864 m 313 1218 l 733 1218 l 725 1121 l 304 1121 l 313 1218 m 482 1285 l 635 1497 l 786 1497 l 574 1285 l 482 1285 z "},"Ḕ":{"ha":813,"x_min":88,"x_max":800,"o":"m 297 864 l 272 556 l 739 556 l 729 439 l 264 439 l 238 115 l 732 115 l 724 0 l 88 0 l 164 979 l 800 979 l 792 864 l 297 864 m 313 1218 l 733 1218 l 725 1121 l 304 1121 l 313 1218 m 311 1497 l 446 1497 l 574 1285 l 482 1285 l 311 1497 z "},"Ę":{"ha":813,"x_min":88,"x_max":800,"o":"m 297 864 l 272 556 l 739 556 l 729 439 l 264 439 l 238 115 l 732 115 l 724 0 l 700 0 q 607 -30 640 0 q 574 -107 574 -60 q 595 -165 574 -144 q 654 -186 617 -186 q 736 -164 692 -186 l 753 -239 q 633 -269 696 -269 q 515 -231 560 -269 q 471 -129 471 -192 q 532 0 471 -50 l 88 0 l 164 979 l 800 979 l 790 864 l 297 864 z "},"Ẽ":{"ha":813,"x_min":88,"x_max":800,"o":"m 297 864 l 272 556 l 739 556 l 729 439 l 264 439 l 238 115 l 732 115 l 724 0 l 88 0 l 164 979 l 800 979 l 792 864 l 297 864 m 283 1086 q 327 1215 288 1172 q 428 1258 367 1258 q 478 1247 454 1258 q 538 1214 501 1236 q 583 1188 567 1196 q 615 1181 600 1181 q 663 1200 644 1181 q 683 1254 682 1219 l 754 1254 q 709 1125 749 1168 q 608 1082 669 1082 q 558 1093 582 1082 q 499 1126 535 1104 q 455 1151 472 1143 q 422 1160 438 1160 q 374 1140 393 1160 q 353 1086 356 1121 l 283 1086 z "},"F":{"ha":779,"x_min":88,"x_max":786,"o":"m 299 863 l 274 556 l 725 556 l 715 439 l 264 439 l 229 0 l 88 0 l 164 979 l 786 979 l 776 863 l 299 863 z "},"G":{"ha":1011,"x_min":90,"x_max":933,"o":"m 564 519 l 922 519 l 886 60 q 729 8 822 28 q 544 -11 636 -11 q 209 110 328 -11 q 90 443 90 231 q 151 733 90 610 q 325 924 213 857 q 589 990 438 990 q 933 869 801 990 l 874 764 q 740 847 806 821 q 590 872 674 872 q 330 758 422 871 q 238 446 238 646 q 318 193 238 282 q 558 104 399 104 q 763 139 661 104 l 785 411 l 556 411 l 564 519 z "},"Ğ":{"ha":1011,"x_min":90,"x_max":933,"o":"m 564 519 l 922 519 l 886 60 q 729 8 822 28 q 544 -11 636 -11 q 209 110 328 -11 q 90 443 90 231 q 151 733 90 610 q 325 924 213 857 q 589 990 438 990 q 933 869 801 990 l 874 764 q 740 847 806 821 q 590 872 674 872 q 330 758 422 871 q 238 446 238 646 q 318 193 238 282 q 558 104 399 104 q 763 139 661 104 l 785 411 l 556 411 l 564 519 m 613 1078 q 472 1116 533 1078 q 388 1226 411 1154 l 468 1260 q 530 1191 493 1211 q 617 1171 567 1171 q 706 1191 667 1171 q 776 1260 744 1211 l 851 1226 q 755 1115 818 1153 q 613 1078 692 1078 z "},"Ǧ":{"ha":1011,"x_min":90,"x_max":933,"o":"m 564 519 l 922 519 l 886 60 q 729 8 822 28 q 544 -11 636 -11 q 209 110 328 -11 q 90 443 90 231 q 151 733 90 610 q 325 924 213 857 q 589 990 438 990 q 933 869 801 990 l 874 764 q 740 847 806 821 q 590 872 674 872 q 330 758 422 871 q 238 446 238 646 q 318 193 238 282 q 558 104 399 104 q 763 139 661 104 l 785 411 l 556 411 l 564 519 m 838 1275 l 651 1063 l 563 1063 l 410 1275 l 526 1275 l 615 1139 l 719 1275 l 838 1275 z "},"Ĝ":{"ha":1011,"x_min":90,"x_max":933,"o":"m 564 519 l 922 519 l 886 60 q 729 8 822 28 q 544 -11 636 -11 q 209 110 328 -11 q 90 443 90 231 q 151 733 90 610 q 325 924 213 857 q 589 990 438 990 q 933 869 801 990 l 874 764 q 740 847 806 821 q 590 872 674 872 q 330 758 422 871 q 238 446 238 646 q 318 193 238 282 q 558 104 399 104 q 763 139 661 104 l 785 411 l 556 411 l 564 519 m 393 1063 l 579 1275 l 668 1275 l 821 1063 l 704 1063 l 622 1199 l 511 1063 l 393 1063 z "},"Ģ":{"ha":1011,"x_min":90,"x_max":933,"o":"m 564 519 l 922 519 l 886 60 q 729 8 822 28 q 544 -11 636 -11 q 209 110 328 -11 q 90 443 90 231 q 151 733 90 610 q 325 924 213 857 q 589 990 438 990 q 933 869 801 990 l 874 764 q 740 847 806 821 q 590 872 674 872 q 330 758 422 871 q 238 446 238 646 q 318 193 238 282 q 558 104 399 104 q 763 139 661 104 l 785 411 l 556 411 l 564 519 m 604 -97 l 597 -181 q 573 -283 593 -239 q 508 -367 553 -328 l 454 -325 q 511 -225 503 -278 l 438 -225 l 447 -97 l 604 -97 z "},"Ġ":{"ha":1011,"x_min":90,"x_max":933,"o":"m 564 519 l 922 519 l 886 60 q 729 8 822 28 q 544 -11 636 -11 q 209 110 328 -11 q 90 443 90 231 q 151 733 90 610 q 325 924 213 857 q 589 990 438 990 q 933 869 801 990 l 874 764 q 740 847 806 821 q 590 872 674 872 q 330 758 422 871 q 238 446 238 646 q 318 193 238 282 q 558 104 399 104 q 763 139 661 104 l 785 411 l 556 411 l 564 519 m 703 1243 l 690 1096 l 529 1096 l 540 1243 l 703 1243 z "},"Ḡ":{"ha":1011,"x_min":90,"x_max":933,"o":"m 564 519 l 922 519 l 886 60 q 729 8 822 28 q 544 -11 636 -11 q 209 110 328 -11 q 90 443 90 231 q 151 733 90 610 q 325 924 213 857 q 589 990 438 990 q 933 869 801 990 l 874 764 q 740 847 806 821 q 590 872 674 872 q 330 758 422 871 q 238 446 238 646 q 318 193 238 282 q 558 104 399 104 q 763 139 661 104 l 785 411 l 556 411 l 564 519 m 410 1218 l 831 1218 l 822 1121 l 401 1121 l 410 1218 z "},"H":{"ha":1058,"x_min":88,"x_max":994,"o":"m 994 979 l 917 0 l 775 0 l 810 439 l 264 439 l 229 0 l 88 0 l 164 979 l 306 979 l 272 556 l 819 556 l 853 979 l 994 979 z "},"Ħ":{"ha":1108,"x_min":43,"x_max":1133,"o":"m 1125 718 l 1011 718 l 954 0 l 813 0 l 847 439 l 301 439 l 267 0 l 125 0 l 181 718 l 43 718 l 51 828 l 189 828 l 201 979 l 343 979 l 331 828 l 878 828 l 890 979 l 1032 979 l 1019 828 l 1133 828 l 1125 718 m 869 718 l 322 718 l 310 556 l 857 556 l 869 718 z "},"Ḫ":{"ha":1058,"x_min":88,"x_max":994,"o":"m 994 979 l 917 0 l 775 0 l 810 439 l 264 439 l 229 0 l 88 0 l 164 979 l 306 979 l 272 556 l 819 556 l 853 979 l 994 979 m 483 -300 q 342 -253 403 -300 q 257 -117 281 -207 l 338 -83 q 490 -203 385 -203 q 580 -175 539 -203 q 654 -83 621 -147 l 731 -117 q 631 -255 697 -210 q 483 -300 565 -300 z "},"Ĥ":{"ha":1058,"x_min":88,"x_max":994,"o":"m 994 979 l 917 0 l 775 0 l 810 439 l 264 439 l 229 0 l 88 0 l 164 979 l 306 979 l 272 556 l 819 556 l 853 979 l 994 979 m 372 1063 l 558 1275 l 647 1275 l 800 1063 l 683 1063 l 601 1199 l 490 1063 l 372 1063 z "},"Ḥ":{"ha":1058,"x_min":88,"x_max":994,"o":"m 994 979 l 917 0 l 775 0 l 810 439 l 264 439 l 229 0 l 88 0 l 164 979 l 306 979 l 272 556 l 819 556 l 853 979 l 994 979 m 567 -119 l 556 -260 l 408 -260 l 421 -119 l 567 -119 z "},"I":{"ha":371,"x_min":88,"x_max":307,"o":"m 164 979 l 307 979 l 231 0 l 88 0 l 164 979 z "},"Í":{"ha":371,"x_min":88,"x_max":501,"o":"m 164 979 l 307 979 l 231 0 l 88 0 l 164 979 m 197 1063 l 350 1275 l 501 1275 l 289 1063 l 197 1063 z "},"Ĭ":{"ha":371,"x_min":24,"x_max":488,"o":"m 164 979 l 307 979 l 231 0 l 88 0 l 164 979 m 249 1078 q 108 1116 169 1078 q 24 1226 47 1154 l 104 1260 q 166 1191 129 1211 q 253 1171 203 1171 q 342 1191 303 1171 q 413 1260 381 1211 l 488 1226 q 391 1115 454 1153 q 249 1078 328 1078 z "},"Î":{"ha":371,"x_min":29,"x_max":457,"o":"m 164 979 l 307 979 l 231 0 l 88 0 l 164 979 m 29 1063 l 215 1275 l 304 1275 l 457 1063 l 340 1063 l 258 1199 l 147 1063 l 29 1063 z "},"Ȉ":{"ha":371,"x_min":1,"x_max":367,"o":"m 164 979 l 307 979 l 231 0 l 88 0 l 164 979 m 1 1275 l 108 1275 l 193 1063 l 119 1063 l 1 1275 m 175 1275 l 282 1275 l 367 1063 l 293 1063 l 175 1275 z "},"Ï":{"ha":371,"x_min":53,"x_max":451,"o":"m 164 979 l 307 979 l 231 0 l 88 0 l 164 979 m 207 1239 l 196 1101 l 53 1101 l 63 1239 l 207 1239 m 451 1239 l 442 1101 l 297 1101 l 308 1239 l 451 1239 z "},"Ḯ":{"ha":371,"x_min":53,"x_max":519,"o":"m 164 979 l 307 979 l 231 0 l 88 0 l 164 979 m 207 1239 l 196 1101 l 53 1101 l 63 1239 l 207 1239 m 451 1239 l 442 1101 l 297 1101 l 308 1239 l 451 1239 m 215 1285 l 368 1497 l 519 1497 l 307 1285 l 215 1285 z "},"İ":{"ha":371,"x_min":88,"x_max":339,"o":"m 164 979 l 307 979 l 231 0 l 88 0 l 164 979 m 339 1243 l 326 1096 l 165 1096 l 176 1243 l 339 1243 z "},"Ị":{"ha":371,"x_min":65,"x_max":307,"o":"m 164 979 l 307 979 l 231 0 l 88 0 l 164 979 m 224 -119 l 213 -260 l 65 -260 l 78 -119 l 224 -119 z "},"Ì":{"ha":371,"x_min":26,"x_max":307,"o":"m 164 979 l 307 979 l 231 0 l 88 0 l 164 979 m 26 1275 l 161 1275 l 289 1063 l 197 1063 l 26 1275 z "},"Ỉ":{"ha":371,"x_min":88,"x_max":406,"o":"m 164 979 l 307 979 l 231 0 l 88 0 l 164 979 m 285 1063 l 203 1063 l 204 1089 q 222 1127 206 1113 q 267 1154 239 1142 q 295 1171 286 1164 q 304 1188 304 1178 q 292 1203 304 1197 q 256 1210 279 1210 q 169 1193 214 1210 l 151 1258 q 269 1281 210 1281 q 369 1258 333 1281 q 406 1199 406 1235 q 387 1153 406 1169 q 335 1121 368 1136 q 298 1100 308 1108 q 286 1078 288 1092 l 285 1063 z "},"Ȋ":{"ha":371,"x_min":15,"x_max":479,"o":"m 164 979 l 307 979 l 231 0 l 88 0 l 164 979 m 254 1261 q 394 1223 333 1261 q 479 1113 456 1185 l 399 1079 q 337 1148 374 1128 q 250 1168 300 1168 q 161 1148 200 1168 q 90 1079 122 1128 l 15 1113 q 112 1224 49 1186 q 254 1261 175 1261 z "},"Ī":{"ha":371,"x_min":38,"x_max":467,"o":"m 164 979 l 307 979 l 231 0 l 88 0 l 164 979 m 46 1218 l 467 1218 l 458 1121 l 38 1121 l 46 1218 z "},"Į":{"ha":371,"x_min":-14,"x_max":307,"o":"m 169 -186 q 251 -164 207 -186 l 268 -239 q 147 -269 211 -269 q 30 -230 74 -269 q -14 -126 -14 -190 q 13 -32 -14 -72 q 90 32 39 8 l 164 979 l 307 979 l 231 0 l 218 0 q 121 -30 153 0 q 89 -106 89 -60 q 110 -165 89 -144 q 169 -186 132 -186 z "},"Ĩ":{"ha":371,"x_min":17,"x_max":488,"o":"m 164 979 l 307 979 l 231 0 l 88 0 l 164 979 m 17 1086 q 60 1215 21 1172 q 161 1258 100 1258 q 211 1247 188 1258 q 271 1214 235 1236 q 317 1188 300 1196 q 349 1181 333 1181 q 397 1200 378 1181 q 417 1254 415 1219 l 488 1254 q 442 1125 482 1168 q 342 1082 403 1082 q 292 1093 315 1082 q 232 1126 268 1104 q 188 1151 206 1143 q 156 1160 171 1160 q 108 1140 126 1160 q 86 1086 89 1121 l 17 1086 z "},"J":{"ha":474,"x_min":-29,"x_max":410,"o":"m -29 107 l 57 113 q 167 157 129 118 q 210 274 204 196 l 265 979 l 410 979 l 354 274 q 273 72 344 140 q 68 -4 201 4 l -24 -11 l -29 107 z "},"Ĵ":{"ha":474,"x_min":-29,"x_max":558,"o":"m -29 107 l 57 113 q 167 157 129 118 q 210 274 204 196 l 265 979 l 410 979 l 354 274 q 273 72 344 140 q 68 -4 201 4 l -24 -11 l -29 107 m 131 1063 l 317 1275 l 406 1275 l 558 1063 l 442 1063 l 360 1199 l 249 1063 l 131 1063 z "},"K":{"ha":892,"x_min":88,"x_max":944,"o":"m 413 501 l 892 0 l 719 0 l 267 463 l 231 0 l 88 0 l 164 979 l 307 979 l 272 535 l 760 979 l 944 979 l 413 501 z "},"Ķ":{"ha":892,"x_min":88,"x_max":944,"o":"m 413 501 l 892 0 l 719 0 l 267 463 l 231 0 l 88 0 l 164 979 l 307 979 l 272 535 l 760 979 l 944 979 l 413 501 m 493 -97 l 486 -181 q 462 -283 482 -239 q 397 -367 442 -328 l 343 -325 q 400 -225 392 -278 l 326 -225 l 336 -97 l 493 -97 z "},"L":{"ha":760,"x_min":88,"x_max":715,"o":"m 164 979 l 308 979 l 240 119 l 715 119 l 706 0 l 88 0 l 164 979 z "},"Ǉ":{"ha":1233,"x_min":88,"x_max":1169,"o":"m 164 979 l 308 979 l 240 119 l 674 119 l 664 0 l 88 0 l 164 979 m 731 107 l 815 113 q 926 157 889 118 q 969 274 964 196 l 1025 979 l 1169 979 l 1114 274 q 1033 72 1104 140 q 828 -4 961 4 l 736 -11 l 731 107 z "},"Ĺ":{"ha":760,"x_min":88,"x_max":715,"o":"m 164 979 l 308 979 l 240 119 l 715 119 l 706 0 l 88 0 l 164 979 m 196 1063 l 349 1275 l 500 1275 l 288 1063 l 196 1063 z "},"Ľ":{"ha":760,"x_min":88,"x_max":715,"o":"m 164 979 l 308 979 l 240 119 l 715 119 l 706 0 l 88 0 l 164 979 m 406 714 l 425 979 l 532 979 l 476 714 l 406 714 z "},"Ļ":{"ha":760,"x_min":88,"x_max":715,"o":"m 164 979 l 308 979 l 240 119 l 715 119 l 706 0 l 88 0 l 164 979 m 475 -97 l 468 -181 q 444 -283 464 -239 q 379 -367 424 -328 l 325 -325 q 382 -225 374 -278 l 308 -225 l 318 -97 l 475 -97 z "},"Ŀ":{"ha":760,"x_min":88,"x_max":715,"o":"m 164 979 l 308 979 l 240 119 l 715 119 l 706 0 l 88 0 l 164 979 m 604 565 l 592 415 l 426 415 l 439 565 l 604 565 z "},"Ḷ":{"ha":760,"x_min":88,"x_max":715,"o":"m 164 979 l 308 979 l 240 119 l 715 119 l 706 0 l 88 0 l 164 979 m 468 -119 l 457 -260 l 310 -260 l 322 -119 l 468 -119 z "},"ǈ":{"ha":1096,"x_min":88,"x_max":1060,"o":"m 164 979 l 308 979 l 240 119 l 715 119 l 706 0 l 88 0 l 164 979 m 972 15 q 897 -181 961 -119 q 688 -251 833 -243 l 622 -256 l 618 -151 l 686 -147 q 791 -108 757 -140 q 831 -6 825 -75 l 885 678 l 1025 678 l 972 15 m 1060 981 l 1047 835 l 886 835 l 897 981 l 1060 981 z "},"Ḻ":{"ha":760,"x_min":88,"x_max":715,"o":"m 164 979 l 308 979 l 240 119 l 715 119 l 706 0 l 88 0 l 164 979 m 182 -143 l 604 -143 l 596 -236 l 175 -236 l 182 -143 z "},"Ł":{"ha":785,"x_min":-7,"x_max":740,"o":"m 740 119 l 732 0 l 113 0 l 143 389 l 42 333 l -7 431 l 153 518 l 189 979 l 333 979 l 303 601 l 543 733 l 590 636 l 293 472 l 265 119 l 740 119 z "},"M":{"ha":1168,"x_min":89,"x_max":1103,"o":"m 1103 979 l 1026 0 l 897 0 l 953 704 l 619 157 l 522 157 l 272 700 l 218 0 l 89 0 l 165 979 l 282 979 l 582 304 l 989 979 l 1103 979 z "},"Ṃ":{"ha":1168,"x_min":89,"x_max":1103,"o":"m 1103 979 l 1026 0 l 897 0 l 953 704 l 619 157 l 522 157 l 272 700 l 218 0 l 89 0 l 165 979 l 282 979 l 582 304 l 989 979 l 1103 979 m 621 -119 l 610 -260 l 463 -260 l 475 -119 l 621 -119 z "},"N":{"ha":1032,"x_min":88,"x_max":968,"o":"m 968 979 l 890 0 l 782 0 l 281 739 l 222 0 l 88 0 l 164 979 l 274 979 l 775 243 l 833 979 l 968 979 z "},"Ǌ":{"ha":1506,"x_min":88,"x_max":1442,"o":"m 968 979 l 890 0 l 782 0 l 281 739 l 222 0 l 88 0 l 164 979 l 274 979 l 775 243 l 833 979 l 968 979 m 1003 107 l 1089 113 q 1199 157 1161 118 q 1242 274 1236 196 l 1297 979 l 1442 979 l 1386 274 q 1305 72 1376 140 q 1100 -4 1233 4 l 1008 -11 l 1003 107 z "},"Ń":{"ha":1032,"x_min":88,"x_max":968,"o":"m 968 979 l 890 0 l 782 0 l 281 739 l 222 0 l 88 0 l 164 979 l 274 979 l 775 243 l 833 979 l 968 979 m 526 1063 l 679 1275 l 831 1275 l 618 1063 l 526 1063 z "},"Ň":{"ha":1032,"x_min":88,"x_max":968,"o":"m 968 979 l 890 0 l 782 0 l 281 739 l 222 0 l 88 0 l 164 979 l 274 979 l 775 243 l 833 979 l 968 979 m 803 1275 l 617 1063 l 528 1063 l 375 1275 l 492 1275 l 581 1139 l 685 1275 l 803 1275 z "},"Ņ":{"ha":1032,"x_min":88,"x_max":968,"o":"m 968 979 l 890 0 l 782 0 l 281 739 l 222 0 l 88 0 l 164 979 l 274 979 l 775 243 l 833 979 l 968 979 m 561 -97 l 554 -181 q 530 -283 550 -239 q 465 -367 510 -328 l 411 -325 q 468 -225 460 -278 l 394 -225 l 404 -97 l 561 -97 z "},"Ṅ":{"ha":1032,"x_min":88,"x_max":968,"o":"m 968 979 l 890 0 l 782 0 l 281 739 l 222 0 l 88 0 l 164 979 l 274 979 l 775 243 l 833 979 l 968 979 m 668 1243 l 656 1096 l 494 1096 l 506 1243 l 668 1243 z "},"Ṇ":{"ha":1032,"x_min":88,"x_max":968,"o":"m 968 979 l 890 0 l 782 0 l 281 739 l 222 0 l 88 0 l 164 979 l 274 979 l 775 243 l 833 979 l 968 979 m 554 -119 l 543 -260 l 396 -260 l 408 -119 l 554 -119 z "},"Ŋ":{"ha":1032,"x_min":88,"x_max":968,"o":"m 968 979 l 892 19 q 813 -176 882 -108 q 608 -253 743 -244 l 514 -260 l 508 -147 l 597 -142 q 710 -99 669 -136 q 757 8 751 -61 l 758 35 l 281 739 l 222 0 l 88 0 l 164 979 l 274 979 l 775 243 l 833 979 l 968 979 z "},"ǋ":{"ha":1368,"x_min":88,"x_max":1332,"o":"m 968 979 l 890 0 l 782 0 l 281 739 l 222 0 l 88 0 l 164 979 l 274 979 l 775 243 l 833 979 l 968 979 m 1244 15 q 1169 -181 1233 -119 q 960 -251 1106 -243 l 894 -256 l 890 -151 l 958 -147 q 1063 -108 1029 -140 q 1103 -6 1097 -75 l 1157 678 l 1297 678 l 1244 15 m 1332 981 l 1319 835 l 1158 835 l 1169 981 l 1332 981 z "},"Ṉ":{"ha":1032,"x_min":88,"x_max":968,"o":"m 968 979 l 890 0 l 782 0 l 281 739 l 222 0 l 88 0 l 164 979 l 274 979 l 775 243 l 833 979 l 968 979 m 268 -143 l 690 -143 l 682 -236 l 261 -236 l 268 -143 z "},"Ñ":{"ha":1032,"x_min":88,"x_max":968,"o":"m 968 979 l 890 0 l 782 0 l 281 739 l 222 0 l 88 0 l 164 979 l 274 979 l 775 243 l 833 979 l 968 979 m 346 1086 q 390 1215 350 1172 q 490 1258 429 1258 q 540 1247 517 1258 q 600 1214 564 1236 q 646 1188 629 1196 q 678 1181 663 1181 q 726 1200 707 1181 q 746 1254 744 1219 l 817 1254 q 772 1125 811 1168 q 671 1082 732 1082 q 621 1093 644 1082 q 561 1126 597 1104 q 517 1151 535 1143 q 485 1160 500 1160 q 437 1140 456 1160 q 415 1086 418 1121 l 346 1086 z "},"O":{"ha":1071,"x_min":92,"x_max":1003,"o":"m 538 -12 q 299 43 400 -12 q 145 203 199 99 q 92 451 92 308 q 149 736 92 614 q 312 925 207 858 q 556 992 417 992 q 794 936 693 992 q 949 776 894 881 q 1003 528 1003 671 q 945 243 1003 365 q 783 54 888 121 q 538 -12 678 -12 m 538 107 q 708 157 636 107 q 818 302 779 207 q 857 528 857 397 q 779 783 857 694 q 557 872 701 872 q 323 760 408 872 q 238 450 238 647 q 315 196 238 285 q 538 107 393 107 z "},"Ó":{"ha":1071,"x_min":92,"x_max":1003,"o":"m 538 -12 q 299 43 400 -12 q 145 203 199 99 q 92 451 92 308 q 149 736 92 614 q 312 925 207 858 q 556 992 417 992 q 794 936 693 992 q 949 776 894 881 q 1003 528 1003 671 q 945 243 1003 365 q 783 54 888 121 q 538 -12 678 -12 m 538 107 q 708 157 636 107 q 818 302 779 207 q 857 528 857 397 q 779 783 857 694 q 557 872 701 872 q 323 760 408 872 q 238 450 238 647 q 315 196 238 285 q 538 107 393 107 m 546 1063 l 699 1275 l 850 1275 l 638 1063 l 546 1063 z "},"Ŏ":{"ha":1071,"x_min":92,"x_max":1003,"o":"m 538 -12 q 299 43 400 -12 q 145 203 199 99 q 92 451 92 308 q 149 736 92 614 q 312 925 207 858 q 556 992 417 992 q 794 936 693 992 q 949 776 894 881 q 1003 528 1003 671 q 945 243 1003 365 q 783 54 888 121 q 538 -12 678 -12 m 538 107 q 708 157 636 107 q 818 302 779 207 q 857 528 857 397 q 779 783 857 694 q 557 872 701 872 q 323 760 408 872 q 238 450 238 647 q 315 196 238 285 q 538 107 393 107 m 597 1078 q 457 1116 518 1078 q 372 1226 396 1154 l 453 1260 q 515 1191 478 1211 q 601 1171 551 1171 q 690 1191 651 1171 q 761 1260 729 1211 l 836 1226 q 740 1115 803 1153 q 597 1078 676 1078 z "},"Ô":{"ha":1071,"x_min":92,"x_max":1003,"o":"m 538 -12 q 299 43 400 -12 q 145 203 199 99 q 92 451 92 308 q 149 736 92 614 q 312 925 207 858 q 556 992 417 992 q 794 936 693 992 q 949 776 894 881 q 1003 528 1003 671 q 945 243 1003 365 q 783 54 888 121 q 538 -12 678 -12 m 538 107 q 708 157 636 107 q 818 302 779 207 q 857 528 857 397 q 779 783 857 694 q 557 872 701 872 q 323 760 408 872 q 238 450 238 647 q 315 196 238 285 q 538 107 393 107 m 378 1063 l 564 1275 l 653 1275 l 806 1063 l 689 1063 l 607 1199 l 496 1063 l 378 1063 z "},"Ố":{"ha":1071,"x_min":92,"x_max":1003,"o":"m 538 -12 q 299 43 400 -12 q 145 203 199 99 q 92 451 92 308 q 149 736 92 614 q 312 925 207 858 q 556 992 417 992 q 794 936 693 992 q 949 776 894 881 q 1003 528 1003 671 q 945 243 1003 365 q 783 54 888 121 q 538 -12 678 -12 m 538 107 q 708 157 636 107 q 818 302 779 207 q 857 528 857 397 q 779 783 857 694 q 557 872 701 872 q 323 760 408 872 q 238 450 238 647 q 315 196 238 285 q 538 107 393 107 m 854 1403 l 996 1403 l 803 1207 l 724 1207 l 854 1403 m 564 1263 l 651 1263 l 806 1063 l 692 1063 l 606 1189 l 494 1063 l 378 1063 l 564 1263 z "},"Ộ":{"ha":1071,"x_min":92,"x_max":1003,"o":"m 538 -12 q 299 43 400 -12 q 145 203 199 99 q 92 451 92 308 q 149 736 92 614 q 312 925 207 858 q 556 992 417 992 q 794 936 693 992 q 949 776 894 881 q 1003 528 1003 671 q 945 243 1003 365 q 783 54 888 121 q 538 -12 678 -12 m 538 107 q 708 157 636 107 q 818 302 779 207 q 857 528 857 397 q 779 783 857 694 q 557 872 701 872 q 323 760 408 872 q 238 450 238 647 q 315 196 238 285 q 538 107 393 107 m 572 -119 l 561 -260 l 414 -260 l 426 -119 l 572 -119 m 378 1063 l 564 1275 l 653 1275 l 806 1063 l 689 1063 l 607 1199 l 496 1063 l 378 1063 z "},"Ồ":{"ha":1071,"x_min":92,"x_max":1003,"o":"m 538 -12 q 299 43 400 -12 q 145 203 199 99 q 92 451 92 308 q 149 736 92 614 q 312 925 207 858 q 556 992 417 992 q 794 936 693 992 q 949 776 894 881 q 1003 528 1003 671 q 945 243 1003 365 q 783 54 888 121 q 538 -12 678 -12 m 538 107 q 708 157 636 107 q 818 302 779 207 q 857 528 857 397 q 779 783 857 694 q 557 872 701 872 q 323 760 408 872 q 238 450 238 647 q 315 196 238 285 q 538 107 393 107 m 643 1403 l 768 1403 l 861 1207 l 783 1207 l 643 1403 m 564 1263 l 651 1263 l 806 1063 l 692 1063 l 606 1189 l 494 1063 l 378 1063 l 564 1263 z "},"Ổ":{"ha":1071,"x_min":92,"x_max":1003,"o":"m 538 -12 q 299 43 400 -12 q 145 203 199 99 q 92 451 92 308 q 149 736 92 614 q 312 925 207 858 q 556 992 417 992 q 794 936 693 992 q 949 776 894 881 q 1003 528 1003 671 q 945 243 1003 365 q 783 54 888 121 q 538 -12 678 -12 m 538 107 q 708 157 636 107 q 818 302 779 207 q 857 528 857 397 q 779 783 857 694 q 557 872 701 872 q 323 760 408 872 q 238 450 238 647 q 315 196 238 285 q 538 107 393 107 m 725 1232 q 744 1271 726 1258 q 790 1296 761 1283 q 815 1308 804 1301 q 825 1321 825 1314 q 781 1340 825 1340 q 688 1325 739 1340 l 671 1389 q 792 1411 726 1411 q 890 1389 854 1411 q 925 1332 925 1367 q 908 1288 925 1303 q 857 1260 890 1274 q 821 1242 833 1250 q 807 1219 808 1233 l 806 1207 l 722 1207 l 725 1232 m 564 1263 l 651 1263 l 806 1063 l 692 1063 l 606 1189 l 494 1063 l 378 1063 l 564 1263 z "},"Ỗ":{"ha":1071,"x_min":92,"x_max":1003,"o":"m 538 -12 q 299 43 400 -12 q 145 203 199 99 q 92 451 92 308 q 149 736 92 614 q 312 925 207 858 q 556 992 417 992 q 794 936 693 992 q 949 776 894 881 q 1003 528 1003 671 q 945 243 1003 365 q 783 54 888 121 q 538 -12 678 -12 m 538 107 q 708 157 636 107 q 818 302 779 207 q 857 528 857 397 q 779 783 857 694 q 557 872 701 872 q 323 760 408 872 q 238 450 238 647 q 315 196 238 285 q 538 107 393 107 m 710 1286 q 655 1294 681 1286 q 596 1318 629 1303 q 550 1336 568 1331 q 515 1342 532 1342 q 471 1326 489 1342 q 450 1285 453 1311 l 381 1285 q 424 1386 383 1349 q 521 1424 464 1424 q 569 1417 547 1424 q 610 1403 592 1410 q 635 1393 629 1396 q 715 1368 685 1368 q 760 1383 743 1368 q 779 1425 778 1399 l 849 1425 q 807 1324 847 1361 q 710 1286 767 1286 m 564 1263 l 651 1263 l 806 1063 l 692 1063 l 606 1189 l 494 1063 l 378 1063 l 564 1263 z "},"Ȍ":{"ha":1071,"x_min":92,"x_max":1003,"o":"m 538 -12 q 299 43 400 -12 q 145 203 199 99 q 92 451 92 308 q 149 736 92 614 q 312 925 207 858 q 556 992 417 992 q 794 936 693 992 q 949 776 894 881 q 1003 528 1003 671 q 945 243 1003 365 q 783 54 888 121 q 538 -12 678 -12 m 538 107 q 708 157 636 107 q 818 302 779 207 q 857 528 857 397 q 779 783 857 694 q 557 872 701 872 q 323 760 408 872 q 238 450 238 647 q 315 196 238 285 q 538 107 393 107 m 350 1275 l 457 1275 l 542 1063 l 468 1063 l 350 1275 m 524 1275 l 631 1275 l 715 1063 l 642 1063 l 524 1275 z "},"Ö":{"ha":1071,"x_min":92,"x_max":1003,"o":"m 538 -12 q 299 43 400 -12 q 145 203 199 99 q 92 451 92 308 q 149 736 92 614 q 312 925 207 858 q 556 992 417 992 q 794 936 693 992 q 949 776 894 881 q 1003 528 1003 671 q 945 243 1003 365 q 783 54 888 121 q 538 -12 678 -12 m 538 107 q 708 157 636 107 q 818 302 779 207 q 857 528 857 397 q 779 783 857 694 q 557 872 701 872 q 323 760 408 872 q 238 450 238 647 q 315 196 238 285 q 538 107 393 107 m 556 1239 l 544 1101 l 401 1101 l 411 1239 l 556 1239 m 800 1239 l 790 1101 l 646 1101 l 657 1239 l 800 1239 z "},"Ȫ":{"ha":1071,"x_min":92,"x_max":1003,"o":"m 538 -12 q 299 43 400 -12 q 145 203 199 99 q 92 451 92 308 q 149 736 92 614 q 312 925 207 858 q 556 992 417 992 q 794 936 693 992 q 949 776 894 881 q 1003 528 1003 671 q 945 243 1003 365 q 783 54 888 121 q 538 -12 678 -12 m 538 107 q 708 157 636 107 q 818 302 779 207 q 857 528 857 397 q 779 783 857 694 q 557 872 701 872 q 323 760 408 872 q 238 450 238 647 q 315 196 238 285 q 538 107 393 107 m 556 1239 l 544 1101 l 401 1101 l 411 1239 l 556 1239 m 800 1239 l 790 1101 l 646 1101 l 657 1239 l 800 1239 m 413 1440 l 833 1440 l 825 1343 l 404 1343 l 413 1440 z "},"Ȱ":{"ha":1071,"x_min":92,"x_max":1003,"o":"m 538 -12 q 299 43 400 -12 q 145 203 199 99 q 92 451 92 308 q 149 736 92 614 q 312 925 207 858 q 556 992 417 992 q 794 936 693 992 q 949 776 894 881 q 1003 528 1003 671 q 945 243 1003 365 q 783 54 888 121 q 538 -12 678 -12 m 538 107 q 708 157 636 107 q 818 302 779 207 q 857 528 857 397 q 779 783 857 694 q 557 872 701 872 q 323 760 408 872 q 238 450 238 647 q 315 196 238 285 q 538 107 393 107 m 688 1243 l 675 1096 l 514 1096 l 525 1243 l 688 1243 m 413 1440 l 833 1440 l 825 1343 l 404 1343 l 413 1440 z "},"Ọ":{"ha":1071,"x_min":92,"x_max":1003,"o":"m 538 -12 q 299 43 400 -12 q 145 203 199 99 q 92 451 92 308 q 149 736 92 614 q 312 925 207 858 q 556 992 417 992 q 794 936 693 992 q 949 776 894 881 q 1003 528 1003 671 q 945 243 1003 365 q 783 54 888 121 q 538 -12 678 -12 m 538 107 q 708 157 636 107 q 818 302 779 207 q 857 528 857 397 q 779 783 857 694 q 557 872 701 872 q 323 760 408 872 q 238 450 238 647 q 315 196 238 285 q 538 107 393 107 m 572 -119 l 561 -260 l 414 -260 l 426 -119 l 572 -119 z "},"Ò":{"ha":1071,"x_min":92,"x_max":1003,"o":"m 538 -12 q 299 43 400 -12 q 145 203 199 99 q 92 451 92 308 q 149 736 92 614 q 312 925 207 858 q 556 992 417 992 q 794 936 693 992 q 949 776 894 881 q 1003 528 1003 671 q 945 243 1003 365 q 783 54 888 121 q 538 -12 678 -12 m 538 107 q 708 157 636 107 q 818 302 779 207 q 857 528 857 397 q 779 783 857 694 q 557 872 701 872 q 323 760 408 872 q 238 450 238 647 q 315 196 238 285 q 538 107 393 107 m 375 1275 l 510 1275 l 638 1063 l 546 1063 l 375 1275 z "},"Ỏ":{"ha":1071,"x_min":92,"x_max":1003,"o":"m 538 -12 q 299 43 400 -12 q 145 203 199 99 q 92 451 92 308 q 149 736 92 614 q 312 925 207 858 q 556 992 417 992 q 794 936 693 992 q 949 776 894 881 q 1003 528 1003 671 q 945 243 1003 365 q 783 54 888 121 q 538 -12 678 -12 m 538 107 q 708 157 636 107 q 818 302 779 207 q 857 528 857 397 q 779 783 857 694 q 557 872 701 872 q 323 760 408 872 q 238 450 238 647 q 315 196 238 285 q 538 107 393 107 m 633 1063 l 551 1063 l 553 1089 q 571 1127 554 1113 q 615 1154 588 1142 q 644 1171 635 1164 q 653 1188 653 1178 q 640 1203 653 1197 q 604 1210 628 1210 q 518 1193 563 1210 l 500 1258 q 618 1281 558 1281 q 718 1258 682 1281 q 754 1199 754 1235 q 735 1153 754 1169 q 683 1121 717 1136 q 647 1100 657 1108 q 635 1078 636 1092 l 633 1063 z "},"Ơ":{"ha":1071,"x_min":92,"x_max":1054,"o":"m 1051 1110 q 992 963 1044 1018 q 847 901 939 908 q 961 750 919 844 q 1003 528 1003 656 q 945 243 1003 365 q 783 54 888 121 q 538 -12 678 -12 q 299 43 400 -12 q 145 203 199 99 q 92 451 92 308 q 149 736 92 614 q 315 925 207 858 q 569 992 424 992 q 672 986 606 992 q 774 979 725 979 q 888 1013 854 979 q 929 1128 922 1047 l 931 1151 l 1054 1151 l 1051 1110 m 538 107 q 708 157 636 107 q 818 302 779 207 q 857 528 857 397 q 779 783 857 694 q 557 872 701 872 q 323 760 408 872 q 238 450 238 647 q 315 196 238 285 q 538 107 393 107 z "},"Ớ":{"ha":1071,"x_min":92,"x_max":1054,"o":"m 1051 1110 q 992 963 1044 1018 q 847 901 939 908 q 961 750 919 844 q 1003 528 1003 656 q 945 243 1003 365 q 783 54 888 121 q 538 -12 678 -12 q 299 43 400 -12 q 145 203 199 99 q 92 451 92 308 q 149 736 92 614 q 315 925 207 858 q 569 992 424 992 q 672 986 606 992 q 774 979 725 979 q 888 1013 854 979 q 929 1128 922 1047 l 931 1151 l 1054 1151 l 1051 1110 m 538 107 q 708 157 636 107 q 818 302 779 207 q 857 528 857 397 q 779 783 857 694 q 557 872 701 872 q 323 760 408 872 q 238 450 238 647 q 315 196 238 285 q 538 107 393 107 m 546 1063 l 699 1275 l 850 1275 l 638 1063 l 546 1063 z "},"Ợ":{"ha":1071,"x_min":92,"x_max":1054,"o":"m 1051 1110 q 992 963 1044 1018 q 847 901 939 908 q 961 750 919 844 q 1003 528 1003 656 q 945 243 1003 365 q 783 54 888 121 q 538 -12 678 -12 q 299 43 400 -12 q 145 203 199 99 q 92 451 92 308 q 149 736 92 614 q 315 925 207 858 q 569 992 424 992 q 672 986 606 992 q 774 979 725 979 q 888 1013 854 979 q 929 1128 922 1047 l 931 1151 l 1054 1151 l 1051 1110 m 538 107 q 708 157 636 107 q 818 302 779 207 q 857 528 857 397 q 779 783 857 694 q 557 872 701 872 q 323 760 408 872 q 238 450 238 647 q 315 196 238 285 q 538 107 393 107 m 574 -119 l 563 -260 l 415 -260 l 428 -119 l 574 -119 z "},"Ờ":{"ha":1071,"x_min":92,"x_max":1054,"o":"m 1051 1110 q 992 963 1044 1018 q 847 901 939 908 q 961 750 919 844 q 1003 528 1003 656 q 945 243 1003 365 q 783 54 888 121 q 538 -12 678 -12 q 299 43 400 -12 q 145 203 199 99 q 92 451 92 308 q 149 736 92 614 q 315 925 207 858 q 569 992 424 992 q 672 986 606 992 q 774 979 725 979 q 888 1013 854 979 q 929 1128 922 1047 l 931 1151 l 1054 1151 l 1051 1110 m 538 107 q 708 157 636 107 q 818 302 779 207 q 857 528 857 397 q 779 783 857 694 q 557 872 701 872 q 323 760 408 872 q 238 450 238 647 q 315 196 238 285 q 538 107 393 107 m 375 1275 l 510 1275 l 638 1063 l 546 1063 l 375 1275 z "},"Ở":{"ha":1071,"x_min":92,"x_max":1054,"o":"m 1051 1110 q 992 963 1044 1018 q 847 901 939 908 q 961 750 919 844 q 1003 528 1003 656 q 945 243 1003 365 q 783 54 888 121 q 538 -12 678 -12 q 299 43 400 -12 q 145 203 199 99 q 92 451 92 308 q 149 736 92 614 q 315 925 207 858 q 569 992 424 992 q 672 986 606 992 q 774 979 725 979 q 888 1013 854 979 q 929 1128 922 1047 l 931 1151 l 1054 1151 l 1051 1110 m 538 107 q 708 157 636 107 q 818 302 779 207 q 857 528 857 397 q 779 783 857 694 q 557 872 701 872 q 323 760 408 872 q 238 450 238 647 q 315 196 238 285 q 538 107 393 107 m 633 1063 l 551 1063 l 553 1089 q 571 1127 554 1113 q 615 1154 588 1142 q 644 1171 635 1164 q 653 1188 653 1178 q 640 1203 653 1197 q 604 1210 628 1210 q 518 1193 563 1210 l 500 1258 q 618 1281 558 1281 q 718 1258 682 1281 q 754 1199 754 1235 q 735 1153 754 1169 q 683 1121 717 1136 q 647 1100 657 1108 q 635 1078 636 1092 l 633 1063 z "},"Ỡ":{"ha":1071,"x_min":92,"x_max":1054,"o":"m 1051 1110 q 992 963 1044 1018 q 847 901 939 908 q 961 750 919 844 q 1003 528 1003 656 q 945 243 1003 365 q 783 54 888 121 q 538 -12 678 -12 q 299 43 400 -12 q 145 203 199 99 q 92 451 92 308 q 149 736 92 614 q 315 925 207 858 q 569 992 424 992 q 672 986 606 992 q 774 979 725 979 q 888 1013 854 979 q 929 1128 922 1047 l 931 1151 l 1054 1151 l 1051 1110 m 538 107 q 708 157 636 107 q 818 302 779 207 q 857 528 857 397 q 779 783 857 694 q 557 872 701 872 q 323 760 408 872 q 238 450 238 647 q 315 196 238 285 q 538 107 393 107 m 365 1086 q 409 1215 369 1172 q 510 1258 449 1258 q 560 1247 536 1258 q 619 1214 583 1236 q 665 1188 649 1196 q 697 1181 682 1181 q 745 1200 726 1181 q 765 1254 764 1219 l 836 1254 q 791 1125 831 1168 q 690 1082 751 1082 q 640 1093 664 1082 q 581 1126 617 1104 q 537 1151 554 1143 q 504 1160 519 1160 q 456 1140 475 1160 q 435 1086 438 1121 l 365 1086 z "},"Ő":{"ha":1071,"x_min":92,"x_max":1003,"o":"m 538 -12 q 299 43 400 -12 q 145 203 199 99 q 92 451 92 308 q 149 736 92 614 q 312 925 207 858 q 556 992 417 992 q 794 936 693 992 q 949 776 894 881 q 1003 528 1003 671 q 945 243 1003 365 q 783 54 888 121 q 538 -12 678 -12 m 538 107 q 708 157 636 107 q 818 302 779 207 q 857 528 857 397 q 779 783 857 694 q 557 872 701 872 q 323 760 408 872 q 238 450 238 647 q 315 196 238 285 q 538 107 393 107 m 468 1063 l 582 1275 l 697 1275 l 542 1063 l 468 1063 m 642 1063 l 756 1275 l 869 1275 l 715 1063 l 642 1063 z "},"Ȏ":{"ha":1071,"x_min":92,"x_max":1003,"o":"m 538 -12 q 299 43 400 -12 q 145 203 199 99 q 92 451 92 308 q 149 736 92 614 q 312 925 207 858 q 556 992 417 992 q 794 936 693 992 q 949 776 894 881 q 1003 528 1003 671 q 945 243 1003 365 q 783 54 888 121 q 538 -12 678 -12 m 538 107 q 708 157 636 107 q 818 302 779 207 q 857 528 857 397 q 779 783 857 694 q 557 872 701 872 q 323 760 408 872 q 238 450 238 647 q 315 196 238 285 q 538 107 393 107 m 603 1261 q 743 1223 682 1261 q 828 1113 804 1185 l 747 1079 q 685 1148 722 1128 q 599 1168 649 1168 q 510 1148 549 1168 q 439 1079 471 1128 l 364 1113 q 460 1224 397 1186 q 603 1261 524 1261 z "},"Ō":{"ha":1071,"x_min":92,"x_max":1003,"o":"m 538 -12 q 299 43 400 -12 q 145 203 199 99 q 92 451 92 308 q 149 736 92 614 q 312 925 207 858 q 556 992 417 992 q 794 936 693 992 q 949 776 894 881 q 1003 528 1003 671 q 945 243 1003 365 q 783 54 888 121 q 538 -12 678 -12 m 538 107 q 708 157 636 107 q 818 302 779 207 q 857 528 857 397 q 779 783 857 694 q 557 872 701 872 q 323 760 408 872 q 238 450 238 647 q 315 196 238 285 q 538 107 393 107 m 394 1218 l 815 1218 l 807 1121 l 386 1121 l 394 1218 z "},"Ṓ":{"ha":1071,"x_min":92,"x_max":1003,"o":"m 538 -12 q 299 43 400 -12 q 145 203 199 99 q 92 451 92 308 q 149 736 92 614 q 312 925 207 858 q 556 992 417 992 q 794 936 693 992 q 949 776 894 881 q 1003 528 1003 671 q 945 243 1003 365 q 783 54 888 121 q 538 -12 678 -12 m 538 107 q 708 157 636 107 q 818 302 779 207 q 857 528 857 397 q 779 783 857 694 q 557 872 701 872 q 323 760 408 872 q 238 450 238 647 q 315 196 238 285 q 538 107 393 107 m 394 1218 l 815 1218 l 807 1121 l 386 1121 l 394 1218 m 564 1285 l 717 1497 l 868 1497 l 656 1285 l 564 1285 z "},"Ṑ":{"ha":1071,"x_min":92,"x_max":1003,"o":"m 538 -12 q 299 43 400 -12 q 145 203 199 99 q 92 451 92 308 q 149 736 92 614 q 312 925 207 858 q 556 992 417 992 q 794 936 693 992 q 949 776 894 881 q 1003 528 1003 671 q 945 243 1003 365 q 783 54 888 121 q 538 -12 678 -12 m 538 107 q 708 157 636 107 q 818 302 779 207 q 857 528 857 397 q 779 783 857 694 q 557 872 701 872 q 323 760 408 872 q 238 450 238 647 q 315 196 238 285 q 538 107 393 107 m 394 1218 l 815 1218 l 807 1121 l 386 1121 l 394 1218 m 393 1497 l 528 1497 l 656 1285 l 564 1285 l 393 1497 z "},"Ǫ":{"ha":1071,"x_min":92,"x_max":1003,"o":"m 651 0 q 542 -107 542 -25 q 563 -165 542 -144 q 622 -186 585 -186 q 704 -164 660 -186 l 721 -239 q 601 -269 664 -269 q 483 -231 528 -269 q 439 -128 439 -192 q 490 -10 439 -57 q 278 55 368 -3 q 140 214 189 113 q 92 451 92 315 q 149 736 92 614 q 312 925 207 858 q 556 992 417 992 q 795 936 694 992 q 949 776 896 881 q 1003 528 1003 671 q 958 271 1003 382 q 833 92 913 160 q 651 0 754 24 m 538 107 q 708 157 636 107 q 818 302 779 207 q 857 528 857 397 q 779 783 857 694 q 557 872 701 872 q 323 760 408 872 q 238 450 238 647 q 315 196 238 285 q 538 107 393 107 z "},"Ø":{"ha":1071,"x_min":92,"x_max":1003,"o":"m 871 879 q 969 730 935 819 q 1003 528 1003 640 q 945 243 1003 365 q 783 54 888 121 q 538 -12 678 -12 q 313 36 407 -12 l 239 -74 l 147 -15 l 224 99 q 126 249 160 160 q 92 451 92 339 q 149 736 92 614 q 312 925 207 858 q 556 992 417 992 q 782 942 686 992 l 856 1053 l 947 994 l 871 879 m 238 450 q 300 215 238 300 l 713 836 q 557 872 647 872 q 323 760 408 872 q 238 450 238 647 m 538 107 q 708 157 636 107 q 818 302 779 207 q 857 528 857 397 q 794 764 857 675 l 382 142 q 538 107 449 107 z "},"Ǿ":{"ha":1071,"x_min":92,"x_max":1003,"o":"m 871 879 q 969 730 935 819 q 1003 528 1003 640 q 945 243 1003 365 q 783 54 888 121 q 538 -12 678 -12 q 313 36 407 -12 l 239 -74 l 147 -15 l 224 99 q 126 249 160 160 q 92 451 92 339 q 149 736 92 614 q 312 925 207 858 q 556 992 417 992 q 782 942 686 992 l 856 1053 l 947 994 l 871 879 m 238 450 q 300 215 238 300 l 713 836 q 557 872 647 872 q 323 760 408 872 q 238 450 238 647 m 538 107 q 708 157 636 107 q 818 302 779 207 q 857 528 857 397 q 794 764 857 675 l 382 142 q 538 107 449 107 m 546 1063 l 699 1275 l 850 1275 l 638 1063 l 546 1063 z "},"Õ":{"ha":1071,"x_min":92,"x_max":1003,"o":"m 538 -12 q 299 43 400 -12 q 145 203 199 99 q 92 451 92 308 q 149 736 92 614 q 312 925 207 858 q 556 992 417 992 q 794 936 693 992 q 949 776 894 881 q 1003 528 1003 671 q 945 243 1003 365 q 783 54 888 121 q 538 -12 678 -12 m 538 107 q 708 157 636 107 q 818 302 779 207 q 857 528 857 397 q 779 783 857 694 q 557 872 701 872 q 323 760 408 872 q 238 450 238 647 q 315 196 238 285 q 538 107 393 107 m 365 1086 q 409 1215 369 1172 q 510 1258 449 1258 q 560 1247 536 1258 q 619 1214 583 1236 q 665 1188 649 1196 q 697 1181 682 1181 q 745 1200 726 1181 q 765 1254 764 1219 l 836 1254 q 791 1125 831 1168 q 690 1082 751 1082 q 640 1093 664 1082 q 581 1126 617 1104 q 537 1151 554 1143 q 504 1160 519 1160 q 456 1140 475 1160 q 435 1086 438 1121 l 365 1086 z "},"Ṍ":{"ha":1071,"x_min":92,"x_max":1003,"o":"m 538 -12 q 299 43 400 -12 q 145 203 199 99 q 92 451 92 308 q 149 736 92 614 q 312 925 207 858 q 556 992 417 992 q 794 936 693 992 q 949 776 894 881 q 1003 528 1003 671 q 945 243 1003 365 q 783 54 888 121 q 538 -12 678 -12 m 538 107 q 708 157 636 107 q 818 302 779 207 q 857 528 857 397 q 779 783 857 694 q 557 872 701 872 q 323 760 408 872 q 238 450 238 647 q 315 196 238 285 q 538 107 393 107 m 365 1086 q 409 1215 369 1172 q 510 1258 449 1258 q 560 1247 536 1258 q 619 1214 583 1236 q 665 1188 649 1196 q 697 1181 682 1181 q 745 1200 726 1181 q 765 1254 764 1219 l 836 1254 q 791 1125 831 1168 q 690 1082 751 1082 q 640 1093 664 1082 q 581 1126 617 1104 q 537 1151 554 1143 q 504 1160 519 1160 q 456 1140 475 1160 q 435 1086 438 1121 l 365 1086 m 564 1285 l 717 1497 l 868 1497 l 656 1285 l 564 1285 z "},"Ṏ":{"ha":1071,"x_min":92,"x_max":1003,"o":"m 538 -12 q 299 43 400 -12 q 145 203 199 99 q 92 451 92 308 q 149 736 92 614 q 312 925 207 858 q 556 992 417 992 q 794 936 693 992 q 949 776 894 881 q 1003 528 1003 671 q 945 243 1003 365 q 783 54 888 121 q 538 -12 678 -12 m 538 107 q 708 157 636 107 q 818 302 779 207 q 857 528 857 397 q 779 783 857 694 q 557 872 701 872 q 323 760 408 872 q 238 450 238 647 q 315 196 238 285 q 538 107 393 107 m 365 1086 q 409 1215 369 1172 q 510 1258 449 1258 q 560 1247 536 1258 q 619 1214 583 1236 q 665 1188 649 1196 q 697 1181 682 1181 q 745 1200 726 1181 q 765 1254 764 1219 l 836 1254 q 791 1125 831 1168 q 690 1082 751 1082 q 640 1093 664 1082 q 581 1126 617 1104 q 537 1151 554 1143 q 504 1160 519 1160 q 456 1140 475 1160 q 435 1086 438 1121 l 365 1086 m 574 1461 l 563 1324 l 419 1324 l 429 1461 l 574 1461 m 818 1461 l 808 1324 l 664 1324 l 675 1461 l 818 1461 z "},"Ȭ":{"ha":1071,"x_min":92,"x_max":1003,"o":"m 538 -12 q 299 43 400 -12 q 145 203 199 99 q 92 451 92 308 q 149 736 92 614 q 312 925 207 858 q 556 992 417 992 q 794 936 693 992 q 949 776 894 881 q 1003 528 1003 671 q 945 243 1003 365 q 783 54 888 121 q 538 -12 678 -12 m 538 107 q 708 157 636 107 q 818 302 779 207 q 857 528 857 397 q 779 783 857 694 q 557 872 701 872 q 323 760 408 872 q 238 450 238 647 q 315 196 238 285 q 538 107 393 107 m 365 1086 q 409 1215 369 1172 q 510 1258 449 1258 q 560 1247 536 1258 q 619 1214 583 1236 q 665 1188 649 1196 q 697 1181 682 1181 q 745 1200 726 1181 q 765 1254 764 1219 l 836 1254 q 791 1125 831 1168 q 690 1082 751 1082 q 640 1093 664 1082 q 581 1126 617 1104 q 537 1151 554 1143 q 504 1160 519 1160 q 456 1140 475 1160 q 435 1086 438 1121 l 365 1086 m 413 1440 l 833 1440 l 825 1343 l 404 1343 l 413 1440 z "},"Œ":{"ha":1451,"x_min":92,"x_max":1439,"o":"m 935 864 l 910 556 l 1378 556 l 1368 439 l 901 439 l 875 115 l 1371 115 l 1361 0 l 556 0 q 213 119 335 0 q 92 451 92 239 q 151 735 92 617 q 326 916 211 853 q 601 979 440 979 l 1439 979 l 1431 864 l 935 864 m 794 864 l 611 864 q 331 758 425 864 q 238 450 238 651 q 322 201 238 286 q 569 115 406 115 l 735 115 l 794 864 z "},"P":{"ha":906,"x_min":88,"x_max":876,"o":"m 560 979 q 794 906 711 979 q 876 704 876 832 q 784 472 876 551 q 526 392 692 392 l 261 392 l 231 0 l 88 0 l 164 979 l 560 979 m 517 507 q 739 697 739 507 q 544 864 739 864 l 299 864 l 271 507 l 517 507 z "},"Þ":{"ha":906,"x_min":88,"x_max":861,"o":"m 561 769 q 783 703 704 769 q 861 514 861 638 q 776 302 861 378 q 533 226 692 226 l 247 226 l 229 0 l 88 0 l 164 979 l 306 979 l 289 769 l 561 769 m 524 340 q 724 507 724 340 q 680 619 724 583 q 547 654 636 654 l 281 654 l 256 340 l 524 340 z "},"Q":{"ha":1071,"x_min":92,"x_max":1003,"o":"m 714 21 q 797 -69 760 0 l 881 -225 l 756 -285 l 647 -83 q 511 -11 607 -12 q 290 49 385 -8 q 143 208 194 106 q 92 451 92 311 q 149 736 92 614 q 312 925 207 858 q 556 992 417 992 q 795 936 694 992 q 949 776 896 881 q 1003 528 1003 671 q 928 208 1003 342 q 714 21 853 75 m 538 107 q 772 219 686 107 q 857 528 857 331 q 779 783 857 694 q 557 872 701 872 q 323 760 408 872 q 238 450 238 647 q 315 196 238 285 q 538 107 393 107 z "},"R":{"ha":958,"x_min":88,"x_max":894,"o":"m 632 418 q 690 381 665 407 q 735 311 714 356 l 882 0 l 726 0 l 581 314 q 521 385 557 365 q 422 404 485 404 l 261 404 l 229 0 l 88 0 l 164 979 l 581 979 q 813 910 731 979 q 894 713 894 840 q 828 511 894 586 q 632 418 763 436 m 540 519 q 703 565 649 519 q 757 704 757 611 q 710 825 757 786 q 567 864 663 864 l 297 864 l 269 519 l 540 519 z "},"Ŕ":{"ha":958,"x_min":88,"x_max":894,"o":"m 632 418 q 690 381 665 407 q 735 311 714 356 l 882 0 l 726 0 l 581 314 q 521 385 557 365 q 422 404 485 404 l 261 404 l 229 0 l 88 0 l 164 979 l 581 979 q 813 910 731 979 q 894 713 894 840 q 828 511 894 586 q 632 418 763 436 m 540 519 q 703 565 649 519 q 757 704 757 611 q 710 825 757 786 q 567 864 663 864 l 297 864 l 269 519 l 540 519 m 489 1063 l 642 1275 l 793 1275 l 581 1063 l 489 1063 z "},"Ř":{"ha":958,"x_min":88,"x_max":894,"o":"m 632 418 q 690 381 665 407 q 735 311 714 356 l 882 0 l 726 0 l 581 314 q 521 385 557 365 q 422 404 485 404 l 261 404 l 229 0 l 88 0 l 164 979 l 581 979 q 813 910 731 979 q 894 713 894 840 q 828 511 894 586 q 632 418 763 436 m 540 519 q 703 565 649 519 q 757 704 757 611 q 710 825 757 786 q 567 864 663 864 l 297 864 l 269 519 l 540 519 m 765 1275 l 579 1063 l 490 1063 l 338 1275 l 454 1275 l 543 1139 l 647 1275 l 765 1275 z "},"Ŗ":{"ha":958,"x_min":88,"x_max":894,"o":"m 632 418 q 690 381 665 407 q 735 311 714 356 l 882 0 l 726 0 l 581 314 q 521 385 557 365 q 422 404 485 404 l 261 404 l 229 0 l 88 0 l 164 979 l 581 979 q 813 910 731 979 q 894 713 894 840 q 828 511 894 586 q 632 418 763 436 m 540 519 q 703 565 649 519 q 757 704 757 611 q 710 825 757 786 q 567 864 663 864 l 297 864 l 269 519 l 540 519 m 522 -97 l 515 -181 q 491 -283 511 -239 q 426 -367 471 -328 l 372 -325 q 429 -225 421 -278 l 356 -225 l 365 -97 l 522 -97 z "},"Ȑ":{"ha":958,"x_min":88,"x_max":894,"o":"m 632 418 q 690 381 665 407 q 735 311 714 356 l 882 0 l 726 0 l 581 314 q 521 385 557 365 q 422 404 485 404 l 261 404 l 229 0 l 88 0 l 164 979 l 581 979 q 813 910 731 979 q 894 713 894 840 q 828 511 894 586 q 632 418 763 436 m 540 519 q 703 565 649 519 q 757 704 757 611 q 710 825 757 786 q 567 864 663 864 l 297 864 l 269 519 l 540 519 m 293 1275 l 400 1275 l 485 1063 l 411 1063 l 293 1275 m 467 1275 l 574 1275 l 658 1063 l 585 1063 l 467 1275 z "},"Ṛ":{"ha":958,"x_min":88,"x_max":894,"o":"m 632 418 q 690 381 665 407 q 735 311 714 356 l 882 0 l 726 0 l 581 314 q 521 385 557 365 q 422 404 485 404 l 261 404 l 229 0 l 88 0 l 164 979 l 581 979 q 813 910 731 979 q 894 713 894 840 q 828 511 894 586 q 632 418 763 436 m 540 519 q 703 565 649 519 q 757 704 757 611 q 710 825 757 786 q 567 864 663 864 l 297 864 l 269 519 l 540 519 m 515 -119 l 504 -260 l 357 -260 l 369 -119 l 515 -119 z "},"Ȓ":{"ha":958,"x_min":88,"x_max":894,"o":"m 632 418 q 690 381 665 407 q 735 311 714 356 l 882 0 l 726 0 l 581 314 q 521 385 557 365 q 422 404 485 404 l 261 404 l 229 0 l 88 0 l 164 979 l 581 979 q 813 910 731 979 q 894 713 894 840 q 828 511 894 586 q 632 418 763 436 m 540 519 q 703 565 649 519 q 757 704 757 611 q 710 825 757 786 q 567 864 663 864 l 297 864 l 269 519 l 540 519 m 546 1261 q 686 1223 625 1261 q 771 1113 747 1185 l 690 1079 q 628 1148 665 1128 q 542 1168 592 1168 q 453 1148 492 1168 q 382 1079 414 1128 l 307 1113 q 403 1224 340 1186 q 546 1261 467 1261 z "},"Ṟ":{"ha":958,"x_min":88,"x_max":894,"o":"m 632 418 q 690 381 665 407 q 735 311 714 356 l 882 0 l 726 0 l 581 314 q 521 385 557 365 q 422 404 485 404 l 261 404 l 229 0 l 88 0 l 164 979 l 581 979 q 813 910 731 979 q 894 713 894 840 q 828 511 894 586 q 632 418 763 436 m 540 519 q 703 565 649 519 q 757 704 757 611 q 710 825 757 786 q 567 864 663 864 l 297 864 l 269 519 l 540 519 m 229 -143 l 651 -143 l 643 -236 l 222 -236 l 229 -143 z "},"S":{"ha":871,"x_min":44,"x_max":832,"o":"m 425 -11 q 44 110 197 -11 l 104 215 q 257 132 179 158 q 429 106 335 106 q 599 145 540 106 q 658 257 658 185 q 628 332 658 303 q 554 378 599 361 q 431 419 510 396 q 263 478 328 450 q 153 562 199 507 q 108 706 108 617 q 155 856 108 792 q 286 956 201 921 q 485 990 371 990 q 679 958 588 990 q 832 869 771 926 l 774 764 q 482 874 643 874 q 313 832 372 874 q 253 715 253 790 q 285 633 253 665 q 364 581 317 600 q 493 539 411 563 q 654 483 593 510 q 759 404 715 456 q 803 269 803 353 q 702 64 803 139 q 425 -11 601 -11 z "},"Ś":{"ha":871,"x_min":44,"x_max":832,"o":"m 425 -11 q 44 110 197 -11 l 104 215 q 257 132 179 158 q 429 106 335 106 q 599 145 540 106 q 658 257 658 185 q 628 332 658 303 q 554 378 599 361 q 431 419 510 396 q 263 478 328 450 q 153 562 199 507 q 108 706 108 617 q 155 856 108 792 q 286 956 201 921 q 485 990 371 990 q 679 958 588 990 q 832 869 771 926 l 774 764 q 482 874 643 874 q 313 832 372 874 q 253 715 253 790 q 285 633 253 665 q 364 581 317 600 q 493 539 411 563 q 654 483 593 510 q 759 404 715 456 q 803 269 803 353 q 702 64 803 139 q 425 -11 601 -11 m 449 1063 l 601 1275 l 753 1275 l 540 1063 l 449 1063 z "},"Ṥ":{"ha":871,"x_min":44,"x_max":832,"o":"m 425 -11 q 44 110 197 -11 l 104 215 q 257 132 179 158 q 429 106 335 106 q 599 145 540 106 q 658 257 658 185 q 628 332 658 303 q 554 378 599 361 q 431 419 510 396 q 263 478 328 450 q 153 562 199 507 q 108 706 108 617 q 155 856 108 792 q 286 956 201 921 q 485 990 371 990 q 679 958 588 990 q 832 869 771 926 l 774 764 q 482 874 643 874 q 313 832 372 874 q 253 715 253 790 q 285 633 253 665 q 364 581 317 600 q 493 539 411 563 q 654 483 593 510 q 759 404 715 456 q 803 269 803 353 q 702 64 803 139 q 425 -11 601 -11 m 465 1063 l 618 1275 l 769 1275 l 557 1063 l 465 1063 m 429 1274 l 417 1126 l 256 1126 l 267 1274 l 429 1274 z "},"Š":{"ha":871,"x_min":44,"x_max":832,"o":"m 425 -11 q 44 110 197 -11 l 104 215 q 257 132 179 158 q 429 106 335 106 q 599 145 540 106 q 658 257 658 185 q 628 332 658 303 q 554 378 599 361 q 431 419 510 396 q 263 478 328 450 q 153 562 199 507 q 108 706 108 617 q 155 856 108 792 q 286 956 201 921 q 485 990 371 990 q 679 958 588 990 q 832 869 771 926 l 774 764 q 482 874 643 874 q 313 832 372 874 q 253 715 253 790 q 285 633 253 665 q 364 581 317 600 q 493 539 411 563 q 654 483 593 510 q 759 404 715 456 q 803 269 803 353 q 702 64 803 139 q 425 -11 601 -11 m 725 1275 l 539 1063 l 450 1063 l 297 1275 l 414 1275 l 503 1139 l 607 1275 l 725 1275 z "},"Ṧ":{"ha":871,"x_min":44,"x_max":832,"o":"m 425 -11 q 44 110 197 -11 l 104 215 q 257 132 179 158 q 429 106 335 106 q 599 145 540 106 q 658 257 658 185 q 628 332 658 303 q 554 378 599 361 q 431 419 510 396 q 263 478 328 450 q 153 562 199 507 q 108 706 108 617 q 155 856 108 792 q 286 956 201 921 q 485 990 371 990 q 679 958 588 990 q 832 869 771 926 l 774 764 q 482 874 643 874 q 313 832 372 874 q 253 715 253 790 q 285 633 253 665 q 364 581 317 600 q 493 539 411 563 q 654 483 593 510 q 759 404 715 456 q 803 269 803 353 q 702 64 803 139 q 425 -11 601 -11 m 725 1275 l 539 1063 l 450 1063 l 297 1275 l 414 1275 l 503 1139 l 607 1275 l 725 1275 m 608 1465 l 596 1318 l 435 1318 l 446 1465 l 608 1465 z "},"Ş":{"ha":871,"x_min":44,"x_max":832,"o":"m 253 715 q 285 633 253 665 q 364 581 317 600 q 493 539 411 563 q 654 483 593 510 q 759 404 715 456 q 803 269 803 353 q 706 67 803 142 q 440 -11 610 -8 l 431 -58 q 453 -57 439 -57 q 531 -81 501 -57 q 560 -150 560 -106 q 515 -236 560 -203 q 390 -269 471 -269 q 323 -262 358 -269 q 261 -243 288 -256 l 282 -178 q 389 -197 339 -197 q 444 -186 424 -197 q 464 -153 464 -175 q 417 -118 464 -118 q 358 -129 394 -118 l 333 -106 l 353 -8 q 44 110 171 8 l 104 215 q 257 132 179 158 q 429 106 335 106 q 599 145 540 106 q 658 257 658 185 q 628 332 658 303 q 554 378 599 361 q 431 419 510 396 q 263 478 328 450 q 153 562 199 507 q 108 706 108 617 q 155 856 108 792 q 286 956 201 921 q 485 990 371 990 q 679 958 588 990 q 832 869 771 926 l 774 764 q 482 874 643 874 q 313 832 372 874 q 253 715 253 790 z "},"Ŝ":{"ha":871,"x_min":44,"x_max":832,"o":"m 425 -11 q 44 110 197 -11 l 104 215 q 257 132 179 158 q 429 106 335 106 q 599 145 540 106 q 658 257 658 185 q 628 332 658 303 q 554 378 599 361 q 431 419 510 396 q 263 478 328 450 q 153 562 199 507 q 108 706 108 617 q 155 856 108 792 q 286 956 201 921 q 485 990 371 990 q 679 958 588 990 q 832 869 771 926 l 774 764 q 482 874 643 874 q 313 832 372 874 q 253 715 253 790 q 285 633 253 665 q 364 581 317 600 q 493 539 411 563 q 654 483 593 510 q 759 404 715 456 q 803 269 803 353 q 702 64 803 139 q 425 -11 601 -11 m 281 1063 l 467 1275 l 556 1275 l 708 1063 l 592 1063 l 510 1199 l 399 1063 l 281 1063 z "},"Ș":{"ha":871,"x_min":44,"x_max":832,"o":"m 425 -11 q 44 110 197 -11 l 104 215 q 257 132 179 158 q 429 106 335 106 q 599 145 540 106 q 658 257 658 185 q 628 332 658 303 q 554 378 599 361 q 431 419 510 396 q 263 478 328 450 q 153 562 199 507 q 108 706 108 617 q 155 856 108 792 q 286 956 201 921 q 485 990 371 990 q 679 958 588 990 q 832 869 771 926 l 774 764 q 482 874 643 874 q 313 832 372 874 q 253 715 253 790 q 285 633 253 665 q 364 581 317 600 q 493 539 411 563 q 654 483 593 510 q 759 404 715 456 q 803 269 803 353 q 702 64 803 139 q 425 -11 601 -11 m 482 -97 l 475 -181 q 451 -283 471 -239 q 386 -367 431 -328 l 332 -325 q 389 -225 381 -278 l 315 -225 l 325 -97 l 482 -97 z "},"Ṡ":{"ha":871,"x_min":44,"x_max":832,"o":"m 425 -11 q 44 110 197 -11 l 104 215 q 257 132 179 158 q 429 106 335 106 q 599 145 540 106 q 658 257 658 185 q 628 332 658 303 q 554 378 599 361 q 431 419 510 396 q 263 478 328 450 q 153 562 199 507 q 108 706 108 617 q 155 856 108 792 q 286 956 201 921 q 485 990 371 990 q 679 958 588 990 q 832 869 771 926 l 774 764 q 482 874 643 874 q 313 832 372 874 q 253 715 253 790 q 285 633 253 665 q 364 581 317 600 q 493 539 411 563 q 654 483 593 510 q 759 404 715 456 q 803 269 803 353 q 702 64 803 139 q 425 -11 601 -11 m 590 1243 l 578 1096 l 417 1096 l 428 1243 l 590 1243 z "},"Ṣ":{"ha":871,"x_min":44,"x_max":832,"o":"m 425 -11 q 44 110 197 -11 l 104 215 q 257 132 179 158 q 429 106 335 106 q 599 145 540 106 q 658 257 658 185 q 628 332 658 303 q 554 378 599 361 q 431 419 510 396 q 263 478 328 450 q 153 562 199 507 q 108 706 108 617 q 155 856 108 792 q 286 956 201 921 q 485 990 371 990 q 679 958 588 990 q 832 869 771 926 l 774 764 q 482 874 643 874 q 313 832 372 874 q 253 715 253 790 q 285 633 253 665 q 364 581 317 600 q 493 539 411 563 q 654 483 593 510 q 759 404 715 456 q 803 269 803 353 q 702 64 803 139 q 425 -11 601 -11 m 475 -119 l 464 -260 l 317 -260 l 329 -119 l 475 -119 z "},"Ṩ":{"ha":871,"x_min":44,"x_max":832,"o":"m 425 -11 q 44 110 197 -11 l 104 215 q 257 132 179 158 q 429 106 335 106 q 599 145 540 106 q 658 257 658 185 q 628 332 658 303 q 554 378 599 361 q 431 419 510 396 q 263 478 328 450 q 153 562 199 507 q 108 706 108 617 q 155 856 108 792 q 286 956 201 921 q 485 990 371 990 q 679 958 588 990 q 832 869 771 926 l 774 764 q 482 874 643 874 q 313 832 372 874 q 253 715 253 790 q 285 633 253 665 q 364 581 317 600 q 493 539 411 563 q 654 483 593 510 q 759 404 715 456 q 803 269 803 353 q 702 64 803 139 q 425 -11 601 -11 m 475 -119 l 464 -260 l 317 -260 l 329 -119 l 475 -119 m 590 1243 l 578 1096 l 417 1096 l 428 1243 l 590 1243 z "},"ẞ":{"ha":965,"x_min":86,"x_max":888,"o":"m 701 510 q 839 432 790 490 q 888 283 888 374 q 847 132 888 199 q 733 28 807 65 q 565 -10 660 -10 q 311 76 422 -10 l 363 183 q 560 104 464 104 q 699 152 650 104 q 749 286 749 200 q 698 401 749 364 q 542 439 647 439 l 376 439 l 386 554 l 521 554 q 665 599 614 554 q 717 726 717 644 q 666 832 717 793 q 531 871 615 871 q 349 813 410 871 q 278 633 288 754 l 228 0 l 86 0 l 138 638 q 253 899 151 810 q 536 989 354 989 q 768 921 682 989 q 854 739 854 853 q 815 597 854 657 q 701 510 775 536 z "},"Ə":{"ha":1040,"x_min":90,"x_max":972,"o":"m 536 990 q 767 935 668 990 q 919 774 865 879 q 972 528 972 669 q 915 243 972 365 q 753 55 858 121 q 506 -11 647 -11 q 199 108 307 -11 q 90 431 90 226 q 93 496 90 451 l 99 554 l 828 554 q 741 790 821 708 q 518 872 661 872 q 360 845 432 871 q 218 764 289 819 l 176 869 q 335 959 243 928 q 536 990 428 990 m 507 106 q 721 194 639 107 q 822 438 803 282 l 235 438 q 297 193 226 281 q 507 106 368 106 z "},"T":{"ha":840,"x_min":58,"x_max":874,"o":"m 389 860 l 58 860 l 68 979 l 874 979 l 864 860 l 533 860 l 465 0 l 321 0 l 389 860 z "},"Ŧ":{"ha":840,"x_min":58,"x_max":874,"o":"m 533 860 l 510 553 l 704 553 l 694 440 l 500 440 l 465 0 l 321 0 l 356 440 l 161 440 l 169 553 l 365 553 l 389 860 l 58 860 l 68 979 l 874 979 l 864 860 l 533 860 z "},"Ť":{"ha":840,"x_min":58,"x_max":874,"o":"m 389 860 l 58 860 l 68 979 l 874 979 l 864 860 l 533 860 l 465 0 l 321 0 l 389 860 m 707 1275 l 521 1063 l 432 1063 l 279 1275 l 396 1275 l 485 1139 l 589 1275 l 707 1275 z "},"Ţ":{"ha":840,"x_min":58,"x_max":874,"o":"m 425 0 l 413 -58 q 435 -57 421 -57 q 513 -81 483 -57 q 542 -150 542 -106 q 497 -236 542 -203 q 372 -269 453 -269 q 305 -262 340 -269 q 243 -243 269 -256 l 264 -178 q 371 -197 321 -197 q 426 -186 406 -197 q 446 -153 446 -175 q 399 -118 446 -118 q 340 -129 376 -118 l 315 -106 l 336 0 l 321 0 l 389 860 l 58 860 l 68 979 l 874 979 l 864 860 l 533 860 l 465 0 l 425 0 z "},"Ț":{"ha":840,"x_min":58,"x_max":874,"o":"m 389 860 l 58 860 l 68 979 l 874 979 l 864 860 l 533 860 l 465 0 l 321 0 l 389 860 m 464 -97 l 457 -181 q 433 -283 453 -239 q 368 -367 413 -328 l 314 -325 q 371 -225 363 -278 l 297 -225 l 307 -97 l 464 -97 z "},"Ṭ":{"ha":840,"x_min":58,"x_max":874,"o":"m 389 860 l 58 860 l 68 979 l 874 979 l 864 860 l 533 860 l 465 0 l 321 0 l 389 860 m 457 -119 l 446 -260 l 299 -260 l 311 -119 l 457 -119 z "},"Ṯ":{"ha":840,"x_min":58,"x_max":874,"o":"m 389 860 l 58 860 l 68 979 l 874 979 l 864 860 l 533 860 l 465 0 l 321 0 l 389 860 m 171 -143 l 593 -143 l 585 -236 l 164 -236 l 171 -143 z "},"U":{"ha":1011,"x_min":108,"x_max":954,"o":"m 490 -11 q 205 79 301 -11 q 108 342 108 169 q 111 396 108 360 l 157 979 l 299 979 l 253 394 q 251 350 251 379 q 496 106 251 106 q 687 170 619 106 q 765 374 754 235 l 813 979 l 954 979 l 907 386 q 787 88 892 188 q 490 -11 682 -11 z "},"Ú":{"ha":1011,"x_min":108,"x_max":954,"o":"m 490 -11 q 205 79 301 -11 q 108 342 108 169 q 111 396 108 360 l 157 979 l 299 979 l 253 394 q 251 350 251 379 q 496 106 251 106 q 687 170 619 106 q 765 374 754 235 l 813 979 l 954 979 l 907 386 q 787 88 892 188 q 490 -11 682 -11 m 517 1063 l 669 1275 l 821 1275 l 608 1063 l 517 1063 z "},"Ŭ":{"ha":1011,"x_min":108,"x_max":954,"o":"m 490 -11 q 205 79 301 -11 q 108 342 108 169 q 111 396 108 360 l 157 979 l 299 979 l 253 394 q 251 350 251 379 q 496 106 251 106 q 687 170 619 106 q 765 374 754 235 l 813 979 l 954 979 l 907 386 q 787 88 892 188 q 490 -11 682 -11 m 568 1078 q 428 1116 489 1078 q 343 1226 367 1154 l 424 1260 q 485 1191 449 1211 q 572 1171 522 1171 q 661 1191 622 1171 q 732 1260 700 1211 l 807 1226 q 710 1115 774 1153 q 568 1078 647 1078 z "},"Û":{"ha":1011,"x_min":108,"x_max":954,"o":"m 490 -11 q 205 79 301 -11 q 108 342 108 169 q 111 396 108 360 l 157 979 l 299 979 l 253 394 q 251 350 251 379 q 496 106 251 106 q 687 170 619 106 q 765 374 754 235 l 813 979 l 954 979 l 907 386 q 787 88 892 188 q 490 -11 682 -11 m 349 1063 l 535 1275 l 624 1275 l 776 1063 l 660 1063 l 578 1199 l 467 1063 l 349 1063 z "},"Ȕ":{"ha":1011,"x_min":108,"x_max":954,"o":"m 490 -11 q 205 79 301 -11 q 108 342 108 169 q 111 396 108 360 l 157 979 l 299 979 l 253 394 q 251 350 251 379 q 496 106 251 106 q 687 170 619 106 q 765 374 754 235 l 813 979 l 954 979 l 907 386 q 787 88 892 188 q 490 -11 682 -11 m 321 1275 l 428 1275 l 513 1063 l 439 1063 l 321 1275 m 494 1275 l 601 1275 l 686 1063 l 613 1063 l 494 1275 z "},"Ü":{"ha":1011,"x_min":108,"x_max":954,"o":"m 490 -11 q 205 79 301 -11 q 108 342 108 169 q 111 396 108 360 l 157 979 l 299 979 l 253 394 q 251 350 251 379 q 496 106 251 106 q 687 170 619 106 q 765 374 754 235 l 813 979 l 954 979 l 907 386 q 787 88 892 188 q 490 -11 682 -11 m 526 1239 l 515 1101 l 372 1101 l 382 1239 l 526 1239 m 771 1239 l 761 1101 l 617 1101 l 628 1239 l 771 1239 z "},"Ụ":{"ha":1011,"x_min":108,"x_max":954,"o":"m 490 -11 q 205 79 301 -11 q 108 342 108 169 q 111 396 108 360 l 157 979 l 299 979 l 253 394 q 251 350 251 379 q 496 106 251 106 q 687 170 619 106 q 765 374 754 235 l 813 979 l 954 979 l 907 386 q 787 88 892 188 q 490 -11 682 -11 m 543 -119 l 532 -260 l 385 -260 l 397 -119 l 543 -119 z "},"Ù":{"ha":1011,"x_min":108,"x_max":954,"o":"m 490 -11 q 205 79 301 -11 q 108 342 108 169 q 111 396 108 360 l 157 979 l 299 979 l 253 394 q 251 350 251 379 q 496 106 251 106 q 687 170 619 106 q 765 374 754 235 l 813 979 l 954 979 l 907 386 q 787 88 892 188 q 490 -11 682 -11 m 346 1275 l 481 1275 l 608 1063 l 517 1063 l 346 1275 z "},"Ủ":{"ha":1011,"x_min":108,"x_max":954,"o":"m 490 -11 q 205 79 301 -11 q 108 342 108 169 q 111 396 108 360 l 157 979 l 299 979 l 253 394 q 251 350 251 379 q 496 106 251 106 q 687 170 619 106 q 765 374 754 235 l 813 979 l 954 979 l 907 386 q 787 88 892 188 q 490 -11 682 -11 m 604 1063 l 522 1063 l 524 1089 q 542 1127 525 1113 q 586 1154 558 1142 q 615 1171 606 1164 q 624 1188 624 1178 q 611 1203 624 1197 q 575 1210 599 1210 q 489 1193 533 1210 l 471 1258 q 589 1281 529 1281 q 689 1258 653 1281 q 725 1199 725 1235 q 706 1153 725 1169 q 654 1121 688 1136 q 617 1100 628 1108 q 606 1078 607 1092 l 604 1063 z "},"Ư":{"ha":1011,"x_min":108,"x_max":1129,"o":"m 1129 1151 l 1126 1110 q 1073 972 1119 1026 q 949 904 1026 918 l 907 386 q 787 88 892 188 q 490 -11 682 -11 q 205 79 301 -11 q 108 342 108 169 q 111 396 108 360 l 157 979 l 299 979 l 253 394 q 251 350 251 379 q 496 106 251 106 q 687 170 619 106 q 765 374 754 235 l 813 979 l 854 979 q 963 1014 929 981 q 1003 1128 997 1047 l 1006 1151 l 1129 1151 z "},"Ứ":{"ha":1011,"x_min":108,"x_max":1129,"o":"m 1129 1151 l 1126 1110 q 1073 972 1119 1026 q 949 904 1026 918 l 907 386 q 787 88 892 188 q 490 -11 682 -11 q 205 79 301 -11 q 108 342 108 169 q 111 396 108 360 l 157 979 l 299 979 l 253 394 q 251 350 251 379 q 496 106 251 106 q 687 170 619 106 q 765 374 754 235 l 813 979 l 854 979 q 963 1014 929 981 q 1003 1128 997 1047 l 1006 1151 l 1129 1151 m 517 1063 l 669 1275 l 821 1275 l 608 1063 l 517 1063 z "},"Ự":{"ha":1011,"x_min":108,"x_max":1129,"o":"m 1129 1151 l 1126 1110 q 1073 972 1119 1026 q 949 904 1026 918 l 907 386 q 787 88 892 188 q 490 -11 682 -11 q 205 79 301 -11 q 108 342 108 169 q 111 396 108 360 l 157 979 l 299 979 l 253 394 q 251 350 251 379 q 496 106 251 106 q 687 170 619 106 q 765 374 754 235 l 813 979 l 854 979 q 963 1014 929 981 q 1003 1128 997 1047 l 1006 1151 l 1129 1151 m 543 -119 l 532 -260 l 385 -260 l 397 -119 l 543 -119 z "},"Ừ":{"ha":1011,"x_min":108,"x_max":1129,"o":"m 1129 1151 l 1126 1110 q 1073 972 1119 1026 q 949 904 1026 918 l 907 386 q 787 88 892 188 q 490 -11 682 -11 q 205 79 301 -11 q 108 342 108 169 q 111 396 108 360 l 157 979 l 299 979 l 253 394 q 251 350 251 379 q 496 106 251 106 q 687 170 619 106 q 765 374 754 235 l 813 979 l 854 979 q 963 1014 929 981 q 1003 1128 997 1047 l 1006 1151 l 1129 1151 m 346 1275 l 481 1275 l 608 1063 l 517 1063 l 346 1275 z "},"Ử":{"ha":1011,"x_min":108,"x_max":1129,"o":"m 1129 1151 l 1126 1110 q 1073 972 1119 1026 q 949 904 1026 918 l 907 386 q 787 88 892 188 q 490 -11 682 -11 q 205 79 301 -11 q 108 342 108 169 q 111 396 108 360 l 157 979 l 299 979 l 253 394 q 251 350 251 379 q 496 106 251 106 q 687 170 619 106 q 765 374 754 235 l 813 979 l 854 979 q 963 1014 929 981 q 1003 1128 997 1047 l 1006 1151 l 1129 1151 m 604 1063 l 522 1063 l 524 1089 q 542 1127 525 1113 q 586 1154 558 1142 q 615 1171 606 1164 q 624 1188 624 1178 q 611 1203 624 1197 q 575 1210 599 1210 q 489 1193 533 1210 l 471 1258 q 589 1281 529 1281 q 689 1258 653 1281 q 725 1199 725 1235 q 706 1153 725 1169 q 654 1121 688 1136 q 617 1100 628 1108 q 606 1078 607 1092 l 604 1063 z "},"Ữ":{"ha":1011,"x_min":108,"x_max":1129,"o":"m 1129 1151 l 1126 1110 q 1073 972 1119 1026 q 949 904 1026 918 l 907 386 q 787 88 892 188 q 490 -11 682 -11 q 205 79 301 -11 q 108 342 108 169 q 111 396 108 360 l 157 979 l 299 979 l 253 394 q 251 350 251 379 q 496 106 251 106 q 687 170 619 106 q 765 374 754 235 l 813 979 l 854 979 q 963 1014 929 981 q 1003 1128 997 1047 l 1006 1151 l 1129 1151 m 336 1086 q 380 1215 340 1172 q 481 1258 419 1258 q 531 1247 507 1258 q 590 1214 554 1236 q 636 1188 619 1196 q 668 1181 653 1181 q 716 1200 697 1181 q 736 1254 735 1219 l 807 1254 q 762 1125 801 1168 q 661 1082 722 1082 q 611 1093 635 1082 q 551 1126 588 1104 q 508 1151 525 1143 q 475 1160 490 1160 q 427 1140 446 1160 q 406 1086 408 1121 l 336 1086 z "},"Ű":{"ha":1011,"x_min":108,"x_max":954,"o":"m 490 -11 q 205 79 301 -11 q 108 342 108 169 q 111 396 108 360 l 157 979 l 299 979 l 253 394 q 251 350 251 379 q 496 106 251 106 q 687 170 619 106 q 765 374 754 235 l 813 979 l 954 979 l 907 386 q 787 88 892 188 q 490 -11 682 -11 m 439 1063 l 553 1275 l 668 1275 l 513 1063 l 439 1063 m 613 1063 l 726 1275 l 840 1275 l 686 1063 l 613 1063 z "},"Ȗ":{"ha":1011,"x_min":108,"x_max":954,"o":"m 490 -11 q 205 79 301 -11 q 108 342 108 169 q 111 396 108 360 l 157 979 l 299 979 l 253 394 q 251 350 251 379 q 496 106 251 106 q 687 170 619 106 q 765 374 754 235 l 813 979 l 954 979 l 907 386 q 787 88 892 188 q 490 -11 682 -11 m 574 1261 q 714 1223 653 1261 q 799 1113 775 1185 l 718 1079 q 656 1148 693 1128 q 569 1168 619 1168 q 481 1148 519 1168 q 410 1079 442 1128 l 335 1113 q 431 1224 368 1186 q 574 1261 494 1261 z "},"Ū":{"ha":1011,"x_min":108,"x_max":954,"o":"m 490 -11 q 205 79 301 -11 q 108 342 108 169 q 111 396 108 360 l 157 979 l 299 979 l 253 394 q 251 350 251 379 q 496 106 251 106 q 687 170 619 106 q 765 374 754 235 l 813 979 l 954 979 l 907 386 q 787 88 892 188 q 490 -11 682 -11 m 365 1218 l 786 1218 l 778 1121 l 357 1121 l 365 1218 z "},"Ṻ":{"ha":1011,"x_min":108,"x_max":954,"o":"m 490 -11 q 205 79 301 -11 q 108 342 108 169 q 111 396 108 360 l 157 979 l 299 979 l 253 394 q 251 350 251 379 q 496 106 251 106 q 687 170 619 106 q 765 374 754 235 l 813 979 l 954 979 l 907 386 q 787 88 892 188 q 490 -11 682 -11 m 365 1218 l 786 1218 l 778 1121 l 357 1121 l 365 1218 m 544 1461 l 533 1324 l 390 1324 l 400 1461 l 544 1461 m 789 1461 l 779 1324 l 635 1324 l 646 1461 l 789 1461 z "},"Ų":{"ha":1011,"x_min":108,"x_max":954,"o":"m 954 979 l 907 386 q 632 4 883 72 q 549 -39 576 -12 q 521 -107 521 -65 q 542 -165 521 -144 q 601 -186 564 -186 q 683 -164 639 -186 l 700 -239 q 579 -269 643 -269 q 462 -231 506 -269 q 418 -129 418 -192 q 474 -11 418 -56 q 201 82 294 -8 q 108 342 108 172 q 111 396 108 360 l 157 979 l 299 979 l 253 394 q 251 350 251 379 q 496 106 251 106 q 687 170 619 106 q 765 374 754 235 l 813 979 l 954 979 z "},"Ů":{"ha":1011,"x_min":108,"x_max":954,"o":"m 490 -11 q 205 79 301 -11 q 108 342 108 169 q 111 396 108 360 l 157 979 l 299 979 l 253 394 q 251 350 251 379 q 496 106 251 106 q 687 170 619 106 q 765 374 754 235 l 813 979 l 954 979 l 907 386 q 787 88 892 188 q 490 -11 682 -11 m 572 1056 q 471 1097 513 1056 q 429 1197 429 1138 q 471 1297 429 1257 q 572 1338 513 1338 q 675 1297 633 1338 q 717 1197 717 1257 q 675 1097 717 1138 q 572 1056 633 1056 m 572 1129 q 619 1149 601 1129 q 638 1197 638 1168 q 619 1245 638 1226 q 572 1264 601 1264 q 526 1244 544 1264 q 508 1197 508 1225 q 526 1149 508 1168 q 572 1129 544 1129 z "},"Ũ":{"ha":1011,"x_min":108,"x_max":954,"o":"m 490 -11 q 205 79 301 -11 q 108 342 108 169 q 111 396 108 360 l 157 979 l 299 979 l 253 394 q 251 350 251 379 q 496 106 251 106 q 687 170 619 106 q 765 374 754 235 l 813 979 l 954 979 l 907 386 q 787 88 892 188 q 490 -11 682 -11 m 336 1086 q 380 1215 340 1172 q 481 1258 419 1258 q 531 1247 507 1258 q 590 1214 554 1236 q 636 1188 619 1196 q 668 1181 653 1181 q 716 1200 697 1181 q 736 1254 735 1219 l 807 1254 q 762 1125 801 1168 q 661 1082 722 1082 q 611 1093 635 1082 q 551 1126 588 1104 q 508 1151 525 1143 q 475 1160 490 1160 q 427 1140 446 1160 q 406 1086 408 1121 l 336 1086 z "},"Ṹ":{"ha":1011,"x_min":108,"x_max":954,"o":"m 490 -11 q 205 79 301 -11 q 108 342 108 169 q 111 396 108 360 l 157 979 l 299 979 l 253 394 q 251 350 251 379 q 496 106 251 106 q 687 170 619 106 q 765 374 754 235 l 813 979 l 954 979 l 907 386 q 787 88 892 188 q 490 -11 682 -11 m 336 1086 q 380 1215 340 1172 q 481 1258 419 1258 q 531 1247 507 1258 q 590 1214 554 1236 q 636 1188 619 1196 q 668 1181 653 1181 q 716 1200 697 1181 q 736 1254 735 1219 l 807 1254 q 762 1125 801 1168 q 661 1082 722 1082 q 611 1093 635 1082 q 551 1126 588 1104 q 508 1151 525 1143 q 475 1160 490 1160 q 427 1140 446 1160 q 406 1086 408 1121 l 336 1086 m 535 1285 l 688 1497 l 839 1497 l 626 1285 l 535 1285 z "},"V":{"ha":974,"x_min":46,"x_max":1029,"o":"m 1029 979 l 521 0 l 400 0 l 46 979 l 194 979 l 475 181 l 882 979 l 1029 979 z "},"W":{"ha":1535,"x_min":90,"x_max":1544,"o":"m 1544 979 l 1124 0 l 1006 0 l 800 756 l 475 0 l 357 0 l 90 979 l 235 979 l 436 203 l 768 979 l 872 978 l 1076 199 l 1406 979 l 1544 979 z "},"Ẃ":{"ha":1535,"x_min":90,"x_max":1544,"o":"m 1544 979 l 1124 0 l 1006 0 l 800 756 l 475 0 l 357 0 l 90 979 l 235 979 l 436 203 l 768 979 l 872 978 l 1076 199 l 1406 979 l 1544 979 m 778 1063 l 931 1275 l 1082 1275 l 869 1063 l 778 1063 z "},"Ŵ":{"ha":1535,"x_min":90,"x_max":1544,"o":"m 1544 979 l 1124 0 l 1006 0 l 800 756 l 475 0 l 357 0 l 90 979 l 235 979 l 436 203 l 768 979 l 872 978 l 1076 199 l 1406 979 l 1544 979 m 610 1063 l 796 1275 l 885 1275 l 1038 1063 l 921 1063 l 839 1199 l 728 1063 l 610 1063 z "},"Ẅ":{"ha":1535,"x_min":90,"x_max":1544,"o":"m 1544 979 l 1124 0 l 1006 0 l 800 756 l 475 0 l 357 0 l 90 979 l 235 979 l 436 203 l 768 979 l 872 978 l 1076 199 l 1406 979 l 1544 979 m 788 1239 l 776 1101 l 633 1101 l 643 1239 l 788 1239 m 1032 1239 l 1022 1101 l 878 1101 l 889 1239 l 1032 1239 z "},"Ẁ":{"ha":1535,"x_min":90,"x_max":1544,"o":"m 1544 979 l 1124 0 l 1006 0 l 800 756 l 475 0 l 357 0 l 90 979 l 235 979 l 436 203 l 768 979 l 872 978 l 1076 199 l 1406 979 l 1544 979 m 607 1275 l 742 1275 l 869 1063 l 778 1063 l 607 1275 z "},"X":{"ha":908,"x_min":-26,"x_max":943,"o":"m 547 497 l 882 0 l 715 0 l 460 390 l 144 0 l -26 0 l 386 501 l 65 979 l 232 979 l 475 608 l 772 979 l 943 979 l 547 497 z "},"Y":{"ha":849,"x_min":13,"x_max":936,"o":"m 506 457 l 469 0 l 326 0 l 363 456 l 13 979 l 172 979 l 440 576 l 771 979 l 936 979 l 506 457 z "},"Ý":{"ha":849,"x_min":13,"x_max":936,"o":"m 506 457 l 469 0 l 326 0 l 363 456 l 13 979 l 172 979 l 440 576 l 771 979 l 936 979 l 506 457 m 435 1063 l 588 1275 l 739 1275 l 526 1063 l 435 1063 z "},"Ŷ":{"ha":849,"x_min":13,"x_max":936,"o":"m 506 457 l 469 0 l 326 0 l 363 456 l 13 979 l 172 979 l 440 576 l 771 979 l 936 979 l 506 457 m 267 1063 l 453 1275 l 542 1275 l 694 1063 l 578 1063 l 496 1199 l 385 1063 l 267 1063 z "},"Ÿ":{"ha":849,"x_min":13,"x_max":936,"o":"m 506 457 l 469 0 l 326 0 l 363 456 l 13 979 l 172 979 l 440 576 l 771 979 l 936 979 l 506 457 m 444 1239 l 433 1101 l 290 1101 l 300 1239 l 444 1239 m 689 1239 l 679 1101 l 535 1101 l 546 1239 l 689 1239 z "},"Ẏ":{"ha":849,"x_min":13,"x_max":936,"o":"m 506 457 l 469 0 l 326 0 l 363 456 l 13 979 l 172 979 l 440 576 l 771 979 l 936 979 l 506 457 m 576 1243 l 564 1096 l 403 1096 l 414 1243 l 576 1243 z "},"Ỵ":{"ha":849,"x_min":13,"x_max":936,"o":"m 506 457 l 469 0 l 326 0 l 363 456 l 13 979 l 172 979 l 440 576 l 771 979 l 936 979 l 506 457 m 461 -119 l 450 -260 l 303 -260 l 315 -119 l 461 -119 z "},"Ỳ":{"ha":849,"x_min":13,"x_max":936,"o":"m 506 457 l 469 0 l 326 0 l 363 456 l 13 979 l 172 979 l 440 576 l 771 979 l 936 979 l 506 457 m 264 1275 l 399 1275 l 526 1063 l 435 1063 l 264 1275 z "},"Ỷ":{"ha":849,"x_min":13,"x_max":936,"o":"m 506 457 l 469 0 l 326 0 l 363 456 l 13 979 l 172 979 l 440 576 l 771 979 l 936 979 l 506 457 m 522 1063 l 440 1063 l 442 1089 q 460 1127 443 1113 q 504 1154 476 1142 q 533 1171 524 1164 q 542 1188 542 1178 q 529 1203 542 1197 q 493 1210 517 1210 q 407 1193 451 1210 l 389 1258 q 507 1281 447 1281 q 607 1258 571 1281 q 643 1199 643 1235 q 624 1153 643 1169 q 572 1121 606 1136 q 535 1100 546 1108 q 524 1078 525 1092 l 522 1063 z "},"Ȳ":{"ha":849,"x_min":13,"x_max":936,"o":"m 506 457 l 469 0 l 326 0 l 363 456 l 13 979 l 172 979 l 440 576 l 771 979 l 936 979 l 506 457 m 283 1218 l 704 1218 l 696 1121 l 275 1121 l 283 1218 z "},"Ỹ":{"ha":849,"x_min":13,"x_max":936,"o":"m 506 457 l 469 0 l 326 0 l 363 456 l 13 979 l 172 979 l 440 576 l 771 979 l 936 979 l 506 457 m 254 1086 q 298 1215 258 1172 q 399 1258 338 1258 q 449 1247 425 1258 q 508 1214 472 1236 q 554 1188 538 1196 q 586 1181 571 1181 q 634 1200 615 1181 q 654 1254 653 1219 l 725 1254 q 680 1125 719 1168 q 579 1082 640 1082 q 529 1093 553 1082 q 469 1126 506 1104 q 426 1151 443 1143 q 393 1160 408 1160 q 345 1140 364 1160 q 324 1086 326 1121 l 254 1086 z "},"Z":{"ha":826,"x_min":38,"x_max":813,"o":"m 804 875 l 215 117 l 760 117 l 750 0 l 38 0 l 46 106 l 635 863 l 106 863 l 115 979 l 813 979 l 804 875 z "},"Ź":{"ha":826,"x_min":38,"x_max":813,"o":"m 804 875 l 215 117 l 760 117 l 750 0 l 38 0 l 46 106 l 635 863 l 106 863 l 115 979 l 813 979 l 804 875 m 425 1063 l 578 1275 l 729 1275 l 517 1063 l 425 1063 z "},"Ž":{"ha":826,"x_min":38,"x_max":813,"o":"m 804 875 l 215 117 l 760 117 l 750 0 l 38 0 l 46 106 l 635 863 l 106 863 l 115 979 l 813 979 l 804 875 m 701 1275 l 515 1063 l 426 1063 l 274 1275 l 390 1275 l 479 1139 l 583 1275 l 701 1275 z "},"Ż":{"ha":826,"x_min":38,"x_max":813,"o":"m 804 875 l 215 117 l 760 117 l 750 0 l 38 0 l 46 106 l 635 863 l 106 863 l 115 979 l 813 979 l 804 875 m 567 1243 l 554 1096 l 393 1096 l 404 1243 l 567 1243 z "},"Ẓ":{"ha":826,"x_min":38,"x_max":813,"o":"m 804 875 l 215 117 l 760 117 l 750 0 l 38 0 l 46 106 l 635 863 l 106 863 l 115 979 l 813 979 l 804 875 m 454 -119 l 443 -260 l 296 -260 l 308 -119 l 454 -119 z "},"a":{"ha":743,"x_min":63,"x_max":656,"o":"m 404 694 q 656 457 656 694 q 654 415 656 429 l 622 0 l 488 0 l 496 107 q 415 20 467 50 q 296 -10 363 -10 q 128 45 194 -10 q 63 186 63 100 q 103 308 63 263 q 231 375 143 354 q 468 396 319 396 l 518 396 l 521 431 q 494 547 526 510 q 385 583 461 583 q 272 565 331 583 q 158 513 214 547 l 122 611 q 253 672 175 649 q 404 694 331 694 m 329 94 q 452 146 401 94 q 508 278 503 197 l 511 317 l 472 317 q 306 305 364 317 q 226 268 249 293 q 203 200 203 243 q 237 123 203 151 q 329 94 271 94 z "},"á":{"ha":743,"x_min":63,"x_max":683,"o":"m 404 694 q 656 457 656 694 q 654 415 656 429 l 622 0 l 488 0 l 496 107 q 415 20 467 50 q 296 -10 363 -10 q 128 45 194 -10 q 63 186 63 100 q 103 308 63 263 q 231 375 143 354 q 468 396 319 396 l 518 396 l 521 431 q 494 547 526 510 q 385 583 461 583 q 272 565 331 583 q 158 513 214 547 l 122 611 q 253 672 175 649 q 404 694 331 694 m 329 94 q 452 146 401 94 q 508 278 503 197 l 511 317 l 472 317 q 306 305 364 317 q 226 268 249 293 q 203 200 203 243 q 237 123 203 151 q 329 94 271 94 m 369 767 l 525 1049 l 683 1049 l 463 767 l 369 767 z "},"ă":{"ha":743,"x_min":63,"x_max":671,"o":"m 404 694 q 656 457 656 694 q 654 415 656 429 l 622 0 l 488 0 l 496 107 q 415 20 467 50 q 296 -10 363 -10 q 128 45 194 -10 q 63 186 63 100 q 103 308 63 263 q 231 375 143 354 q 468 396 319 396 l 518 396 l 521 431 q 494 547 526 510 q 385 583 461 583 q 272 565 331 583 q 158 513 214 547 l 122 611 q 253 672 175 649 q 404 694 331 694 m 329 94 q 452 146 401 94 q 508 278 503 197 l 511 317 l 472 317 q 306 305 364 317 q 226 268 249 293 q 203 200 203 243 q 237 123 203 151 q 329 94 271 94 m 422 806 q 281 852 343 806 q 196 989 219 899 l 276 1022 q 429 903 324 903 q 519 931 478 903 q 594 1022 560 958 l 671 989 q 571 851 638 896 q 422 806 504 806 z "},"ắ":{"ha":743,"x_min":63,"x_max":678,"o":"m 404 694 q 656 457 656 694 q 654 415 656 429 l 622 0 l 488 0 l 496 107 q 415 20 467 50 q 296 -10 363 -10 q 128 45 194 -10 q 63 186 63 100 q 103 308 63 263 q 231 375 143 354 q 468 396 319 396 l 518 396 l 521 431 q 494 547 526 510 q 385 583 461 583 q 272 565 331 583 q 158 513 214 547 l 122 611 q 253 672 175 649 q 404 694 331 694 m 329 94 q 452 146 401 94 q 508 278 503 197 l 511 317 l 472 317 q 306 305 364 317 q 226 268 249 293 q 203 200 203 243 q 237 123 203 151 q 329 94 271 94 m 383 911 l 532 1108 l 678 1108 l 471 911 l 383 911 m 419 760 q 279 797 339 760 q 194 908 219 835 l 265 938 q 426 844 314 844 q 593 938 533 844 l 660 908 q 560 797 624 833 q 419 760 497 760 z "},"ặ":{"ha":743,"x_min":63,"x_max":671,"o":"m 404 694 q 656 457 656 694 q 654 415 656 429 l 622 0 l 488 0 l 496 107 q 415 20 467 50 q 296 -10 363 -10 q 128 45 194 -10 q 63 186 63 100 q 103 308 63 263 q 231 375 143 354 q 468 396 319 396 l 518 396 l 521 431 q 494 547 526 510 q 385 583 461 583 q 272 565 331 583 q 158 513 214 547 l 122 611 q 253 672 175 649 q 404 694 331 694 m 329 94 q 452 146 401 94 q 508 278 503 197 l 511 317 l 472 317 q 306 305 364 317 q 226 268 249 293 q 203 200 203 243 q 237 123 203 151 q 329 94 271 94 m 415 -119 l 404 -260 l 257 -260 l 269 -119 l 415 -119 m 422 806 q 281 852 343 806 q 196 989 219 899 l 276 1022 q 429 903 324 903 q 519 931 478 903 q 594 1022 560 958 l 671 989 q 571 851 638 896 q 422 806 504 806 z "},"ằ":{"ha":743,"x_min":63,"x_max":660,"o":"m 404 694 q 656 457 656 694 q 654 415 656 429 l 622 0 l 488 0 l 496 107 q 415 20 467 50 q 296 -10 363 -10 q 128 45 194 -10 q 63 186 63 100 q 103 308 63 263 q 231 375 143 354 q 468 396 319 396 l 518 396 l 521 431 q 494 547 526 510 q 385 583 461 583 q 272 565 331 583 q 158 513 214 547 l 122 611 q 253 672 175 649 q 404 694 331 694 m 329 94 q 452 146 401 94 q 508 278 503 197 l 511 317 l 472 317 q 306 305 364 317 q 226 268 249 293 q 203 200 203 243 q 237 123 203 151 q 329 94 271 94 m 215 1108 l 344 1108 l 471 911 l 383 911 l 215 1108 m 419 760 q 279 797 339 760 q 194 908 219 835 l 265 938 q 426 844 314 844 q 593 938 533 844 l 660 908 q 560 797 624 833 q 419 760 497 760 z "},"ẳ":{"ha":743,"x_min":63,"x_max":660,"o":"m 404 694 q 656 457 656 694 q 654 415 656 429 l 622 0 l 488 0 l 496 107 q 415 20 467 50 q 296 -10 363 -10 q 128 45 194 -10 q 63 186 63 100 q 103 308 63 263 q 231 375 143 354 q 468 396 319 396 l 518 396 l 521 431 q 494 547 526 510 q 385 583 461 583 q 272 565 331 583 q 158 513 214 547 l 122 611 q 253 672 175 649 q 404 694 331 694 m 329 94 q 452 146 401 94 q 508 278 503 197 l 511 317 l 472 317 q 306 305 364 317 q 226 268 249 293 q 203 200 203 243 q 237 123 203 151 q 329 94 271 94 m 389 936 q 407 974 390 961 q 454 1001 424 988 q 479 1014 471 1008 q 488 1026 488 1019 q 476 1041 488 1036 q 443 1046 464 1046 q 351 1031 403 1046 l 335 1093 q 456 1115 390 1115 q 553 1094 517 1115 q 589 1038 589 1072 q 571 993 589 1008 q 519 964 553 978 q 483 946 496 954 q 469 924 471 938 l 468 913 l 386 913 l 389 936 m 419 760 q 279 797 339 760 q 194 908 219 835 l 265 938 q 426 844 314 844 q 593 938 533 844 l 660 908 q 560 797 624 833 q 419 760 497 760 z "},"ẵ":{"ha":743,"x_min":63,"x_max":672,"o":"m 404 694 q 656 457 656 694 q 654 415 656 429 l 622 0 l 488 0 l 496 107 q 415 20 467 50 q 296 -10 363 -10 q 128 45 194 -10 q 63 186 63 100 q 103 308 63 263 q 231 375 143 354 q 468 396 319 396 l 518 396 l 521 431 q 494 547 526 510 q 385 583 461 583 q 272 565 331 583 q 158 513 214 547 l 122 611 q 253 672 175 649 q 404 694 331 694 m 329 94 q 452 146 401 94 q 508 278 503 197 l 511 317 l 472 317 q 306 305 364 317 q 226 268 249 293 q 203 200 203 243 q 237 123 203 151 q 329 94 271 94 m 532 969 q 480 978 504 969 q 419 1006 456 988 q 373 1028 390 1021 q 339 1035 356 1035 q 294 1019 311 1035 q 274 974 276 1003 l 203 974 q 246 1080 206 1042 q 343 1118 286 1118 q 394 1109 371 1118 q 457 1082 418 1100 q 503 1060 486 1067 q 538 1053 521 1053 q 583 1068 565 1053 q 601 1114 600 1083 l 672 1114 q 629 1008 669 1047 q 532 969 589 969 m 419 760 q 279 797 339 760 q 194 908 219 835 l 265 938 q 426 844 314 844 q 593 938 533 844 l 660 908 q 560 797 624 833 q 419 760 497 760 z "},"ǎ":{"ha":743,"x_min":63,"x_max":656,"o":"m 404 694 q 656 457 656 694 q 654 415 656 429 l 622 0 l 488 0 l 496 107 q 415 20 467 50 q 296 -10 363 -10 q 128 45 194 -10 q 63 186 63 100 q 103 308 63 263 q 231 375 143 354 q 468 396 319 396 l 518 396 l 521 431 q 494 547 526 510 q 385 583 461 583 q 272 565 331 583 q 158 513 214 547 l 122 611 q 253 672 175 649 q 404 694 331 694 m 329 94 q 452 146 401 94 q 508 278 503 197 l 511 317 l 472 317 q 306 305 364 317 q 226 268 249 293 q 203 200 203 243 q 237 123 203 151 q 329 94 271 94 m 653 1049 l 463 767 l 369 767 l 224 1049 l 342 1049 l 422 861 l 529 1049 l 653 1049 z "},"â":{"ha":743,"x_min":63,"x_max":656,"o":"m 404 694 q 656 457 656 694 q 654 415 656 429 l 622 0 l 488 0 l 496 107 q 415 20 467 50 q 296 -10 363 -10 q 128 45 194 -10 q 63 186 63 100 q 103 308 63 263 q 231 375 143 354 q 468 396 319 396 l 518 396 l 521 431 q 494 547 526 510 q 385 583 461 583 q 272 565 331 583 q 158 513 214 547 l 122 611 q 253 672 175 649 q 404 694 331 694 m 329 94 q 452 146 401 94 q 508 278 503 197 l 511 317 l 472 317 q 306 305 364 317 q 226 268 249 293 q 203 200 203 243 q 237 123 203 151 q 329 94 271 94 m 201 767 l 392 1049 l 485 1049 l 631 767 l 513 767 l 432 954 l 325 767 l 201 767 z "},"ấ":{"ha":743,"x_min":63,"x_max":821,"o":"m 404 694 q 656 457 656 694 q 654 415 656 429 l 622 0 l 488 0 l 496 107 q 415 20 467 50 q 296 -10 363 -10 q 128 45 194 -10 q 63 186 63 100 q 103 308 63 263 q 231 375 143 354 q 468 396 319 396 l 518 396 l 521 431 q 494 547 526 510 q 385 583 461 583 q 272 565 331 583 q 158 513 214 547 l 122 611 q 253 672 175 649 q 404 694 331 694 m 329 94 q 452 146 401 94 q 508 278 503 197 l 511 317 l 472 317 q 306 305 364 317 q 226 268 249 293 q 203 200 203 243 q 237 123 203 151 q 329 94 271 94 m 549 911 l 679 1108 l 821 1108 l 626 911 l 549 911 m 201 767 l 388 968 l 476 968 l 631 767 l 515 767 l 429 893 l 319 767 l 201 767 z "},"ậ":{"ha":743,"x_min":63,"x_max":656,"o":"m 404 694 q 656 457 656 694 q 654 415 656 429 l 622 0 l 488 0 l 496 107 q 415 20 467 50 q 296 -10 363 -10 q 128 45 194 -10 q 63 186 63 100 q 103 308 63 263 q 231 375 143 354 q 468 396 319 396 l 518 396 l 521 431 q 494 547 526 510 q 385 583 461 583 q 272 565 331 583 q 158 513 214 547 l 122 611 q 253 672 175 649 q 404 694 331 694 m 329 94 q 452 146 401 94 q 508 278 503 197 l 511 317 l 472 317 q 306 305 364 317 q 226 268 249 293 q 203 200 203 243 q 237 123 203 151 q 329 94 271 94 m 415 -119 l 404 -260 l 257 -260 l 269 -119 l 415 -119 m 201 767 l 392 1049 l 485 1049 l 631 767 l 513 767 l 432 954 l 325 767 l 201 767 z "},"ầ":{"ha":743,"x_min":63,"x_max":686,"o":"m 404 694 q 656 457 656 694 q 654 415 656 429 l 622 0 l 488 0 l 496 107 q 415 20 467 50 q 296 -10 363 -10 q 128 45 194 -10 q 63 186 63 100 q 103 308 63 263 q 231 375 143 354 q 468 396 319 396 l 518 396 l 521 431 q 494 547 526 510 q 385 583 461 583 q 272 565 331 583 q 158 513 214 547 l 122 611 q 253 672 175 649 q 404 694 331 694 m 329 94 q 452 146 401 94 q 508 278 503 197 l 511 317 l 472 317 q 306 305 364 317 q 226 268 249 293 q 203 200 203 243 q 237 123 203 151 q 329 94 271 94 m 467 1108 l 593 1108 l 686 911 l 607 911 l 467 1108 m 388 968 l 476 968 l 631 767 l 515 767 l 429 893 l 319 767 l 201 767 l 388 968 z "},"ẩ":{"ha":743,"x_min":63,"x_max":749,"o":"m 404 694 q 656 457 656 694 q 654 415 656 429 l 622 0 l 488 0 l 496 107 q 415 20 467 50 q 296 -10 363 -10 q 128 45 194 -10 q 63 186 63 100 q 103 308 63 263 q 231 375 143 354 q 468 396 319 396 l 518 396 l 521 431 q 494 547 526 510 q 385 583 461 583 q 272 565 331 583 q 158 513 214 547 l 122 611 q 253 672 175 649 q 404 694 331 694 m 329 94 q 452 146 401 94 q 508 278 503 197 l 511 317 l 472 317 q 306 305 364 317 q 226 268 249 293 q 203 200 203 243 q 237 123 203 151 q 329 94 271 94 m 549 936 q 567 974 550 961 q 615 1001 583 988 q 640 1014 632 1008 q 649 1026 649 1019 q 637 1041 649 1036 q 604 1046 625 1046 q 511 1031 563 1046 l 496 1093 q 615 1115 551 1115 q 713 1094 678 1115 q 749 1038 749 1072 q 731 993 749 1008 q 681 964 714 978 q 644 946 657 954 q 631 924 632 938 l 629 913 l 547 913 l 549 936 m 388 968 l 476 968 l 631 767 l 515 767 l 429 893 l 319 767 l 201 767 l 388 968 z "},"ẫ":{"ha":743,"x_min":63,"x_max":674,"o":"m 404 694 q 656 457 656 694 q 654 415 656 429 l 622 0 l 488 0 l 496 107 q 415 20 467 50 q 296 -10 363 -10 q 128 45 194 -10 q 63 186 63 100 q 103 308 63 263 q 231 375 143 354 q 468 396 319 396 l 518 396 l 521 431 q 494 547 526 510 q 385 583 461 583 q 272 565 331 583 q 158 513 214 547 l 122 611 q 253 672 175 649 q 404 694 331 694 m 329 94 q 452 146 401 94 q 508 278 503 197 l 511 317 l 472 317 q 306 305 364 317 q 226 268 249 293 q 203 200 203 243 q 237 123 203 151 q 329 94 271 94 m 204 990 q 247 1091 207 1053 q 344 1129 288 1129 q 399 1121 374 1129 q 458 1097 425 1113 q 504 1079 486 1085 q 539 1074 522 1074 q 584 1088 567 1074 q 603 1129 601 1103 l 674 1129 q 631 1028 672 1065 q 533 990 590 990 q 485 997 507 990 q 444 1011 463 1004 q 419 1021 425 1018 q 339 1046 369 1046 q 295 1031 313 1046 q 275 990 278 1015 l 204 990 m 388 968 l 476 968 l 631 767 l 515 767 l 429 893 l 319 767 l 201 767 l 388 968 z "},"ȁ":{"ha":743,"x_min":63,"x_max":656,"o":"m 404 694 q 656 457 656 694 q 654 415 656 429 l 622 0 l 488 0 l 496 107 q 415 20 467 50 q 296 -10 363 -10 q 128 45 194 -10 q 63 186 63 100 q 103 308 63 263 q 231 375 143 354 q 468 396 319 396 l 518 396 l 521 431 q 494 547 526 510 q 385 583 461 583 q 272 565 331 583 q 158 513 214 547 l 122 611 q 253 672 175 649 q 404 694 331 694 m 329 94 q 452 146 401 94 q 508 278 503 197 l 511 317 l 472 317 q 306 305 364 317 q 226 268 249 293 q 203 200 203 243 q 237 123 203 151 q 329 94 271 94 m 211 1049 l 324 1049 l 361 767 l 296 767 l 211 1049 m 386 1049 l 499 1049 l 536 767 l 471 767 l 386 1049 z "},"ä":{"ha":743,"x_min":63,"x_max":656,"o":"m 404 694 q 656 457 656 694 q 654 415 656 429 l 622 0 l 488 0 l 496 107 q 415 20 467 50 q 296 -10 363 -10 q 128 45 194 -10 q 63 186 63 100 q 103 308 63 263 q 231 375 143 354 q 468 396 319 396 l 518 396 l 521 431 q 494 547 526 510 q 385 583 461 583 q 272 565 331 583 q 158 513 214 547 l 122 611 q 253 672 175 649 q 404 694 331 694 m 329 94 q 452 146 401 94 q 508 278 503 197 l 511 317 l 472 317 q 306 305 364 317 q 226 268 249 293 q 203 200 203 243 q 237 123 203 151 q 329 94 271 94 m 382 976 l 371 839 l 228 839 l 238 976 l 382 976 m 626 976 l 617 839 l 472 839 l 483 976 l 626 976 z "},"ȧ":{"ha":743,"x_min":63,"x_max":656,"o":"m 404 694 q 656 457 656 694 q 654 415 656 429 l 622 0 l 488 0 l 496 107 q 415 20 467 50 q 296 -10 363 -10 q 128 45 194 -10 q 63 186 63 100 q 103 308 63 263 q 231 375 143 354 q 468 396 319 396 l 518 396 l 521 431 q 494 547 526 510 q 385 583 461 583 q 272 565 331 583 q 158 513 214 547 l 122 611 q 253 672 175 649 q 404 694 331 694 m 329 94 q 452 146 401 94 q 508 278 503 197 l 511 317 l 472 317 q 306 305 364 317 q 226 268 249 293 q 203 200 203 243 q 237 123 203 151 q 329 94 271 94 m 514 981 l 501 835 l 340 835 l 351 981 l 514 981 z "},"ạ":{"ha":743,"x_min":63,"x_max":656,"o":"m 404 694 q 656 457 656 694 q 654 415 656 429 l 622 0 l 488 0 l 496 107 q 415 20 467 50 q 296 -10 363 -10 q 128 45 194 -10 q 63 186 63 100 q 103 308 63 263 q 231 375 143 354 q 468 396 319 396 l 518 396 l 521 431 q 494 547 526 510 q 385 583 461 583 q 272 565 331 583 q 158 513 214 547 l 122 611 q 253 672 175 649 q 404 694 331 694 m 329 94 q 452 146 401 94 q 508 278 503 197 l 511 317 l 472 317 q 306 305 364 317 q 226 268 249 293 q 203 200 203 243 q 237 123 203 151 q 329 94 271 94 m 415 -119 l 404 -260 l 257 -260 l 269 -119 l 415 -119 z "},"à":{"ha":743,"x_min":63,"x_max":656,"o":"m 404 694 q 656 457 656 694 q 654 415 656 429 l 622 0 l 488 0 l 496 107 q 415 20 467 50 q 296 -10 363 -10 q 128 45 194 -10 q 63 186 63 100 q 103 308 63 263 q 231 375 143 354 q 468 396 319 396 l 518 396 l 521 431 q 494 547 526 510 q 385 583 461 583 q 272 565 331 583 q 158 513 214 547 l 122 611 q 253 672 175 649 q 404 694 331 694 m 329 94 q 452 146 401 94 q 508 278 503 197 l 511 317 l 472 317 q 306 305 364 317 q 226 268 249 293 q 203 200 203 243 q 237 123 203 151 q 329 94 271 94 m 201 1049 l 343 1049 l 463 767 l 369 767 l 201 1049 z "},"ả":{"ha":743,"x_min":63,"x_max":656,"o":"m 404 694 q 656 457 656 694 q 654 415 656 429 l 622 0 l 488 0 l 496 107 q 415 20 467 50 q 296 -10 363 -10 q 128 45 194 -10 q 63 186 63 100 q 103 308 63 263 q 231 375 143 354 q 468 396 319 396 l 518 396 l 521 431 q 494 547 526 510 q 385 583 461 583 q 272 565 331 583 q 158 513 214 547 l 122 611 q 253 672 175 649 q 404 694 331 694 m 329 94 q 452 146 401 94 q 508 278 503 197 l 511 317 l 472 317 q 306 305 364 317 q 226 268 249 293 q 203 200 203 243 q 237 123 203 151 q 329 94 271 94 m 460 767 l 378 767 l 381 803 q 398 852 382 832 q 442 896 414 872 q 470 924 463 914 q 478 946 478 933 q 426 978 478 978 q 347 963 393 978 l 329 1032 q 449 1053 382 1053 q 546 1027 510 1053 q 582 961 582 1001 q 565 908 582 929 q 515 863 547 886 q 475 826 488 840 q 461 792 463 813 l 460 767 z "},"ȃ":{"ha":743,"x_min":63,"x_max":658,"o":"m 404 694 q 656 457 656 694 q 654 415 656 429 l 622 0 l 488 0 l 496 107 q 415 20 467 50 q 296 -10 363 -10 q 128 45 194 -10 q 63 186 63 100 q 103 308 63 263 q 231 375 143 354 q 468 396 319 396 l 518 396 l 521 431 q 494 547 526 510 q 385 583 461 583 q 272 565 331 583 q 158 513 214 547 l 122 611 q 253 672 175 649 q 404 694 331 694 m 329 94 q 452 146 401 94 q 508 278 503 197 l 511 317 l 472 317 q 306 305 364 317 q 226 268 249 293 q 203 200 203 243 q 237 123 203 151 q 329 94 271 94 m 432 1018 q 573 972 511 1018 q 658 836 635 926 l 578 803 q 425 922 531 922 q 335 894 376 922 q 260 803 294 867 l 183 835 q 283 973 217 928 q 432 1018 350 1018 z "},"ā":{"ha":743,"x_min":63,"x_max":656,"o":"m 404 694 q 656 457 656 694 q 654 415 656 429 l 622 0 l 488 0 l 496 107 q 415 20 467 50 q 296 -10 363 -10 q 128 45 194 -10 q 63 186 63 100 q 103 308 63 263 q 231 375 143 354 q 468 396 319 396 l 518 396 l 521 431 q 494 547 526 510 q 385 583 461 583 q 272 565 331 583 q 158 513 214 547 l 122 611 q 253 672 175 649 q 404 694 331 694 m 329 94 q 452 146 401 94 q 508 278 503 197 l 511 317 l 472 317 q 306 305 364 317 q 226 268 249 293 q 203 200 203 243 q 237 123 203 151 q 329 94 271 94 m 221 956 l 642 956 l 633 858 l 213 858 l 221 956 z "},"ą":{"ha":743,"x_min":63,"x_max":663,"o":"m 663 -239 q 542 -269 606 -269 q 424 -231 468 -269 q 379 -129 379 -192 q 409 -35 379 -76 q 490 29 439 7 l 496 107 q 414 19 467 49 q 293 -10 361 -10 q 128 45 193 -10 q 63 186 63 100 q 103 308 63 263 q 231 375 143 354 q 468 396 319 396 l 518 396 l 521 431 q 494 547 526 510 q 385 583 461 583 q 272 565 331 583 q 158 513 214 547 l 122 611 q 253 672 175 649 q 404 694 331 694 q 656 457 656 694 q 654 415 656 429 l 622 0 l 606 0 q 517 -29 553 0 q 482 -107 482 -58 q 503 -165 482 -144 q 563 -186 525 -186 q 644 -164 600 -186 l 663 -239 m 329 94 q 452 146 401 94 q 508 278 503 197 l 511 317 l 472 317 q 306 305 364 317 q 225 267 247 293 q 203 197 203 242 q 237 123 203 151 q 329 94 271 94 z "},"å":{"ha":743,"x_min":63,"x_max":656,"o":"m 404 694 q 656 457 656 694 q 654 415 656 429 l 622 0 l 488 0 l 496 107 q 415 20 467 50 q 296 -10 363 -10 q 128 45 194 -10 q 63 186 63 100 q 103 308 63 263 q 231 375 143 354 q 468 396 319 396 l 518 396 l 521 431 q 494 547 526 510 q 385 583 461 583 q 272 565 331 583 q 158 513 214 547 l 122 611 q 253 672 175 649 q 404 694 331 694 m 329 94 q 452 146 401 94 q 508 278 503 197 l 511 317 l 472 317 q 306 305 364 317 q 226 268 249 293 q 203 200 203 243 q 237 123 203 151 q 329 94 271 94 m 426 767 q 325 808 367 767 q 283 908 283 849 q 325 1008 283 968 q 426 1049 367 1049 q 529 1008 488 1049 q 571 908 571 968 q 529 808 571 849 q 426 767 488 767 m 426 840 q 474 860 456 840 q 492 908 492 879 q 474 956 492 938 q 426 975 456 975 q 381 956 399 975 q 363 908 363 936 q 381 860 363 879 q 426 840 399 840 z "},"ǻ":{"ha":743,"x_min":63,"x_max":669,"o":"m 669 1182 l 661 1069 l 549 990 q 571 915 571 954 q 528 810 571 853 q 422 768 485 768 q 323 807 363 768 q 283 903 283 846 q 327 1007 283 964 q 432 1050 371 1050 q 531 1011 489 1050 l 561 1108 l 669 1182 m 492 908 q 475 956 493 936 q 429 976 457 976 q 381 956 400 976 q 363 906 363 935 q 381 859 363 878 q 425 840 399 840 q 472 860 453 840 q 492 908 492 881 m 404 694 q 656 457 656 694 q 654 415 656 429 l 622 0 l 488 0 l 496 107 q 415 20 467 50 q 296 -10 363 -10 q 128 45 193 -10 q 63 186 63 100 q 103 308 63 263 q 231 375 143 354 q 468 396 319 396 l 518 396 l 521 431 q 494 547 526 510 q 385 583 461 583 q 272 565 331 583 q 158 513 214 547 l 122 611 q 253 672 175 649 q 404 694 331 694 m 329 94 q 452 146 401 94 q 508 278 503 197 l 511 317 l 472 317 q 306 305 364 317 q 225 267 247 293 q 203 197 203 242 q 237 123 203 151 q 329 94 271 94 z "},"ã":{"ha":743,"x_min":63,"x_max":663,"o":"m 404 694 q 656 457 656 694 q 654 415 656 429 l 622 0 l 488 0 l 496 107 q 415 20 467 50 q 296 -10 363 -10 q 128 45 194 -10 q 63 186 63 100 q 103 308 63 263 q 231 375 143 354 q 468 396 319 396 l 518 396 l 521 431 q 494 547 526 510 q 385 583 461 583 q 272 565 331 583 q 158 513 214 547 l 122 611 q 253 672 175 649 q 404 694 331 694 m 329 94 q 452 146 401 94 q 508 278 503 197 l 511 317 l 472 317 q 306 305 364 317 q 226 268 249 293 q 203 200 203 243 q 237 123 203 151 q 329 94 271 94 m 192 826 q 235 954 196 911 q 333 997 274 997 q 385 986 361 997 q 446 953 410 975 q 469 940 451 950 q 500 924 486 929 q 525 919 514 919 q 572 939 554 919 q 593 993 590 958 l 663 993 q 618 865 657 907 q 521 822 579 822 q 469 833 493 822 q 407 865 444 843 q 365 890 382 882 q 331 899 347 899 q 283 880 301 899 q 261 826 265 861 l 192 826 z "},"æ":{"ha":1178,"x_min":63,"x_max":1126,"o":"m 851 694 q 1052 615 978 694 q 1126 383 1126 535 q 1122 315 1126 351 l 650 315 q 703 156 651 213 q 851 100 754 100 q 956 119 903 100 q 1057 175 1010 138 l 1092 76 q 981 14 1050 38 q 843 -10 911 -10 q 672 32 743 -10 q 565 150 601 74 q 460 32 529 74 q 303 -10 390 -10 q 129 45 196 -10 q 63 186 63 100 q 103 308 63 263 q 231 375 143 354 q 468 396 319 396 l 519 396 l 522 431 l 524 456 q 490 552 524 521 q 386 583 457 583 q 272 565 331 583 q 158 513 214 547 l 122 611 q 253 672 175 649 q 406 694 332 694 q 619 592 563 694 q 720 668 661 642 q 851 694 779 694 m 853 592 q 720 542 771 592 q 656 396 669 492 l 1006 396 q 966 542 1007 493 q 853 592 925 592 m 326 94 q 452 147 400 94 q 511 285 504 200 l 514 317 l 472 317 q 306 305 364 317 q 225 267 247 293 q 203 197 203 242 q 237 123 203 151 q 326 94 271 94 z "},"ǽ":{"ha":1178,"x_min":63,"x_max":1126,"o":"m 851 694 q 1052 615 978 694 q 1126 383 1126 535 q 1122 315 1126 351 l 650 315 q 703 156 651 213 q 851 100 754 100 q 956 119 903 100 q 1057 175 1010 138 l 1092 76 q 981 14 1050 38 q 843 -10 911 -10 q 672 32 743 -10 q 565 150 601 74 q 460 32 529 74 q 303 -10 390 -10 q 129 45 196 -10 q 63 186 63 100 q 103 308 63 263 q 231 375 143 354 q 468 396 319 396 l 519 396 l 522 431 l 524 456 q 490 552 524 521 q 386 583 457 583 q 272 565 331 583 q 158 513 214 547 l 122 611 q 253 672 175 649 q 406 694 332 694 q 619 592 563 694 q 720 668 661 642 q 851 694 779 694 m 853 592 q 720 542 771 592 q 656 396 669 492 l 1006 396 q 966 542 1007 493 q 853 592 925 592 m 326 94 q 452 147 400 94 q 511 285 504 200 l 514 317 l 472 317 q 306 305 364 317 q 225 267 247 293 q 203 197 203 242 q 237 123 203 151 q 326 94 271 94 m 571 767 l 726 1049 l 885 1049 l 664 767 l 571 767 z "},"b":{"ha":821,"x_min":71,"x_max":764,"o":"m 475 694 q 626 654 560 694 q 728 540 692 614 q 764 367 764 465 q 724 170 764 256 q 610 38 683 85 q 443 -10 538 -10 q 308 22 365 -10 q 221 115 251 54 l 211 0 l 71 0 l 149 979 l 289 979 l 257 585 q 349 665 292 636 q 475 694 407 694 m 424 101 q 569 171 517 101 q 621 363 621 240 q 572 525 621 468 q 433 582 524 582 q 289 512 342 582 q 236 321 236 442 q 285 158 236 214 q 424 101 333 101 z "},"c":{"ha":671,"x_min":58,"x_max":665,"o":"m 385 -10 q 213 31 286 -10 q 99 145 139 71 q 58 318 58 219 q 101 517 58 432 q 225 649 144 603 q 414 694 306 694 q 554 672 490 694 q 665 607 618 649 l 615 507 q 418 582 518 582 q 260 513 315 582 q 204 318 204 443 q 255 159 204 215 q 397 103 306 103 q 496 121 450 103 q 589 178 542 139 l 624 76 q 517 13 581 36 q 385 -10 454 -10 z "},"ć":{"ha":671,"x_min":58,"x_max":696,"o":"m 385 -10 q 213 31 286 -10 q 99 145 139 71 q 58 318 58 219 q 101 517 58 432 q 225 649 144 603 q 414 694 306 694 q 554 672 490 694 q 665 607 618 649 l 615 507 q 418 582 518 582 q 260 513 315 582 q 204 318 204 443 q 255 159 204 215 q 397 103 306 103 q 496 121 450 103 q 589 178 542 139 l 624 76 q 517 13 581 36 q 385 -10 454 -10 m 382 767 l 538 1049 l 696 1049 l 475 767 l 382 767 z "},"č":{"ha":671,"x_min":58,"x_max":665,"o":"m 385 -10 q 213 31 286 -10 q 99 145 139 71 q 58 318 58 219 q 101 517 58 432 q 225 649 144 603 q 414 694 306 694 q 554 672 490 694 q 665 607 618 649 l 615 507 q 418 582 518 582 q 260 513 315 582 q 204 318 204 443 q 255 159 204 215 q 397 103 306 103 q 496 121 450 103 q 589 178 542 139 l 624 76 q 517 13 581 36 q 385 -10 454 -10 m 665 1049 l 475 767 l 382 767 l 236 1049 l 354 1049 l 435 861 l 542 1049 l 665 1049 z "},"ç":{"ha":671,"x_min":58,"x_max":665,"o":"m 624 76 q 519 14 581 36 q 390 -10 458 -8 l 381 -58 q 403 -57 389 -57 q 481 -81 451 -57 q 510 -150 510 -106 q 465 -236 510 -203 q 340 -269 421 -269 q 273 -262 308 -269 q 211 -243 238 -256 l 232 -178 q 339 -197 289 -197 q 394 -186 374 -197 q 414 -153 414 -175 q 367 -118 414 -118 q 308 -129 344 -118 l 283 -106 l 304 -1 q 124 106 190 22 q 58 318 58 190 q 101 517 58 432 q 225 649 144 603 q 414 694 306 694 q 554 672 490 694 q 665 607 618 649 l 615 507 q 418 582 518 582 q 260 513 315 582 q 204 318 204 443 q 255 159 204 215 q 397 103 306 103 q 496 121 450 103 q 589 178 542 139 l 624 76 z "},"ḉ":{"ha":671,"x_min":58,"x_max":696,"o":"m 475 767 l 382 767 l 538 1049 l 696 1049 l 475 767 m 418 582 q 260 513 315 582 q 204 318 204 443 q 255 159 204 215 q 397 103 306 103 q 496 121 450 103 q 589 178 542 139 l 624 76 q 519 14 581 36 q 390 -10 458 -8 l 381 -58 q 403 -57 389 -57 q 481 -81 451 -57 q 510 -150 510 -106 q 465 -236 510 -203 q 340 -269 421 -269 q 273 -262 308 -269 q 211 -243 238 -256 l 232 -178 q 339 -197 289 -197 q 394 -186 374 -197 q 414 -153 414 -175 q 367 -118 414 -118 q 308 -129 344 -118 l 283 -106 l 304 -1 q 124 106 190 22 q 58 318 58 190 q 101 517 58 432 q 225 649 144 603 q 414 694 306 694 q 554 672 490 694 q 665 607 618 649 l 615 507 q 418 582 518 582 z "},"ĉ":{"ha":671,"x_min":58,"x_max":665,"o":"m 385 -10 q 213 31 286 -10 q 99 145 139 71 q 58 318 58 219 q 101 517 58 432 q 225 649 144 603 q 414 694 306 694 q 554 672 490 694 q 665 607 618 649 l 615 507 q 418 582 518 582 q 260 513 315 582 q 204 318 204 443 q 255 159 204 215 q 397 103 306 103 q 496 121 450 103 q 589 178 542 139 l 624 76 q 517 13 581 36 q 385 -10 454 -10 m 214 767 l 404 1049 l 497 1049 l 643 767 l 525 767 l 444 954 l 338 767 l 214 767 z "},"ċ":{"ha":671,"x_min":58,"x_max":665,"o":"m 385 -10 q 213 31 286 -10 q 99 145 139 71 q 58 318 58 219 q 101 517 58 432 q 225 649 144 603 q 414 694 306 694 q 554 672 490 694 q 665 607 618 649 l 615 507 q 418 582 518 582 q 260 513 315 582 q 204 318 204 443 q 255 159 204 215 q 397 103 306 103 q 496 121 450 103 q 589 178 542 139 l 624 76 q 517 13 581 36 q 385 -10 454 -10 m 526 981 l 514 835 l 353 835 l 364 981 l 526 981 z "},"d":{"ha":821,"x_min":58,"x_max":772,"o":"m 772 979 l 696 0 l 557 0 l 565 101 q 474 19 532 49 q 347 -10 417 -10 q 197 30 263 -10 q 94 143 131 69 q 58 315 58 217 q 99 514 58 428 q 212 647 139 600 q 379 694 285 694 q 513 663 456 694 q 600 571 569 631 l 632 979 l 772 979 m 388 101 q 533 172 481 101 q 586 363 586 242 q 538 526 586 469 q 399 582 489 582 q 253 513 306 582 q 200 322 200 443 q 249 159 200 217 q 388 101 299 101 z "},"ð":{"ha":790,"x_min":56,"x_max":767,"o":"m 629 793 q 711 633 683 722 q 739 444 739 544 q 642 101 739 213 q 382 -10 546 -10 q 210 27 283 -10 q 96 133 136 64 q 56 293 56 201 q 98 472 56 394 q 216 590 140 549 q 388 632 292 632 q 516 607 460 632 q 606 535 572 582 q 506 753 589 664 l 271 678 l 251 760 l 432 818 q 258 892 356 869 l 299 990 q 565 861 457 956 l 749 919 l 767 838 l 629 793 m 383 101 q 531 165 479 101 q 582 336 582 228 q 533 472 582 422 q 397 522 485 522 q 249 459 301 522 q 197 292 197 396 q 245 152 197 203 q 383 101 293 101 z "},"ď":{"ha":821,"x_min":58,"x_max":910,"o":"m 632 979 l 772 979 l 696 0 l 557 0 l 565 101 q 474 19 532 49 q 347 -10 417 -10 q 197 30 263 -10 q 94 143 131 69 q 58 315 58 217 q 99 514 58 428 q 212 647 139 600 q 379 694 285 694 q 513 663 456 694 q 600 571 569 631 l 632 979 m 910 979 l 854 714 l 796 714 l 815 979 l 910 979 m 388 101 q 533 172 481 101 q 586 363 586 242 q 538 526 586 469 q 399 582 489 582 q 253 513 306 582 q 200 322 200 443 q 249 159 200 217 q 388 101 299 101 z "},"đ":{"ha":821,"x_min":58,"x_max":889,"o":"m 881 761 l 756 761 l 696 0 l 557 0 l 565 101 q 474 19 532 49 q 347 -10 417 -10 q 197 31 263 -10 q 94 147 131 71 q 58 324 58 222 q 99 515 58 431 q 213 647 139 599 q 379 694 286 694 q 513 663 456 694 q 600 571 569 631 l 615 761 l 350 761 l 358 864 l 624 864 l 632 979 l 772 979 l 764 864 l 889 864 l 881 761 m 388 101 q 534 172 482 101 q 586 369 586 243 q 538 528 586 474 q 397 582 489 582 q 253 513 307 582 q 200 321 200 443 q 249 158 200 215 q 388 101 299 101 z "},"ḍ":{"ha":821,"x_min":58,"x_max":772,"o":"m 772 979 l 696 0 l 557 0 l 565 101 q 474 19 532 49 q 347 -10 417 -10 q 197 30 263 -10 q 94 143 131 69 q 58 315 58 217 q 99 514 58 428 q 212 647 139 600 q 379 694 285 694 q 513 663 456 694 q 600 571 569 631 l 632 979 l 772 979 m 388 101 q 533 172 481 101 q 586 363 586 242 q 538 526 586 469 q 399 582 489 582 q 253 513 306 582 q 200 322 200 443 q 249 159 200 217 q 388 101 299 101 m 450 -119 l 439 -260 l 292 -260 l 304 -119 l 450 -119 z "},"ḏ":{"ha":821,"x_min":58,"x_max":772,"o":"m 772 979 l 696 0 l 557 0 l 565 101 q 474 19 532 49 q 347 -10 417 -10 q 197 30 263 -10 q 94 143 131 69 q 58 315 58 217 q 99 514 58 428 q 212 647 139 600 q 379 694 285 694 q 513 663 456 694 q 600 571 569 631 l 632 979 l 772 979 m 388 101 q 533 172 481 101 q 586 363 586 242 q 538 526 586 469 q 399 582 489 582 q 253 513 306 582 q 200 322 200 443 q 249 159 200 217 q 388 101 299 101 m 164 -143 l 586 -143 l 578 -236 l 157 -236 l 164 -143 z "},"ǆ":{"ha":1524,"x_min":58,"x_max":1481,"o":"m 772 979 l 696 0 l 557 0 l 565 101 q 474 19 532 49 q 347 -10 417 -10 q 197 30 263 -10 q 94 143 131 69 q 58 315 58 217 q 99 514 58 428 q 212 647 139 600 q 379 694 285 694 q 513 663 456 694 q 600 571 569 631 l 632 979 l 772 979 m 388 101 q 533 172 481 101 q 586 363 586 242 q 538 526 586 469 q 399 582 489 582 q 253 513 306 582 q 200 322 200 443 q 249 159 200 217 q 388 101 299 101 m 1474 579 l 1043 108 l 1451 108 l 1442 0 l 861 0 l 868 97 l 1299 569 l 917 569 l 925 678 l 1481 678 l 1474 579 m 1450 1049 l 1260 767 l 1167 767 l 1021 1049 l 1139 1049 l 1219 861 l 1326 1049 l 1450 1049 z "},"e":{"ha":735,"x_min":58,"x_max":682,"o":"m 396 694 q 606 615 529 694 q 682 385 682 536 q 678 315 682 353 l 197 315 q 250 156 199 213 q 399 100 301 100 q 613 175 517 100 l 649 76 q 535 14 606 38 q 390 -10 464 -10 q 215 31 290 -10 q 99 146 140 71 q 58 319 58 221 q 101 515 58 429 q 220 647 143 600 q 396 694 297 694 m 401 592 q 267 542 318 592 q 203 396 217 492 l 561 396 q 521 542 564 493 q 401 592 478 592 z "},"é":{"ha":735,"x_min":58,"x_max":685,"o":"m 396 694 q 606 615 529 694 q 682 385 682 536 q 678 315 682 353 l 197 315 q 250 156 199 213 q 399 100 301 100 q 613 175 517 100 l 649 76 q 535 14 606 38 q 390 -10 464 -10 q 215 31 290 -10 q 99 146 140 71 q 58 319 58 221 q 101 515 58 429 q 220 647 143 600 q 396 694 297 694 m 401 592 q 267 542 318 592 q 203 396 217 492 l 561 396 q 521 542 564 493 q 401 592 478 592 m 371 767 l 526 1049 l 685 1049 l 464 767 l 371 767 z "},"ĕ":{"ha":735,"x_min":58,"x_max":682,"o":"m 396 694 q 606 615 529 694 q 682 385 682 536 q 678 315 682 353 l 197 315 q 250 156 199 213 q 399 100 301 100 q 613 175 517 100 l 649 76 q 535 14 606 38 q 390 -10 464 -10 q 215 31 290 -10 q 99 146 140 71 q 58 319 58 221 q 101 515 58 429 q 220 647 143 600 q 396 694 297 694 m 401 592 q 267 542 318 592 q 203 396 217 492 l 561 396 q 521 542 564 493 q 401 592 478 592 m 424 806 q 283 852 344 806 q 197 989 221 899 l 278 1022 q 431 903 325 903 q 520 931 479 903 q 596 1022 561 958 l 672 989 q 572 851 639 896 q 424 806 506 806 z "},"ě":{"ha":735,"x_min":58,"x_max":682,"o":"m 396 694 q 606 615 529 694 q 682 385 682 536 q 678 315 682 353 l 197 315 q 250 156 199 213 q 399 100 301 100 q 613 175 517 100 l 649 76 q 535 14 606 38 q 390 -10 464 -10 q 215 31 290 -10 q 99 146 140 71 q 58 319 58 221 q 101 515 58 429 q 220 647 143 600 q 396 694 297 694 m 401 592 q 267 542 318 592 q 203 396 217 492 l 561 396 q 521 542 564 493 q 401 592 478 592 m 654 1049 l 464 767 l 371 767 l 225 1049 l 343 1049 l 424 861 l 531 1049 l 654 1049 z "},"ḝ":{"ha":735,"x_min":58,"x_max":682,"o":"m 424 806 q 283 852 344 806 q 197 989 221 899 l 278 1022 q 431 903 325 903 q 520 931 479 903 q 596 1022 561 958 l 672 989 q 572 851 639 896 q 424 806 506 806 m 396 694 q 606 615 529 694 q 682 385 682 536 q 678 315 682 353 l 197 315 q 250 156 199 213 q 399 100 301 100 q 613 175 517 100 l 649 76 q 544 16 608 39 q 410 -10 479 -7 l 399 -58 q 421 -57 407 -57 q 499 -81 469 -57 q 528 -150 528 -106 q 483 -236 528 -203 q 358 -269 439 -269 q 291 -262 326 -269 q 229 -243 256 -256 l 250 -178 q 357 -197 307 -197 q 412 -186 392 -197 q 432 -153 432 -175 q 385 -118 432 -118 q 326 -129 363 -118 l 301 -106 l 321 -4 q 128 101 199 15 q 58 319 58 188 q 101 515 58 429 q 220 647 143 600 q 396 694 297 694 m 401 592 q 267 542 318 592 q 203 396 217 492 l 561 396 q 521 542 564 493 q 401 592 478 592 z "},"ê":{"ha":735,"x_min":58,"x_max":682,"o":"m 396 694 q 606 615 529 694 q 682 385 682 536 q 678 315 682 353 l 197 315 q 250 156 199 213 q 399 100 301 100 q 613 175 517 100 l 649 76 q 535 14 606 38 q 390 -10 464 -10 q 215 31 290 -10 q 99 146 140 71 q 58 319 58 221 q 101 515 58 429 q 220 647 143 600 q 396 694 297 694 m 401 592 q 267 542 318 592 q 203 396 217 492 l 561 396 q 521 542 564 493 q 401 592 478 592 m 203 767 l 393 1049 l 486 1049 l 632 767 l 514 767 l 433 954 l 326 767 l 203 767 z "},"ế":{"ha":735,"x_min":58,"x_max":822,"o":"m 396 694 q 606 615 529 694 q 682 385 682 536 q 678 315 682 353 l 197 315 q 250 156 199 213 q 399 100 301 100 q 613 175 517 100 l 649 76 q 535 14 606 38 q 390 -10 464 -10 q 215 31 290 -10 q 99 146 140 71 q 58 319 58 221 q 101 515 58 429 q 220 647 143 600 q 396 694 297 694 m 401 592 q 267 542 318 592 q 203 396 217 492 l 561 396 q 521 542 564 493 q 401 592 478 592 m 550 911 l 681 1108 l 822 1108 l 628 911 l 550 911 m 203 767 l 389 968 l 478 968 l 632 767 l 517 767 l 431 893 l 321 767 l 203 767 z "},"ệ":{"ha":735,"x_min":58,"x_max":682,"o":"m 396 694 q 606 615 529 694 q 682 385 682 536 q 678 315 682 353 l 197 315 q 250 156 199 213 q 399 100 301 100 q 613 175 517 100 l 649 76 q 535 14 606 38 q 390 -10 464 -10 q 215 31 290 -10 q 99 146 140 71 q 58 319 58 221 q 101 515 58 429 q 220 647 143 600 q 396 694 297 694 m 401 592 q 267 542 318 592 q 203 396 217 492 l 561 396 q 521 542 564 493 q 401 592 478 592 m 443 -119 l 432 -260 l 285 -260 l 297 -119 l 443 -119 m 203 767 l 393 1049 l 486 1049 l 632 767 l 514 767 l 433 954 l 326 767 l 203 767 z "},"ề":{"ha":735,"x_min":58,"x_max":688,"o":"m 396 694 q 606 615 529 694 q 682 385 682 536 q 678 315 682 353 l 197 315 q 250 156 199 213 q 399 100 301 100 q 613 175 517 100 l 649 76 q 535 14 606 38 q 390 -10 464 -10 q 215 31 290 -10 q 99 146 140 71 q 58 319 58 221 q 101 515 58 429 q 220 647 143 600 q 396 694 297 694 m 401 592 q 267 542 318 592 q 203 396 217 492 l 561 396 q 521 542 564 493 q 401 592 478 592 m 468 1108 l 594 1108 l 688 911 l 608 911 l 468 1108 m 389 968 l 478 968 l 632 767 l 517 767 l 431 893 l 321 767 l 203 767 l 389 968 z "},"ể":{"ha":735,"x_min":58,"x_max":750,"o":"m 396 694 q 606 615 529 694 q 682 385 682 536 q 678 315 682 353 l 197 315 q 250 156 199 213 q 399 100 301 100 q 613 175 517 100 l 649 76 q 535 14 606 38 q 390 -10 464 -10 q 215 31 290 -10 q 99 146 140 71 q 58 319 58 221 q 101 515 58 429 q 220 647 143 600 q 396 694 297 694 m 401 592 q 267 542 318 592 q 203 396 217 492 l 561 396 q 521 542 564 493 q 401 592 478 592 m 550 936 q 568 974 551 961 q 617 1001 585 988 q 642 1014 633 1008 q 650 1026 650 1019 q 638 1041 650 1036 q 606 1046 626 1046 q 513 1031 564 1046 l 497 1093 q 617 1115 553 1115 q 715 1094 679 1115 q 750 1038 750 1072 q 733 993 750 1008 q 682 964 715 978 q 646 946 658 954 q 632 924 633 938 l 631 913 l 549 913 l 550 936 m 389 968 l 478 968 l 632 767 l 517 767 l 431 893 l 321 767 l 203 767 l 389 968 z "},"ễ":{"ha":735,"x_min":58,"x_max":682,"o":"m 396 694 q 606 615 529 694 q 682 385 682 536 q 678 315 682 353 l 197 315 q 250 156 199 213 q 399 100 301 100 q 613 175 517 100 l 649 76 q 535 14 606 38 q 390 -10 464 -10 q 215 31 290 -10 q 99 146 140 71 q 58 319 58 221 q 101 515 58 429 q 220 647 143 600 q 396 694 297 694 m 401 592 q 267 542 318 592 q 203 396 217 492 l 561 396 q 521 542 564 493 q 401 592 478 592 m 206 990 q 249 1091 208 1053 q 346 1129 289 1129 q 401 1121 375 1129 q 460 1097 426 1113 q 506 1079 488 1085 q 540 1074 524 1074 q 585 1088 568 1074 q 604 1129 603 1103 l 675 1129 q 633 1028 674 1065 q 535 990 592 990 q 486 997 508 990 q 445 1011 464 1004 q 421 1021 426 1018 q 340 1046 371 1046 q 297 1031 314 1046 q 276 990 279 1015 l 206 990 m 389 968 l 478 968 l 632 767 l 517 767 l 431 893 l 321 767 l 203 767 l 389 968 z "},"ȅ":{"ha":735,"x_min":58,"x_max":682,"o":"m 396 694 q 606 615 529 694 q 682 385 682 536 q 678 315 682 353 l 197 315 q 250 156 199 213 q 399 100 301 100 q 613 175 517 100 l 649 76 q 535 14 606 38 q 390 -10 464 -10 q 215 31 290 -10 q 99 146 140 71 q 58 319 58 221 q 101 515 58 429 q 220 647 143 600 q 396 694 297 694 m 401 592 q 267 542 318 592 q 203 396 217 492 l 561 396 q 521 542 564 493 q 401 592 478 592 m 213 1049 l 325 1049 l 363 767 l 297 767 l 213 1049 m 388 1049 l 500 1049 l 538 767 l 472 767 l 388 1049 z "},"ë":{"ha":735,"x_min":58,"x_max":682,"o":"m 396 694 q 606 615 529 694 q 682 385 682 536 q 678 315 682 353 l 197 315 q 250 156 199 213 q 399 100 301 100 q 613 175 517 100 l 649 76 q 535 14 606 38 q 390 -10 464 -10 q 215 31 290 -10 q 99 146 140 71 q 58 319 58 221 q 101 515 58 429 q 220 647 143 600 q 396 694 297 694 m 401 592 q 267 542 318 592 q 203 396 217 492 l 561 396 q 521 542 564 493 q 401 592 478 592 m 383 976 l 372 839 l 229 839 l 239 976 l 383 976 m 628 976 l 618 839 l 474 839 l 485 976 l 628 976 z "},"ė":{"ha":735,"x_min":58,"x_max":682,"o":"m 396 694 q 606 615 529 694 q 682 385 682 536 q 678 315 682 353 l 197 315 q 250 156 199 213 q 399 100 301 100 q 613 175 517 100 l 649 76 q 535 14 606 38 q 390 -10 464 -10 q 215 31 290 -10 q 99 146 140 71 q 58 319 58 221 q 101 515 58 429 q 220 647 143 600 q 396 694 297 694 m 401 592 q 267 542 318 592 q 203 396 217 492 l 561 396 q 521 542 564 493 q 401 592 478 592 m 515 981 l 503 835 l 342 835 l 353 981 l 515 981 z "},"ẹ":{"ha":735,"x_min":58,"x_max":682,"o":"m 396 694 q 606 615 529 694 q 682 385 682 536 q 678 315 682 353 l 197 315 q 250 156 199 213 q 399 100 301 100 q 613 175 517 100 l 649 76 q 535 14 606 38 q 390 -10 464 -10 q 215 31 290 -10 q 99 146 140 71 q 58 319 58 221 q 101 515 58 429 q 220 647 143 600 q 396 694 297 694 m 401 592 q 267 542 318 592 q 203 396 217 492 l 561 396 q 521 542 564 493 q 401 592 478 592 m 443 -119 l 432 -260 l 285 -260 l 297 -119 l 443 -119 z "},"è":{"ha":735,"x_min":58,"x_max":682,"o":"m 396 694 q 606 615 529 694 q 682 385 682 536 q 678 315 682 353 l 197 315 q 250 156 199 213 q 399 100 301 100 q 613 175 517 100 l 649 76 q 535 14 606 38 q 390 -10 464 -10 q 215 31 290 -10 q 99 146 140 71 q 58 319 58 221 q 101 515 58 429 q 220 647 143 600 q 396 694 297 694 m 401 592 q 267 542 318 592 q 203 396 217 492 l 561 396 q 521 542 564 493 q 401 592 478 592 m 203 1049 l 344 1049 l 464 767 l 371 767 l 203 1049 z "},"ẻ":{"ha":735,"x_min":58,"x_max":682,"o":"m 396 694 q 606 615 529 694 q 682 385 682 536 q 678 315 682 353 l 197 315 q 250 156 199 213 q 399 100 301 100 q 613 175 517 100 l 649 76 q 535 14 606 38 q 390 -10 464 -10 q 215 31 290 -10 q 99 146 140 71 q 58 319 58 221 q 101 515 58 429 q 220 647 143 600 q 396 694 297 694 m 401 592 q 267 542 318 592 q 203 396 217 492 l 561 396 q 521 542 564 493 q 401 592 478 592 m 461 767 l 379 767 l 382 803 q 399 852 383 832 q 443 896 415 872 q 472 924 464 914 q 479 946 479 933 q 428 978 479 978 q 349 963 394 978 l 331 1032 q 450 1053 383 1053 q 547 1027 511 1053 q 583 961 583 1001 q 566 908 583 929 q 517 863 549 886 q 476 826 489 840 q 463 792 464 813 l 461 767 z "},"ȇ":{"ha":735,"x_min":58,"x_max":682,"o":"m 396 694 q 606 615 529 694 q 682 385 682 536 q 678 315 682 353 l 197 315 q 250 156 199 213 q 399 100 301 100 q 613 175 517 100 l 649 76 q 535 14 606 38 q 390 -10 464 -10 q 215 31 290 -10 q 99 146 140 71 q 58 319 58 221 q 101 515 58 429 q 220 647 143 600 q 396 694 297 694 m 401 592 q 267 542 318 592 q 203 396 217 492 l 561 396 q 521 542 564 493 q 401 592 478 592 m 433 1018 q 574 972 513 1018 q 660 836 636 926 l 579 803 q 426 922 532 922 q 337 894 378 922 q 261 803 296 867 l 185 835 q 285 973 218 928 q 433 1018 351 1018 z "},"ē":{"ha":735,"x_min":58,"x_max":682,"o":"m 396 694 q 606 615 529 694 q 682 385 682 536 q 678 315 682 353 l 197 315 q 250 156 199 213 q 399 100 301 100 q 613 175 517 100 l 649 76 q 535 14 606 38 q 390 -10 464 -10 q 215 31 290 -10 q 99 146 140 71 q 58 319 58 221 q 101 515 58 429 q 220 647 143 600 q 396 694 297 694 m 401 592 q 267 542 318 592 q 203 396 217 492 l 561 396 q 521 542 564 493 q 401 592 478 592 m 222 956 l 643 956 l 635 858 l 214 858 l 222 956 z "},"ḗ":{"ha":735,"x_min":58,"x_max":706,"o":"m 396 694 q 606 615 529 694 q 682 385 682 536 q 678 315 682 353 l 197 315 q 250 156 199 213 q 399 100 301 100 q 613 175 517 100 l 649 76 q 535 14 606 38 q 390 -10 464 -10 q 215 31 290 -10 q 99 146 140 71 q 58 319 58 221 q 101 515 58 429 q 220 647 143 600 q 396 694 297 694 m 401 592 q 267 542 318 592 q 203 396 217 492 l 561 396 q 521 542 564 493 q 401 592 478 592 m 222 956 l 643 956 l 635 858 l 214 858 l 222 956 m 392 1033 l 547 1315 l 706 1315 l 485 1033 l 392 1033 z "},"ḕ":{"ha":735,"x_min":58,"x_max":682,"o":"m 396 694 q 606 615 529 694 q 682 385 682 536 q 678 315 682 353 l 197 315 q 250 156 199 213 q 399 100 301 100 q 613 175 517 100 l 649 76 q 535 14 606 38 q 390 -10 464 -10 q 215 31 290 -10 q 99 146 140 71 q 58 319 58 221 q 101 515 58 429 q 220 647 143 600 q 396 694 297 694 m 401 592 q 267 542 318 592 q 203 396 217 492 l 561 396 q 521 542 564 493 q 401 592 478 592 m 222 956 l 643 956 l 635 858 l 214 858 l 222 956 m 224 1315 l 365 1315 l 485 1033 l 392 1033 l 224 1315 z "},"ę":{"ha":735,"x_min":58,"x_max":682,"o":"m 396 694 q 605 615 528 694 q 682 385 682 536 q 678 315 682 351 l 197 315 q 250 156 199 213 q 399 100 301 100 q 613 175 517 100 l 649 76 q 568 26 621 49 q 470 -36 497 -4 q 443 -107 443 -68 q 464 -165 443 -144 q 522 -186 485 -186 q 606 -164 561 -186 l 622 -239 q 501 -269 565 -269 q 384 -231 428 -269 q 340 -129 340 -192 q 393 -10 340 -56 l 390 -10 q 215 31 290 -10 q 99 146 140 71 q 58 319 58 221 q 101 515 58 429 q 220 647 143 600 q 396 694 297 694 m 401 592 q 269 544 321 592 q 203 396 217 496 l 561 396 q 521 542 564 493 q 401 592 478 592 z "},"ẽ":{"ha":735,"x_min":58,"x_max":682,"o":"m 396 694 q 606 615 529 694 q 682 385 682 536 q 678 315 682 353 l 197 315 q 250 156 199 213 q 399 100 301 100 q 613 175 517 100 l 649 76 q 535 14 606 38 q 390 -10 464 -10 q 215 31 290 -10 q 99 146 140 71 q 58 319 58 221 q 101 515 58 429 q 220 647 143 600 q 396 694 297 694 m 401 592 q 267 542 318 592 q 203 396 217 492 l 561 396 q 521 542 564 493 q 401 592 478 592 m 193 826 q 236 954 197 911 q 335 997 275 997 q 387 986 363 997 q 447 953 411 975 q 470 940 453 950 q 501 924 488 929 q 526 919 515 919 q 574 939 556 919 q 594 993 592 958 l 664 993 q 619 865 658 907 q 522 822 581 822 q 470 833 494 822 q 408 865 446 843 q 366 890 383 882 q 332 899 349 899 q 285 880 303 899 q 263 826 267 861 l 193 826 z "},"ə":{"ha":735,"x_min":51,"x_max":678,"o":"m 351 694 q 590 605 503 694 q 678 365 678 515 q 636 169 678 254 q 519 38 594 85 q 347 -10 444 -10 q 131 69 210 -10 q 51 303 51 149 q 56 369 51 335 l 540 369 q 488 528 539 472 q 342 583 436 583 q 122 508 222 583 l 88 607 q 205 671 132 647 q 351 694 278 694 m 342 93 q 472 142 422 93 q 535 288 521 192 l 175 288 q 216 142 172 190 q 342 93 260 93 z "},"f":{"ha":475,"x_min":28,"x_max":544,"o":"m 308 678 l 493 678 l 485 569 l 300 569 l 254 0 l 114 0 l 158 569 l 28 569 l 36 678 l 167 678 l 169 706 q 255 906 179 839 q 479 981 331 972 l 542 983 l 544 878 l 467 874 q 353 832 390 868 q 311 718 317 796 l 308 678 z "},"g":{"ha":826,"x_min":57,"x_max":754,"o":"m 754 678 l 706 58 q 608 -182 693 -104 q 365 -260 522 -260 q 57 -171 186 -260 l 107 -69 q 235 -131 175 -112 q 368 -150 296 -150 q 567 46 553 -150 l 574 129 q 482 49 540 78 q 353 21 424 21 q 199 59 265 21 q 96 168 132 97 q 60 332 60 239 q 100 520 60 438 q 213 649 140 603 q 382 694 286 694 q 518 662 460 694 q 607 571 576 629 l 615 678 l 754 678 m 392 132 q 538 197 485 132 q 592 376 592 263 q 542 529 592 476 q 403 582 493 582 q 255 516 308 582 q 201 335 201 450 q 251 185 201 238 q 392 132 300 132 z "},"ğ":{"ha":826,"x_min":57,"x_max":754,"o":"m 754 678 l 706 58 q 608 -182 693 -104 q 365 -260 522 -260 q 57 -171 186 -260 l 107 -69 q 235 -131 175 -112 q 368 -150 296 -150 q 567 46 553 -150 l 574 129 q 482 49 540 78 q 353 21 424 21 q 199 59 265 21 q 96 168 132 97 q 60 332 60 239 q 100 520 60 438 q 213 649 140 603 q 382 694 286 694 q 518 662 460 694 q 607 571 576 629 l 615 678 l 754 678 m 392 132 q 538 197 485 132 q 592 376 592 263 q 542 529 592 476 q 403 582 493 582 q 255 516 308 582 q 201 335 201 450 q 251 185 201 238 q 392 132 300 132 m 456 806 q 315 852 376 806 q 229 989 253 899 l 310 1022 q 463 903 357 903 q 552 931 511 903 q 628 1022 593 958 l 704 989 q 604 851 671 896 q 456 806 538 806 z "},"ǧ":{"ha":826,"x_min":57,"x_max":754,"o":"m 754 678 l 706 58 q 608 -182 693 -104 q 365 -260 522 -260 q 57 -171 186 -260 l 107 -69 q 235 -131 175 -112 q 368 -150 296 -150 q 567 46 553 -150 l 574 129 q 482 49 540 78 q 353 21 424 21 q 199 59 265 21 q 96 168 132 97 q 60 332 60 239 q 100 520 60 438 q 213 649 140 603 q 382 694 286 694 q 518 662 460 694 q 607 571 576 629 l 615 678 l 754 678 m 392 132 q 538 197 485 132 q 592 376 592 263 q 542 529 592 476 q 403 582 493 582 q 255 516 308 582 q 201 335 201 450 q 251 185 201 238 q 392 132 300 132 m 686 1049 l 496 767 l 403 767 l 257 1049 l 375 1049 l 456 861 l 563 1049 l 686 1049 z "},"ĝ":{"ha":826,"x_min":57,"x_max":754,"o":"m 754 678 l 706 58 q 608 -182 693 -104 q 365 -260 522 -260 q 57 -171 186 -260 l 107 -69 q 235 -131 175 -112 q 368 -150 296 -150 q 567 46 553 -150 l 574 129 q 482 49 540 78 q 353 21 424 21 q 199 59 265 21 q 96 168 132 97 q 60 332 60 239 q 100 520 60 438 q 213 649 140 603 q 382 694 286 694 q 518 662 460 694 q 607 571 576 629 l 615 678 l 754 678 m 392 132 q 538 197 485 132 q 592 376 592 263 q 542 529 592 476 q 403 582 493 582 q 255 516 308 582 q 201 335 201 450 q 251 185 201 238 q 392 132 300 132 m 235 767 l 425 1049 l 518 1049 l 664 767 l 546 767 l 465 954 l 358 767 l 235 767 z "},"ģ":{"ha":826,"x_min":57,"x_max":754,"o":"m 754 678 l 706 58 q 608 -182 693 -104 q 365 -260 522 -260 q 57 -171 186 -260 l 107 -69 q 235 -131 175 -112 q 368 -150 296 -150 q 567 46 553 -150 l 574 129 q 482 49 540 78 q 353 21 424 21 q 199 59 265 21 q 96 168 132 97 q 60 332 60 239 q 100 520 60 438 q 213 649 140 603 q 382 694 286 694 q 518 662 460 694 q 607 571 576 629 l 615 678 l 754 678 m 392 132 q 538 197 485 132 q 592 376 592 263 q 542 529 592 476 q 403 582 493 582 q 255 516 308 582 q 201 335 201 450 q 251 185 201 238 q 392 132 300 132 m 540 935 l 531 807 l 374 807 l 381 890 q 405 993 385 949 q 469 1076 425 1038 l 524 1035 q 465 935 476 989 l 540 935 z "},"ġ":{"ha":826,"x_min":57,"x_max":754,"o":"m 754 678 l 706 58 q 608 -182 693 -104 q 365 -260 522 -260 q 57 -171 186 -260 l 107 -69 q 235 -131 175 -112 q 368 -150 296 -150 q 567 46 553 -150 l 574 129 q 482 49 540 78 q 353 21 424 21 q 199 59 265 21 q 96 168 132 97 q 60 332 60 239 q 100 520 60 438 q 213 649 140 603 q 382 694 286 694 q 518 662 460 694 q 607 571 576 629 l 615 678 l 754 678 m 392 132 q 538 197 485 132 q 592 376 592 263 q 542 529 592 476 q 403 582 493 582 q 255 516 308 582 q 201 335 201 450 q 251 185 201 238 q 392 132 300 132 m 547 981 l 535 835 l 374 835 l 385 981 l 547 981 z "},"ḡ":{"ha":826,"x_min":57,"x_max":754,"o":"m 754 678 l 706 58 q 608 -182 693 -104 q 365 -260 522 -260 q 57 -171 186 -260 l 107 -69 q 235 -131 175 -112 q 368 -150 296 -150 q 567 46 553 -150 l 574 129 q 482 49 540 78 q 353 21 424 21 q 199 59 265 21 q 96 168 132 97 q 60 332 60 239 q 100 520 60 438 q 213 649 140 603 q 382 694 286 694 q 518 662 460 694 q 607 571 576 629 l 615 678 l 754 678 m 392 132 q 538 197 485 132 q 592 376 592 263 q 542 529 592 476 q 403 582 493 582 q 255 516 308 582 q 201 335 201 450 q 251 185 201 238 q 392 132 300 132 m 254 956 l 675 956 l 667 858 l 246 858 l 254 956 z "},"h":{"ha":800,"x_min":71,"x_max":713,"o":"m 481 694 q 653 635 594 694 q 713 458 713 575 q 711 417 713 431 l 679 0 l 539 0 l 571 410 q 572 439 572 419 q 436 581 572 581 q 299 529 350 581 q 242 386 249 478 l 211 0 l 71 0 l 149 979 l 289 979 l 257 585 q 350 666 292 638 q 481 694 408 694 z "},"ħ":{"ha":800,"x_min":6,"x_max":713,"o":"m 481 694 q 653 635 594 694 q 713 458 713 575 q 711 417 713 431 l 679 0 l 539 0 l 571 410 q 572 439 572 419 q 436 581 572 581 q 299 529 350 581 q 242 386 249 478 l 211 0 l 71 0 l 131 761 l 6 761 l 14 864 l 139 864 l 147 979 l 288 979 l 279 864 l 544 864 l 536 761 l 271 761 l 257 585 q 350 666 292 638 q 481 694 408 694 z "},"ḫ":{"ha":800,"x_min":71,"x_max":713,"o":"m 481 694 q 653 635 594 694 q 713 458 713 575 q 711 417 713 431 l 679 0 l 539 0 l 571 410 q 572 439 572 419 q 436 581 572 581 q 299 529 350 581 q 242 386 249 478 l 211 0 l 71 0 l 149 979 l 289 979 l 257 585 q 350 666 292 638 q 481 694 408 694 m 356 -300 q 214 -253 275 -300 q 129 -117 153 -207 l 210 -83 q 363 -203 257 -203 q 452 -175 411 -203 q 526 -83 493 -147 l 603 -117 q 503 -255 569 -210 q 356 -300 438 -300 z "},"ĥ":{"ha":800,"x_min":13,"x_max":713,"o":"m 481 694 q 653 635 594 694 q 713 458 713 575 q 711 417 713 431 l 679 0 l 539 0 l 571 410 q 572 439 572 419 q 436 581 572 581 q 299 529 350 581 q 242 386 249 478 l 211 0 l 71 0 l 149 979 l 289 979 l 257 585 q 350 666 292 638 q 481 694 408 694 m 13 1063 l 199 1275 l 288 1275 l 440 1063 l 324 1063 l 242 1199 l 131 1063 l 13 1063 z "},"ḥ":{"ha":800,"x_min":71,"x_max":713,"o":"m 481 694 q 653 635 594 694 q 713 458 713 575 q 711 417 713 431 l 679 0 l 539 0 l 571 410 q 572 439 572 419 q 436 581 572 581 q 299 529 350 581 q 242 386 249 478 l 211 0 l 71 0 l 149 979 l 289 979 l 257 585 q 350 666 292 638 q 481 694 408 694 m 439 -119 l 428 -260 l 281 -260 l 293 -119 l 439 -119 z "},"i":{"ha":336,"x_min":71,"x_max":300,"o":"m 125 678 l 265 678 l 211 0 l 71 0 l 125 678 m 300 981 l 288 835 l 126 835 l 138 981 l 300 981 z "},"ı":{"ha":336,"x_min":71,"x_max":265,"o":"m 125 678 l 265 678 l 211 0 l 71 0 l 125 678 z "},"í":{"ha":336,"x_min":71,"x_max":469,"o":"m 125 678 l 265 678 l 211 0 l 71 0 l 125 678 m 156 767 l 311 1049 l 469 1049 l 249 767 l 156 767 z "},"ĭ":{"ha":336,"x_min":-18,"x_max":457,"o":"m 125 678 l 265 678 l 211 0 l 71 0 l 125 678 m 208 806 q 67 852 129 806 q -18 989 6 899 l 63 1022 q 215 903 110 903 q 305 931 264 903 q 381 1022 346 958 l 457 989 q 357 851 424 896 q 208 806 290 806 z "},"î":{"ha":336,"x_min":-12,"x_max":417,"o":"m 125 678 l 265 678 l 211 0 l 71 0 l 125 678 m -12 767 l 178 1049 l 271 1049 l 417 767 l 299 767 l 218 954 l 111 767 l -12 767 z "},"ȉ":{"ha":336,"x_min":-3,"x_max":322,"o":"m 125 678 l 265 678 l 211 0 l 71 0 l 125 678 m -3 1049 l 110 1049 l 147 767 l 82 767 l -3 1049 m 172 1049 l 285 1049 l 322 767 l 257 767 l 172 1049 z "},"ï":{"ha":336,"x_min":14,"x_max":413,"o":"m 125 678 l 265 678 l 211 0 l 71 0 l 125 678 m 168 976 l 157 839 l 14 839 l 24 976 l 168 976 m 413 976 l 403 839 l 258 839 l 269 976 l 413 976 z "},"ḯ":{"ha":336,"x_min":14,"x_max":490,"o":"m 125 678 l 265 678 l 211 0 l 71 0 l 125 678 m 168 976 l 157 839 l 14 839 l 24 976 l 168 976 m 413 976 l 403 839 l 258 839 l 269 976 l 413 976 m 176 1033 l 332 1315 l 490 1315 l 269 1033 l 176 1033 z "},"ị":{"ha":336,"x_min":46,"x_max":300,"o":"m 125 678 l 265 678 l 211 0 l 71 0 l 125 678 m 300 981 l 288 835 l 126 835 l 138 981 l 300 981 m 204 -119 l 193 -260 l 46 -260 l 58 -119 l 204 -119 z "},"ì":{"ha":336,"x_min":-12,"x_max":265,"o":"m 125 678 l 265 678 l 211 0 l 71 0 l 125 678 m -12 1049 l 129 1049 l 249 767 l 156 767 l -12 1049 z "},"ỉ":{"ha":336,"x_min":71,"x_max":368,"o":"m 125 678 l 265 678 l 211 0 l 71 0 l 125 678 m 246 767 l 164 767 l 167 803 q 184 852 168 832 q 228 896 200 872 q 256 924 249 914 q 264 946 264 933 q 213 978 264 978 q 133 963 179 978 l 115 1032 q 235 1053 168 1053 q 332 1027 296 1053 q 368 961 368 1001 q 351 908 368 929 q 301 863 333 886 q 261 826 274 840 q 247 792 249 813 l 246 767 z "},"ȋ":{"ha":336,"x_min":-31,"x_max":444,"o":"m 125 678 l 265 678 l 211 0 l 71 0 l 125 678 m 218 1018 q 359 972 297 1018 q 444 836 421 926 l 364 803 q 211 922 317 922 q 122 894 163 922 q 46 803 81 867 l -31 835 q 69 973 3 928 q 218 1018 136 1018 z "},"ī":{"ha":336,"x_min":-1,"x_max":428,"o":"m 125 678 l 265 678 l 211 0 l 71 0 l 125 678 m 7 956 l 428 956 l 419 858 l -1 858 l 7 956 z "},"į":{"ha":336,"x_min":-31,"x_max":300,"o":"m 300 981 l 288 835 l 126 835 l 138 981 l 300 981 m 203 0 q 105 -30 138 0 q 72 -106 72 -60 q 94 -165 72 -144 q 153 -186 115 -186 q 235 -164 190 -186 l 251 -239 q 132 -269 194 -269 q 13 -230 57 -269 q -31 -126 -31 -190 q 74 32 -31 -19 l 125 678 l 265 678 l 211 0 l 203 0 z "},"ĩ":{"ha":336,"x_min":-22,"x_max":449,"o":"m 125 678 l 265 678 l 211 0 l 71 0 l 125 678 m -22 826 q 21 954 -18 911 q 119 997 60 997 q 172 986 147 997 q 232 953 196 975 q 255 940 238 950 q 286 924 272 929 q 311 919 300 919 q 358 939 340 919 q 379 993 376 958 l 449 993 q 404 865 443 907 q 307 822 365 822 q 255 833 279 822 q 193 865 231 843 q 151 890 168 882 q 117 899 133 899 q 69 880 88 899 q 47 826 51 861 l -22 826 z "},"j":{"ha":336,"x_min":-142,"x_max":300,"o":"m 213 15 q 138 -181 201 -119 q -72 -251 74 -243 l -137 -256 l -142 -151 l -74 -147 q 31 -108 -3 -140 q 71 -6 65 -75 l 125 678 l 265 678 l 213 15 m 300 981 l 288 835 l 126 835 l 138 981 l 300 981 z "},"ȷ":{"ha":336,"x_min":-142,"x_max":265,"o":"m 213 15 q 138 -181 201 -119 q -72 -251 74 -243 l -137 -256 l -142 -151 l -74 -147 q 31 -108 -3 -140 q 71 -6 65 -75 l 125 678 l 265 678 l 213 15 z "},"ĵ":{"ha":336,"x_min":-142,"x_max":417,"o":"m 213 15 q 138 -181 201 -119 q -72 -251 74 -243 l -137 -256 l -142 -151 l -74 -147 q 31 -108 -3 -140 q 71 -6 65 -75 l 125 678 l 265 678 l 213 15 m -12 767 l 178 1049 l 271 1049 l 417 767 l 299 767 l 218 954 l 111 767 l -12 767 z "},"k":{"ha":718,"x_min":71,"x_max":735,"o":"m 390 350 l 710 0 l 536 0 l 236 322 l 211 0 l 71 0 l 149 979 l 289 979 l 240 372 l 558 676 l 735 676 l 390 350 z "},"ķ":{"ha":718,"x_min":71,"x_max":735,"o":"m 390 350 l 710 0 l 536 0 l 236 322 l 211 0 l 71 0 l 149 979 l 289 979 l 240 372 l 558 676 l 735 676 l 390 350 m 403 -97 l 396 -181 q 372 -283 392 -239 q 307 -367 351 -328 l 253 -325 q 310 -225 301 -278 l 236 -225 l 246 -97 l 403 -97 z "},"ĸ":{"ha":718,"x_min":71,"x_max":735,"o":"m 390 350 l 710 0 l 536 0 l 238 322 l 211 0 l 71 0 l 125 678 l 265 678 l 240 374 l 558 676 l 735 676 l 390 350 z "},"l":{"ha":336,"x_min":71,"x_max":289,"o":"m 149 979 l 289 979 l 211 0 l 71 0 l 149 979 z "},"ĺ":{"ha":336,"x_min":71,"x_max":483,"o":"m 149 979 l 289 979 l 211 0 l 71 0 l 149 979 m 179 1063 l 332 1275 l 483 1275 l 271 1063 l 179 1063 z "},"ľ":{"ha":336,"x_min":71,"x_max":428,"o":"m 149 979 l 289 979 l 211 0 l 71 0 l 149 979 m 314 714 l 333 979 l 428 979 l 372 714 l 314 714 z "},"ļ":{"ha":336,"x_min":46,"x_max":289,"o":"m 149 979 l 289 979 l 211 0 l 71 0 l 149 979 m 213 -97 l 206 -181 q 181 -283 201 -239 q 117 -367 161 -328 l 63 -325 q 119 -225 111 -278 l 46 -225 l 56 -97 l 213 -97 z "},"ŀ":{"ha":408,"x_min":71,"x_max":461,"o":"m 149 979 l 289 979 l 211 0 l 71 0 l 149 979 m 461 565 l 449 415 l 283 415 l 296 565 l 461 565 z "},"ḷ":{"ha":336,"x_min":47,"x_max":289,"o":"m 149 979 l 289 979 l 211 0 l 71 0 l 149 979 m 206 -119 l 194 -260 l 47 -260 l 60 -119 l 206 -119 z "},"ǉ":{"ha":672,"x_min":71,"x_max":636,"o":"m 149 979 l 289 979 l 211 0 l 71 0 l 149 979 m 549 15 q 474 -181 538 -119 q 264 -251 410 -243 l 199 -256 l 194 -151 l 263 -147 q 367 -108 333 -140 q 407 -6 401 -75 l 461 678 l 601 678 l 549 15 m 636 981 l 624 835 l 463 835 l 474 981 l 636 981 z "},"ḻ":{"ha":336,"x_min":-87,"x_max":342,"o":"m 149 979 l 289 979 l 211 0 l 71 0 l 149 979 m -81 -143 l 342 -143 l 333 -236 l -87 -236 l -81 -143 z "},"ł":{"ha":419,"x_min":-7,"x_max":451,"o":"m 290 469 l 254 0 l 114 0 l 144 389 l 40 332 l -7 429 l 154 518 l 190 979 l 331 979 l 301 599 l 404 656 l 451 558 l 290 469 z "},"m":{"ha":1197,"x_min":71,"x_max":1110,"o":"m 894 694 q 1055 635 1000 694 q 1110 460 1110 575 q 1108 418 1110 432 l 1076 0 l 936 0 l 968 413 q 969 444 969 424 q 850 581 969 581 q 726 530 771 581 q 674 381 681 479 l 644 0 l 504 0 l 536 411 q 538 444 538 422 q 508 547 538 514 q 417 581 478 581 q 294 530 339 581 q 242 381 249 479 l 211 0 l 71 0 l 125 676 l 263 676 l 256 585 q 465 694 328 694 q 592 663 542 694 q 664 569 642 631 q 760 662 700 629 q 894 694 819 694 z "},"ṃ":{"ha":1197,"x_min":71,"x_max":1110,"o":"m 894 694 q 1055 635 1000 694 q 1110 460 1110 575 q 1108 418 1110 432 l 1076 0 l 936 0 l 968 413 q 969 444 969 424 q 850 581 969 581 q 726 530 771 581 q 674 381 681 479 l 644 0 l 504 0 l 536 411 q 538 444 538 422 q 508 547 538 514 q 417 581 478 581 q 294 530 339 581 q 242 381 249 479 l 211 0 l 71 0 l 125 676 l 263 676 l 256 585 q 465 694 328 694 q 592 663 542 694 q 664 569 642 631 q 760 662 700 629 q 894 694 819 694 m 638 -119 l 626 -260 l 479 -260 l 492 -119 l 638 -119 z "},"n":{"ha":800,"x_min":71,"x_max":713,"o":"m 481 694 q 653 635 594 694 q 713 458 713 575 q 711 417 713 431 l 679 0 l 539 0 l 571 410 q 572 439 572 419 q 436 581 572 581 q 299 529 350 581 q 242 386 249 478 l 211 0 l 71 0 l 125 678 l 263 678 l 254 581 q 348 665 289 635 q 481 694 407 694 z "},"ń":{"ha":800,"x_min":71,"x_max":713,"o":"m 481 694 q 653 635 594 694 q 713 458 713 575 q 711 417 713 431 l 679 0 l 539 0 l 571 410 q 572 439 572 419 q 436 581 572 581 q 299 529 350 581 q 242 386 249 478 l 211 0 l 71 0 l 125 678 l 263 678 l 254 581 q 348 665 289 635 q 481 694 407 694 m 389 767 l 544 1049 l 703 1049 l 482 767 l 389 767 z "},"ŉ":{"ha":800,"x_min":71,"x_max":713,"o":"m 339 1049 l 333 967 q 308 864 328 908 q 243 781 288 819 l 189 822 q 228 871 215 847 q 247 922 242 894 l 174 922 l 182 1049 l 339 1049 m 481 694 q 653 635 594 694 q 713 458 713 575 q 711 417 713 431 l 679 0 l 539 0 l 571 410 q 572 439 572 419 q 436 581 572 581 q 299 529 350 581 q 242 386 249 478 l 211 0 l 71 0 l 125 678 l 263 678 l 254 581 q 348 665 289 635 q 481 694 407 694 z "},"ň":{"ha":800,"x_min":71,"x_max":713,"o":"m 481 694 q 653 635 594 694 q 713 458 713 575 q 711 417 713 431 l 679 0 l 539 0 l 571 410 q 572 439 572 419 q 436 581 572 581 q 299 529 350 581 q 242 386 249 478 l 211 0 l 71 0 l 125 678 l 263 678 l 254 581 q 348 665 289 635 q 481 694 407 694 m 672 1049 l 482 767 l 389 767 l 243 1049 l 361 1049 l 442 861 l 549 1049 l 672 1049 z "},"ņ":{"ha":800,"x_min":71,"x_max":713,"o":"m 481 694 q 653 635 594 694 q 713 458 713 575 q 711 417 713 431 l 679 0 l 539 0 l 571 410 q 572 439 572 419 q 436 581 572 581 q 299 529 350 581 q 242 386 249 478 l 211 0 l 71 0 l 125 678 l 263 678 l 254 581 q 348 665 289 635 q 481 694 407 694 m 446 -97 l 439 -181 q 415 -283 435 -239 q 350 -367 394 -328 l 296 -325 q 353 -225 344 -278 l 279 -225 l 289 -97 l 446 -97 z "},"ṅ":{"ha":800,"x_min":71,"x_max":713,"o":"m 481 694 q 653 635 594 694 q 713 458 713 575 q 711 417 713 431 l 679 0 l 539 0 l 571 410 q 572 439 572 419 q 436 581 572 581 q 299 529 350 581 q 242 386 249 478 l 211 0 l 71 0 l 125 678 l 263 678 l 254 581 q 348 665 289 635 q 481 694 407 694 m 533 981 l 521 835 l 360 835 l 371 981 l 533 981 z "},"ṇ":{"ha":800,"x_min":71,"x_max":713,"o":"m 481 694 q 653 635 594 694 q 713 458 713 575 q 711 417 713 431 l 679 0 l 539 0 l 571 410 q 572 439 572 419 q 436 581 572 581 q 299 529 350 581 q 242 386 249 478 l 211 0 l 71 0 l 125 678 l 263 678 l 254 581 q 348 665 289 635 q 481 694 407 694 m 439 -119 l 428 -260 l 281 -260 l 293 -119 l 439 -119 z "},"ŋ":{"ha":800,"x_min":71,"x_max":713,"o":"m 481 694 q 653 634 594 694 q 713 458 713 574 q 711 417 713 431 l 681 22 q 603 -177 669 -112 q 392 -251 536 -242 l 329 -256 l 325 -151 l 393 -146 q 499 -106 464 -142 q 539 0 533 -71 l 571 410 q 572 439 572 419 q 436 581 572 581 q 299 529 350 581 q 242 386 249 478 l 211 0 l 71 0 l 125 678 l 263 678 l 254 581 q 348 665 289 635 q 481 694 407 694 z "},"ǌ":{"ha":1136,"x_min":71,"x_max":1100,"o":"m 481 694 q 653 635 594 694 q 713 458 713 575 q 711 417 713 431 l 679 0 l 539 0 l 571 410 q 572 439 572 419 q 436 581 572 581 q 299 529 350 581 q 242 386 249 478 l 211 0 l 71 0 l 125 678 l 263 678 l 254 581 q 348 665 289 635 q 481 694 407 694 m 1013 15 q 938 -181 1001 -119 q 728 -251 874 -243 l 663 -256 l 658 -151 l 726 -147 q 831 -108 797 -140 q 871 -6 865 -75 l 925 678 l 1065 678 l 1013 15 m 1100 981 l 1088 835 l 926 835 l 938 981 l 1100 981 z "},"ṉ":{"ha":800,"x_min":71,"x_max":713,"o":"m 481 694 q 653 635 594 694 q 713 458 713 575 q 711 417 713 431 l 679 0 l 539 0 l 571 410 q 572 439 572 419 q 436 581 572 581 q 299 529 350 581 q 242 386 249 478 l 211 0 l 71 0 l 125 678 l 263 678 l 254 581 q 348 665 289 635 q 481 694 407 694 m 153 -143 l 575 -143 l 567 -236 l 146 -236 l 153 -143 z "},"ñ":{"ha":800,"x_min":71,"x_max":713,"o":"m 481 694 q 653 635 594 694 q 713 458 713 575 q 711 417 713 431 l 679 0 l 539 0 l 571 410 q 572 439 572 419 q 436 581 572 581 q 299 529 350 581 q 242 386 249 478 l 211 0 l 71 0 l 125 678 l 263 678 l 254 581 q 348 665 289 635 q 481 694 407 694 m 211 826 q 254 954 215 911 q 353 997 293 997 q 405 986 381 997 q 465 953 429 975 q 488 940 471 950 q 519 924 506 929 q 544 919 533 919 q 592 939 574 919 q 613 993 610 958 l 682 993 q 638 865 676 907 q 540 822 599 822 q 488 833 513 822 q 426 865 464 843 q 384 890 401 882 q 350 899 367 899 q 303 880 321 899 q 281 826 285 861 l 211 826 z "},"o":{"ha":783,"x_min":58,"x_max":726,"o":"m 385 -10 q 213 31 286 -10 q 99 146 139 71 q 58 319 58 221 q 101 518 58 433 q 220 649 143 603 q 399 694 297 694 q 572 653 499 694 q 686 538 646 613 q 726 364 726 464 q 684 166 726 250 q 565 36 642 82 q 385 -10 488 -10 m 386 101 q 533 174 482 101 q 585 368 585 246 q 537 527 585 472 q 400 582 489 582 q 251 510 303 582 q 200 315 200 438 q 248 156 200 210 q 386 101 296 101 z "},"ó":{"ha":783,"x_min":58,"x_max":726,"o":"m 385 -10 q 213 31 286 -10 q 99 146 139 71 q 58 319 58 221 q 101 518 58 433 q 220 649 143 603 q 399 694 297 694 q 572 653 499 694 q 686 538 646 613 q 726 364 726 464 q 684 166 726 250 q 565 36 642 82 q 385 -10 488 -10 m 386 101 q 533 174 482 101 q 585 368 585 246 q 537 527 585 472 q 400 582 489 582 q 251 510 303 582 q 200 315 200 438 q 248 156 200 210 q 386 101 296 101 m 379 767 l 535 1049 l 693 1049 l 472 767 l 379 767 z "},"ŏ":{"ha":783,"x_min":58,"x_max":726,"o":"m 385 -10 q 213 31 286 -10 q 99 146 139 71 q 58 319 58 221 q 101 518 58 433 q 220 649 143 603 q 399 694 297 694 q 572 653 499 694 q 686 538 646 613 q 726 364 726 464 q 684 166 726 250 q 565 36 642 82 q 385 -10 488 -10 m 386 101 q 533 174 482 101 q 585 368 585 246 q 537 527 585 472 q 400 582 489 582 q 251 510 303 582 q 200 315 200 438 q 248 156 200 210 q 386 101 296 101 m 432 806 q 291 852 353 806 q 206 989 229 899 l 286 1022 q 439 903 333 903 q 528 931 488 903 q 604 1022 569 958 l 681 989 q 581 851 647 896 q 432 806 514 806 z "},"ô":{"ha":783,"x_min":58,"x_max":726,"o":"m 385 -10 q 213 31 286 -10 q 99 146 139 71 q 58 319 58 221 q 101 518 58 433 q 220 649 143 603 q 399 694 297 694 q 572 653 499 694 q 686 538 646 613 q 726 364 726 464 q 684 166 726 250 q 565 36 642 82 q 385 -10 488 -10 m 386 101 q 533 174 482 101 q 585 368 585 246 q 537 527 585 472 q 400 582 489 582 q 251 510 303 582 q 200 315 200 438 q 248 156 200 210 q 386 101 296 101 m 211 767 l 401 1049 l 494 1049 l 640 767 l 522 767 l 442 954 l 335 767 l 211 767 z "},"ố":{"ha":783,"x_min":58,"x_max":831,"o":"m 385 -10 q 213 31 286 -10 q 99 146 139 71 q 58 319 58 221 q 101 518 58 433 q 220 649 143 603 q 399 694 297 694 q 572 653 499 694 q 686 538 646 613 q 726 364 726 464 q 684 166 726 250 q 565 36 642 82 q 385 -10 488 -10 m 386 101 q 533 174 482 101 q 585 368 585 246 q 537 527 585 472 q 400 582 489 582 q 251 510 303 582 q 200 315 200 438 q 248 156 200 210 q 386 101 296 101 m 558 911 l 689 1108 l 831 1108 l 636 911 l 558 911 m 211 767 l 397 968 l 486 968 l 640 767 l 525 767 l 439 893 l 329 767 l 211 767 z "},"ộ":{"ha":783,"x_min":58,"x_max":726,"o":"m 385 -10 q 213 31 286 -10 q 99 146 139 71 q 58 319 58 221 q 101 518 58 433 q 220 649 143 603 q 399 694 297 694 q 572 653 499 694 q 686 538 646 613 q 726 364 726 464 q 684 166 726 250 q 565 36 642 82 q 385 -10 488 -10 m 386 101 q 533 174 482 101 q 585 368 585 246 q 537 527 585 472 q 400 582 489 582 q 251 510 303 582 q 200 315 200 438 q 248 156 200 210 q 386 101 296 101 m 429 -119 l 418 -260 l 271 -260 l 283 -119 l 429 -119 m 211 767 l 401 1049 l 494 1049 l 640 767 l 522 767 l 442 954 l 335 767 l 211 767 z "},"ồ":{"ha":783,"x_min":58,"x_max":726,"o":"m 385 -10 q 213 31 286 -10 q 99 146 139 71 q 58 319 58 221 q 101 518 58 433 q 220 649 143 603 q 399 694 297 694 q 572 653 499 694 q 686 538 646 613 q 726 364 726 464 q 684 166 726 250 q 565 36 642 82 q 385 -10 488 -10 m 386 101 q 533 174 482 101 q 585 368 585 246 q 537 527 585 472 q 400 582 489 582 q 251 510 303 582 q 200 315 200 438 q 248 156 200 210 q 386 101 296 101 m 476 1108 l 603 1108 l 696 911 l 617 911 l 476 1108 m 397 968 l 486 968 l 640 767 l 525 767 l 439 893 l 329 767 l 211 767 l 397 968 z "},"ổ":{"ha":783,"x_min":58,"x_max":758,"o":"m 385 -10 q 213 31 286 -10 q 99 146 139 71 q 58 319 58 221 q 101 518 58 433 q 220 649 143 603 q 399 694 297 694 q 572 653 499 694 q 686 538 646 613 q 726 364 726 464 q 684 166 726 250 q 565 36 642 82 q 385 -10 488 -10 m 386 101 q 533 174 482 101 q 585 368 585 246 q 537 527 585 472 q 400 582 489 582 q 251 510 303 582 q 200 315 200 438 q 248 156 200 210 q 386 101 296 101 m 558 936 q 576 974 560 961 q 625 1001 593 988 q 650 1014 642 1008 q 658 1026 658 1019 q 647 1041 658 1036 q 614 1046 635 1046 q 521 1031 572 1046 l 506 1093 q 625 1115 561 1115 q 723 1094 688 1115 q 758 1038 758 1072 q 741 993 758 1008 q 690 964 724 978 q 654 946 667 954 q 640 924 642 938 l 639 913 l 557 913 l 558 936 m 397 968 l 486 968 l 640 767 l 525 767 l 439 893 l 329 767 l 211 767 l 397 968 z "},"ỗ":{"ha":783,"x_min":58,"x_max":726,"o":"m 385 -10 q 213 31 286 -10 q 99 146 139 71 q 58 319 58 221 q 101 518 58 433 q 220 649 143 603 q 399 694 297 694 q 572 653 499 694 q 686 538 646 613 q 726 364 726 464 q 684 166 726 250 q 565 36 642 82 q 385 -10 488 -10 m 386 101 q 533 174 482 101 q 585 368 585 246 q 537 527 585 472 q 400 582 489 582 q 251 510 303 582 q 200 315 200 438 q 248 156 200 210 q 386 101 296 101 m 214 990 q 257 1091 217 1053 q 354 1129 297 1129 q 409 1121 383 1129 q 468 1097 435 1113 q 514 1079 496 1085 q 549 1074 532 1074 q 594 1088 576 1074 q 613 1129 611 1103 l 683 1129 q 641 1028 682 1065 q 543 990 600 990 q 494 997 517 990 q 453 1011 472 1004 q 429 1021 435 1018 q 349 1046 379 1046 q 305 1031 322 1046 q 285 990 288 1015 l 214 990 m 397 968 l 486 968 l 640 767 l 525 767 l 439 893 l 329 767 l 211 767 l 397 968 z "},"ȍ":{"ha":783,"x_min":58,"x_max":726,"o":"m 385 -10 q 213 31 286 -10 q 99 146 139 71 q 58 319 58 221 q 101 518 58 433 q 220 649 143 603 q 399 694 297 694 q 572 653 499 694 q 686 538 646 613 q 726 364 726 464 q 684 166 726 250 q 565 36 642 82 q 385 -10 488 -10 m 386 101 q 533 174 482 101 q 585 368 585 246 q 537 527 585 472 q 400 582 489 582 q 251 510 303 582 q 200 315 200 438 q 248 156 200 210 q 386 101 296 101 m 221 1049 l 333 1049 l 371 767 l 306 767 l 221 1049 m 396 1049 l 508 1049 l 546 767 l 481 767 l 396 1049 z "},"ö":{"ha":783,"x_min":58,"x_max":726,"o":"m 385 -10 q 213 31 286 -10 q 99 146 139 71 q 58 319 58 221 q 101 518 58 433 q 220 649 143 603 q 399 694 297 694 q 572 653 499 694 q 686 538 646 613 q 726 364 726 464 q 684 166 726 250 q 565 36 642 82 q 385 -10 488 -10 m 386 101 q 533 174 482 101 q 585 368 585 246 q 537 527 585 472 q 400 582 489 582 q 251 510 303 582 q 200 315 200 438 q 248 156 200 210 q 386 101 296 101 m 392 976 l 381 839 l 238 839 l 247 976 l 392 976 m 636 976 l 626 839 l 482 839 l 493 976 l 636 976 z "},"ȫ":{"ha":783,"x_min":58,"x_max":726,"o":"m 385 -10 q 213 31 286 -10 q 99 146 139 71 q 58 319 58 221 q 101 518 58 433 q 220 649 143 603 q 399 694 297 694 q 572 653 499 694 q 686 538 646 613 q 726 364 726 464 q 684 166 726 250 q 565 36 642 82 q 385 -10 488 -10 m 386 101 q 533 174 482 101 q 585 368 585 246 q 537 527 585 472 q 400 582 489 582 q 251 510 303 582 q 200 315 200 438 q 248 156 200 210 q 386 101 296 101 m 392 976 l 381 839 l 238 839 l 247 976 l 392 976 m 636 976 l 626 839 l 482 839 l 493 976 l 636 976 m 251 1222 l 672 1222 l 664 1125 l 243 1125 l 251 1222 z "},"ȱ":{"ha":783,"x_min":58,"x_max":726,"o":"m 385 -10 q 213 31 286 -10 q 99 146 139 71 q 58 319 58 221 q 101 518 58 433 q 220 649 143 603 q 399 694 297 694 q 572 653 499 694 q 686 538 646 613 q 726 364 726 464 q 684 166 726 250 q 565 36 642 82 q 385 -10 488 -10 m 386 101 q 533 174 482 101 q 585 368 585 246 q 537 527 585 472 q 400 582 489 582 q 251 510 303 582 q 200 315 200 438 q 248 156 200 210 q 386 101 296 101 m 524 981 l 511 835 l 350 835 l 361 981 l 524 981 m 251 1222 l 672 1222 l 664 1125 l 243 1125 l 251 1222 z "},"ọ":{"ha":783,"x_min":58,"x_max":726,"o":"m 385 -10 q 213 31 286 -10 q 99 146 139 71 q 58 319 58 221 q 101 518 58 433 q 220 649 143 603 q 399 694 297 694 q 572 653 499 694 q 686 538 646 613 q 726 364 726 464 q 684 166 726 250 q 565 36 642 82 q 385 -10 488 -10 m 386 101 q 533 174 482 101 q 585 368 585 246 q 537 527 585 472 q 400 582 489 582 q 251 510 303 582 q 200 315 200 438 q 248 156 200 210 q 386 101 296 101 m 429 -119 l 418 -260 l 271 -260 l 283 -119 l 429 -119 z "},"ò":{"ha":783,"x_min":58,"x_max":726,"o":"m 385 -10 q 213 31 286 -10 q 99 146 139 71 q 58 319 58 221 q 101 518 58 433 q 220 649 143 603 q 399 694 297 694 q 572 653 499 694 q 686 538 646 613 q 726 364 726 464 q 684 166 726 250 q 565 36 642 82 q 385 -10 488 -10 m 386 101 q 533 174 482 101 q 585 368 585 246 q 537 527 585 472 q 400 582 489 582 q 251 510 303 582 q 200 315 200 438 q 248 156 200 210 q 386 101 296 101 m 211 1049 l 353 1049 l 472 767 l 379 767 l 211 1049 z "},"ỏ":{"ha":783,"x_min":58,"x_max":726,"o":"m 385 -10 q 213 31 286 -10 q 99 146 139 71 q 58 319 58 221 q 101 518 58 433 q 220 649 143 603 q 399 694 297 694 q 572 653 499 694 q 686 538 646 613 q 726 364 726 464 q 684 166 726 250 q 565 36 642 82 q 385 -10 488 -10 m 386 101 q 533 174 482 101 q 585 368 585 246 q 537 527 585 472 q 400 582 489 582 q 251 510 303 582 q 200 315 200 438 q 248 156 200 210 q 386 101 296 101 m 469 767 l 388 767 l 390 803 q 408 852 392 832 q 451 896 424 872 q 480 924 472 914 q 488 946 488 933 q 436 978 488 978 q 357 963 403 978 l 339 1032 q 458 1053 392 1053 q 556 1027 519 1053 q 592 961 592 1001 q 574 908 592 929 q 525 863 557 886 q 485 826 497 840 q 471 792 472 813 l 469 767 z "},"ơ":{"ha":783,"x_min":58,"x_max":778,"o":"m 775 814 q 731 685 769 738 q 626 614 693 633 q 701 504 675 569 q 726 364 726 439 q 684 166 726 250 q 565 36 642 82 q 385 -10 488 -10 q 213 31 286 -10 q 99 146 139 71 q 58 319 58 221 q 101 518 58 433 q 221 649 143 603 q 400 694 299 694 q 481 689 433 694 q 522 685 506 685 q 615 718 582 685 q 654 833 647 751 l 656 856 l 778 856 l 775 814 m 386 101 q 533 174 482 101 q 585 368 585 246 q 537 527 585 472 q 400 582 489 582 q 251 510 303 582 q 200 315 200 438 q 248 156 200 210 q 386 101 296 101 z "},"ớ":{"ha":783,"x_min":58,"x_max":778,"o":"m 775 814 q 731 685 769 738 q 626 614 693 633 q 701 504 675 569 q 726 364 726 439 q 684 166 726 250 q 565 36 642 82 q 385 -10 488 -10 q 213 31 286 -10 q 99 146 139 71 q 58 319 58 221 q 101 518 58 433 q 221 649 143 603 q 400 694 299 694 q 481 689 433 694 q 522 685 506 685 q 615 718 582 685 q 654 833 647 751 l 656 856 l 778 856 l 775 814 m 386 101 q 533 174 482 101 q 585 368 585 246 q 537 527 585 472 q 400 582 489 582 q 251 510 303 582 q 200 315 200 438 q 248 156 200 210 q 386 101 296 101 m 379 767 l 535 1049 l 693 1049 l 472 767 l 379 767 z "},"ợ":{"ha":783,"x_min":58,"x_max":778,"o":"m 775 814 q 731 685 769 738 q 626 614 693 633 q 701 504 675 569 q 726 364 726 439 q 684 166 726 250 q 565 36 642 82 q 385 -10 488 -10 q 213 31 286 -10 q 99 146 139 71 q 58 319 58 221 q 101 518 58 433 q 221 649 143 603 q 400 694 299 694 q 481 689 433 694 q 522 685 506 685 q 615 718 582 685 q 654 833 647 751 l 656 856 l 778 856 l 775 814 m 386 101 q 533 174 482 101 q 585 368 585 246 q 537 527 585 472 q 400 582 489 582 q 251 510 303 582 q 200 315 200 438 q 248 156 200 210 q 386 101 296 101 m 429 -119 l 418 -260 l 271 -260 l 283 -119 l 429 -119 z "},"ờ":{"ha":783,"x_min":58,"x_max":778,"o":"m 775 814 q 731 685 769 738 q 626 614 693 633 q 701 504 675 569 q 726 364 726 439 q 684 166 726 250 q 565 36 642 82 q 385 -10 488 -10 q 213 31 286 -10 q 99 146 139 71 q 58 319 58 221 q 101 518 58 433 q 221 649 143 603 q 400 694 299 694 q 481 689 433 694 q 522 685 506 685 q 615 718 582 685 q 654 833 647 751 l 656 856 l 778 856 l 775 814 m 386 101 q 533 174 482 101 q 585 368 585 246 q 537 527 585 472 q 400 582 489 582 q 251 510 303 582 q 200 315 200 438 q 248 156 200 210 q 386 101 296 101 m 211 1049 l 353 1049 l 472 767 l 379 767 l 211 1049 z "},"ở":{"ha":783,"x_min":58,"x_max":778,"o":"m 775 814 q 731 685 769 738 q 626 614 693 633 q 701 504 675 569 q 726 364 726 439 q 684 166 726 250 q 565 36 642 82 q 385 -10 488 -10 q 213 31 286 -10 q 99 146 139 71 q 58 319 58 221 q 101 518 58 433 q 221 649 143 603 q 400 694 299 694 q 481 689 433 694 q 522 685 506 685 q 615 718 582 685 q 654 833 647 751 l 656 856 l 778 856 l 775 814 m 386 101 q 533 174 482 101 q 585 368 585 246 q 537 527 585 472 q 400 582 489 582 q 251 510 303 582 q 200 315 200 438 q 248 156 200 210 q 386 101 296 101 m 469 767 l 388 767 l 390 803 q 408 852 392 832 q 451 896 424 872 q 480 924 472 914 q 488 946 488 933 q 436 978 488 978 q 357 963 403 978 l 339 1032 q 458 1053 392 1053 q 556 1027 519 1053 q 592 961 592 1001 q 574 908 592 929 q 525 863 557 886 q 485 826 497 840 q 471 792 472 813 l 469 767 z "},"ỡ":{"ha":783,"x_min":58,"x_max":778,"o":"m 775 814 q 731 685 769 738 q 626 614 693 633 q 701 504 675 569 q 726 364 726 439 q 684 166 726 250 q 565 36 642 82 q 385 -10 488 -10 q 213 31 286 -10 q 99 146 139 71 q 58 319 58 221 q 101 518 58 433 q 221 649 143 603 q 400 694 299 694 q 481 689 433 694 q 522 685 506 685 q 615 718 582 685 q 654 833 647 751 l 656 856 l 778 856 l 775 814 m 386 101 q 533 174 482 101 q 585 368 585 246 q 537 527 585 472 q 400 582 489 582 q 251 510 303 582 q 200 315 200 438 q 248 156 200 210 q 386 101 296 101 m 201 826 q 244 954 206 911 q 343 997 283 997 q 395 986 371 997 q 456 953 419 975 q 478 940 461 950 q 510 924 496 929 q 535 919 524 919 q 582 939 564 919 q 603 993 600 958 l 672 993 q 628 865 667 907 q 531 822 589 822 q 478 833 503 822 q 417 865 454 843 q 374 890 392 882 q 340 899 357 899 q 293 880 311 899 q 271 826 275 861 l 201 826 z "},"ő":{"ha":783,"x_min":58,"x_max":726,"o":"m 385 -10 q 213 31 286 -10 q 99 146 139 71 q 58 319 58 221 q 101 518 58 433 q 220 649 143 603 q 399 694 297 694 q 572 653 499 694 q 686 538 646 613 q 726 364 726 464 q 684 166 726 250 q 565 36 642 82 q 385 -10 488 -10 m 386 101 q 533 174 482 101 q 585 368 585 246 q 537 527 585 472 q 400 582 489 582 q 251 510 303 582 q 200 315 200 438 q 248 156 200 210 q 386 101 296 101 m 306 767 l 383 1049 l 504 1049 l 371 767 l 306 767 m 481 767 l 558 1049 l 679 1049 l 546 767 l 481 767 z "},"ȏ":{"ha":783,"x_min":58,"x_max":726,"o":"m 385 -10 q 213 31 286 -10 q 99 146 139 71 q 58 319 58 221 q 101 518 58 433 q 220 649 143 603 q 399 694 297 694 q 572 653 499 694 q 686 538 646 613 q 726 364 726 464 q 684 166 726 250 q 565 36 642 82 q 385 -10 488 -10 m 386 101 q 533 174 482 101 q 585 368 585 246 q 537 527 585 472 q 400 582 489 582 q 251 510 303 582 q 200 315 200 438 q 248 156 200 210 q 386 101 296 101 m 442 1018 q 583 972 521 1018 q 668 836 644 926 l 588 803 q 435 922 540 922 q 345 894 386 922 q 269 803 304 867 l 193 835 q 293 973 226 928 q 442 1018 360 1018 z "},"ō":{"ha":783,"x_min":58,"x_max":726,"o":"m 385 -10 q 213 31 286 -10 q 99 146 139 71 q 58 319 58 221 q 101 518 58 433 q 220 649 143 603 q 399 694 297 694 q 572 653 499 694 q 686 538 646 613 q 726 364 726 464 q 684 166 726 250 q 565 36 642 82 q 385 -10 488 -10 m 386 101 q 533 174 482 101 q 585 368 585 246 q 537 527 585 472 q 400 582 489 582 q 251 510 303 582 q 200 315 200 438 q 248 156 200 210 q 386 101 296 101 m 231 956 l 651 956 l 643 858 l 222 858 l 231 956 z "},"ṓ":{"ha":783,"x_min":58,"x_max":726,"o":"m 385 -10 q 213 31 286 -10 q 99 146 139 71 q 58 319 58 221 q 101 518 58 433 q 220 649 143 603 q 399 694 297 694 q 572 653 499 694 q 686 538 646 613 q 726 364 726 464 q 684 166 726 250 q 565 36 642 82 q 385 -10 488 -10 m 386 101 q 533 174 482 101 q 585 368 585 246 q 537 527 585 472 q 400 582 489 582 q 251 510 303 582 q 200 315 200 438 q 248 156 200 210 q 386 101 296 101 m 231 956 l 651 956 l 643 858 l 222 858 l 231 956 m 400 1033 l 556 1315 l 714 1315 l 493 1033 l 400 1033 z "},"ṑ":{"ha":783,"x_min":58,"x_max":726,"o":"m 385 -10 q 213 31 286 -10 q 99 146 139 71 q 58 319 58 221 q 101 518 58 433 q 220 649 143 603 q 399 694 297 694 q 572 653 499 694 q 686 538 646 613 q 726 364 726 464 q 684 166 726 250 q 565 36 642 82 q 385 -10 488 -10 m 386 101 q 533 174 482 101 q 585 368 585 246 q 537 527 585 472 q 400 582 489 582 q 251 510 303 582 q 200 315 200 438 q 248 156 200 210 q 386 101 296 101 m 231 956 l 651 956 l 643 858 l 222 858 l 231 956 m 232 1315 l 374 1315 l 493 1033 l 400 1033 l 232 1315 z "},"ǫ":{"ha":783,"x_min":58,"x_max":726,"o":"m 488 4 q 400 -40 428 -14 q 372 -107 372 -67 q 394 -165 372 -144 q 453 -186 415 -186 q 535 -164 490 -186 l 551 -239 q 431 -269 494 -269 q 313 -231 357 -269 q 269 -129 269 -192 q 326 -6 269 -53 q 131 98 203 11 q 58 319 58 185 q 101 518 58 433 q 220 649 143 603 q 399 694 297 694 q 572 653 497 694 q 686 538 646 613 q 726 364 726 463 q 660 124 726 213 q 488 4 594 35 m 200 315 q 248 156 200 210 q 386 101 296 101 q 533 174 482 101 q 585 368 585 246 q 537 527 585 472 q 400 582 489 582 q 251 510 303 582 q 200 315 200 438 z "},"ø":{"ha":783,"x_min":58,"x_max":726,"o":"m 625 617 q 700 508 674 572 q 726 364 726 443 q 684 166 726 250 q 565 36 642 82 q 385 -10 488 -10 q 232 21 301 -10 l 171 -71 l 99 -25 l 160 68 q 85 176 111 111 q 58 319 58 240 q 101 518 58 433 q 220 649 143 603 q 399 694 297 694 q 554 663 486 694 l 614 754 l 686 710 l 625 617 m 199 315 q 231 175 199 228 l 489 565 q 400 583 453 583 q 251 510 303 583 q 199 315 199 438 m 386 100 q 535 172 483 100 q 588 368 588 244 q 553 508 588 457 l 296 118 q 386 100 332 100 z "},"ǿ":{"ha":783,"x_min":58,"x_max":726,"o":"m 625 617 q 700 508 674 572 q 726 364 726 443 q 684 166 726 250 q 565 36 642 82 q 385 -10 488 -10 q 232 21 301 -10 l 171 -71 l 99 -25 l 160 68 q 85 176 111 111 q 58 319 58 240 q 101 518 58 433 q 220 649 143 603 q 399 694 297 694 q 554 663 486 694 l 614 754 l 686 710 l 625 617 m 199 315 q 231 175 199 228 l 489 565 q 400 583 453 583 q 251 510 303 583 q 199 315 199 438 m 386 100 q 535 172 483 100 q 588 368 588 244 q 553 508 588 457 l 296 118 q 386 100 332 100 m 379 767 l 535 1049 l 693 1049 l 472 767 l 379 767 z "},"õ":{"ha":783,"x_min":58,"x_max":726,"o":"m 385 -10 q 213 31 286 -10 q 99 146 139 71 q 58 319 58 221 q 101 518 58 433 q 220 649 143 603 q 399 694 297 694 q 572 653 499 694 q 686 538 646 613 q 726 364 726 464 q 684 166 726 250 q 565 36 642 82 q 385 -10 488 -10 m 386 101 q 533 174 482 101 q 585 368 585 246 q 537 527 585 472 q 400 582 489 582 q 251 510 303 582 q 200 315 200 438 q 248 156 200 210 q 386 101 296 101 m 201 826 q 244 954 206 911 q 343 997 283 997 q 395 986 371 997 q 456 953 419 975 q 478 940 461 950 q 510 924 496 929 q 535 919 524 919 q 582 939 564 919 q 603 993 600 958 l 672 993 q 628 865 667 907 q 531 822 589 822 q 478 833 503 822 q 417 865 454 843 q 374 890 392 882 q 340 899 357 899 q 293 880 311 899 q 271 826 275 861 l 201 826 z "},"ṍ":{"ha":783,"x_min":58,"x_max":726,"o":"m 385 -10 q 213 31 286 -10 q 99 146 139 71 q 58 319 58 221 q 101 518 58 433 q 220 649 143 603 q 399 694 297 694 q 572 653 499 694 q 686 538 646 613 q 726 364 726 464 q 684 166 726 250 q 565 36 642 82 q 385 -10 488 -10 m 386 101 q 533 174 482 101 q 585 368 585 246 q 537 527 585 472 q 400 582 489 582 q 251 510 303 582 q 200 315 200 438 q 248 156 200 210 q 386 101 296 101 m 201 826 q 244 954 206 911 q 343 997 283 997 q 395 986 371 997 q 456 953 419 975 q 478 940 461 950 q 510 924 496 929 q 535 919 524 919 q 582 939 564 919 q 603 993 600 958 l 672 993 q 628 865 667 907 q 531 822 589 822 q 478 833 503 822 q 417 865 454 843 q 374 890 392 882 q 340 899 357 899 q 293 880 311 899 q 271 826 275 861 l 201 826 m 400 1033 l 556 1315 l 714 1315 l 493 1033 l 400 1033 z "},"ṏ":{"ha":783,"x_min":58,"x_max":726,"o":"m 385 -10 q 213 31 286 -10 q 99 146 139 71 q 58 319 58 221 q 101 518 58 433 q 220 649 143 603 q 399 694 297 694 q 572 653 499 694 q 686 538 646 613 q 726 364 726 464 q 684 166 726 250 q 565 36 642 82 q 385 -10 488 -10 m 386 101 q 533 174 482 101 q 585 368 585 246 q 537 527 585 472 q 400 582 489 582 q 251 510 303 582 q 200 315 200 438 q 248 156 200 210 q 386 101 296 101 m 201 826 q 244 954 206 911 q 343 997 283 997 q 395 986 371 997 q 456 953 419 975 q 478 940 461 950 q 510 924 496 929 q 535 919 524 919 q 582 939 564 919 q 603 993 600 958 l 672 993 q 628 865 667 907 q 531 822 589 822 q 478 833 503 822 q 417 865 454 843 q 374 890 392 882 q 340 899 357 899 q 293 880 311 899 q 271 826 275 861 l 201 826 m 413 1243 l 401 1106 l 258 1106 l 268 1243 l 413 1243 m 657 1243 l 647 1106 l 503 1106 l 514 1243 l 657 1243 z "},"ȭ":{"ha":783,"x_min":58,"x_max":726,"o":"m 385 -10 q 213 31 286 -10 q 99 146 139 71 q 58 319 58 221 q 101 518 58 433 q 220 649 143 603 q 399 694 297 694 q 572 653 499 694 q 686 538 646 613 q 726 364 726 464 q 684 166 726 250 q 565 36 642 82 q 385 -10 488 -10 m 386 101 q 533 174 482 101 q 585 368 585 246 q 537 527 585 472 q 400 582 489 582 q 251 510 303 582 q 200 315 200 438 q 248 156 200 210 q 386 101 296 101 m 201 826 q 244 954 206 911 q 343 997 283 997 q 395 986 371 997 q 456 953 419 975 q 478 940 461 950 q 510 924 496 929 q 535 919 524 919 q 582 939 564 919 q 603 993 600 958 l 672 993 q 628 865 667 907 q 531 822 589 822 q 478 833 503 822 q 417 865 454 843 q 374 890 392 882 q 340 899 357 899 q 293 880 311 899 q 271 826 275 861 l 201 826 m 251 1222 l 672 1222 l 664 1125 l 243 1125 l 251 1222 z "},"œ":{"ha":1253,"x_min":58,"x_max":1201,"o":"m 924 694 q 1126 615 1051 694 q 1201 383 1201 535 q 1197 315 1201 351 l 722 315 q 775 156 724 213 q 925 100 826 100 q 1031 119 978 100 q 1132 175 1085 138 l 1167 76 q 1056 14 1125 38 q 918 -10 986 -10 q 755 28 824 -10 q 647 133 686 65 q 539 28 607 65 q 381 -10 471 -10 q 212 31 285 -10 q 99 146 139 71 q 58 319 58 221 q 101 517 58 432 q 219 649 143 603 q 396 694 296 694 q 558 658 492 694 q 661 554 625 622 q 769 658 703 621 q 924 694 836 694 m 926 592 q 792 542 843 592 q 728 396 742 492 l 1081 396 q 1041 542 1082 493 q 926 592 1000 592 m 386 101 q 531 174 481 101 q 582 368 582 246 q 535 527 582 472 q 400 582 488 582 q 251 510 303 582 q 200 315 200 438 q 248 156 200 210 q 386 101 296 101 z "},"p":{"ha":821,"x_min":51,"x_max":764,"o":"m 475 694 q 626 654 560 694 q 728 540 692 614 q 764 367 764 465 q 724 170 764 256 q 610 38 683 85 q 443 -10 538 -10 q 308 22 365 -10 q 221 115 251 54 l 192 -250 l 51 -250 l 124 678 l 264 678 l 256 582 q 348 665 290 635 q 475 694 406 694 m 424 101 q 569 171 517 101 q 621 363 621 240 q 572 525 621 468 q 433 582 524 582 q 289 512 342 582 q 236 321 236 442 q 285 158 236 214 q 424 101 333 101 z "},"þ":{"ha":821,"x_min":51,"x_max":764,"o":"m 475 694 q 626 654 560 694 q 728 540 692 614 q 764 367 764 465 q 724 170 764 256 q 610 38 683 85 q 443 -10 538 -10 q 308 22 365 -10 q 221 115 251 54 l 192 -250 l 51 -250 l 149 979 l 289 979 l 257 585 q 349 665 292 636 q 475 694 407 694 m 424 101 q 569 171 517 101 q 621 363 621 240 q 572 525 621 468 q 433 582 524 582 q 289 512 342 582 q 236 321 236 442 q 285 158 236 214 q 424 101 333 101 z "},"q":{"ha":821,"x_min":58,"x_max":749,"o":"m 749 678 l 675 -250 l 535 -250 l 563 97 q 471 18 528 46 q 347 -10 414 -10 q 196 30 261 -10 q 94 144 131 69 q 58 317 58 218 q 99 514 58 428 q 211 647 139 600 q 378 694 283 694 q 514 661 456 694 q 601 568 572 628 l 610 678 l 749 678 m 388 101 q 532 172 479 101 q 585 363 585 242 q 537 526 585 471 q 399 582 489 582 q 253 513 306 582 q 200 321 200 443 q 249 159 200 217 q 388 101 299 101 z "},"r":{"ha":508,"x_min":71,"x_max":529,"o":"m 529 694 l 529 576 l 438 567 q 295 511 342 557 q 242 376 249 465 l 211 0 l 71 0 l 125 676 l 260 676 l 251 572 q 346 656 288 628 q 488 692 404 685 l 529 694 z "},"ŕ":{"ha":508,"x_min":71,"x_max":607,"o":"m 529 694 l 529 576 l 438 567 q 295 511 342 557 q 242 376 249 465 l 211 0 l 71 0 l 125 676 l 260 676 l 251 572 q 346 656 288 628 q 488 692 404 685 l 529 694 m 293 767 l 449 1049 l 607 1049 l 386 767 l 293 767 z "},"ř":{"ha":508,"x_min":71,"x_max":576,"o":"m 529 694 l 529 576 l 438 567 q 295 511 342 557 q 242 376 249 465 l 211 0 l 71 0 l 125 676 l 260 676 l 251 572 q 346 656 288 628 q 488 692 404 685 l 529 694 m 576 1049 l 386 767 l 293 767 l 147 1049 l 265 1049 l 346 861 l 453 1049 l 576 1049 z "},"ŗ":{"ha":508,"x_min":46,"x_max":529,"o":"m 529 694 l 529 576 l 438 567 q 295 511 342 557 q 242 376 249 465 l 211 0 l 71 0 l 125 676 l 260 676 l 251 572 q 346 656 288 628 q 488 692 404 685 l 529 694 m 213 -97 l 206 -181 q 181 -283 201 -239 q 117 -367 161 -328 l 63 -325 q 119 -225 111 -278 l 46 -225 l 56 -97 l 213 -97 z "},"ȑ":{"ha":508,"x_min":71,"x_max":529,"o":"m 529 694 l 529 576 l 438 567 q 295 511 342 557 q 242 376 249 465 l 211 0 l 71 0 l 125 676 l 260 676 l 251 572 q 346 656 288 628 q 488 692 404 685 l 529 694 m 135 1049 l 247 1049 l 285 767 l 219 767 l 135 1049 m 310 1049 l 422 1049 l 460 767 l 394 767 l 310 1049 z "},"ṛ":{"ha":508,"x_min":47,"x_max":529,"o":"m 529 694 l 529 576 l 438 567 q 295 511 342 557 q 242 376 249 465 l 211 0 l 71 0 l 125 676 l 260 676 l 251 572 q 346 656 288 628 q 488 692 404 685 l 529 694 m 206 -119 l 194 -260 l 47 -260 l 60 -119 l 206 -119 z "},"ȓ":{"ha":508,"x_min":71,"x_max":582,"o":"m 529 694 l 529 576 l 438 567 q 295 511 342 557 q 242 376 249 465 l 211 0 l 71 0 l 125 676 l 260 676 l 251 572 q 346 656 288 628 q 488 692 404 685 l 529 694 m 356 1018 q 497 972 435 1018 q 582 836 558 926 l 501 803 q 349 922 454 922 q 259 894 300 922 q 183 803 218 867 l 107 835 q 207 973 140 928 q 356 1018 274 1018 z "},"ṟ":{"ha":508,"x_min":-87,"x_max":529,"o":"m 529 694 l 529 576 l 438 567 q 295 511 342 557 q 242 376 249 465 l 211 0 l 71 0 l 125 676 l 260 676 l 251 572 q 346 656 288 628 q 488 692 404 685 l 529 694 m -81 -143 l 342 -143 l 333 -236 l -87 -236 l -81 -143 z "},"s":{"ha":669,"x_min":35,"x_max":619,"o":"m 319 -10 q 35 76 156 -10 l 85 178 q 322 97 193 97 q 431 119 394 97 q 468 183 468 142 q 431 245 468 224 q 314 289 393 267 q 197 329 242 310 q 121 387 153 349 q 89 486 89 425 q 165 638 89 581 q 365 694 240 694 q 507 671 439 694 q 619 607 575 647 l 569 508 q 365 588 472 588 q 258 564 296 588 q 221 494 221 540 q 258 433 221 454 q 374 390 294 413 q 490 350 446 369 q 567 292 535 331 q 599 192 599 254 q 523 44 599 97 q 319 -10 447 -10 z "},"ś":{"ha":669,"x_min":35,"x_max":649,"o":"m 319 -10 q 35 76 156 -10 l 85 178 q 322 97 193 97 q 431 119 394 97 q 468 183 468 142 q 431 245 468 224 q 314 289 393 267 q 197 329 242 310 q 121 387 153 349 q 89 486 89 425 q 165 638 89 581 q 365 694 240 694 q 507 671 439 694 q 619 607 575 647 l 569 508 q 365 588 472 588 q 258 564 296 588 q 221 494 221 540 q 258 433 221 454 q 374 390 294 413 q 490 350 446 369 q 567 292 535 331 q 599 192 599 254 q 523 44 599 97 q 319 -10 447 -10 m 335 767 l 490 1049 l 649 1049 l 428 767 l 335 767 z "},"ṥ":{"ha":669,"x_min":35,"x_max":660,"o":"m 319 -10 q 35 76 156 -10 l 85 178 q 322 97 193 97 q 431 119 394 97 q 468 183 468 142 q 431 245 468 224 q 314 289 393 267 q 197 329 242 310 q 121 387 153 349 q 89 486 89 425 q 165 638 89 581 q 365 694 240 694 q 507 671 439 694 q 619 607 575 647 l 569 508 q 365 588 472 588 q 258 564 296 588 q 221 494 221 540 q 258 433 221 454 q 374 390 294 413 q 490 350 446 369 q 567 292 535 331 q 599 192 599 254 q 523 44 599 97 q 319 -10 447 -10 m 346 767 l 501 1049 l 660 1049 l 439 767 l 346 767 m 344 1047 l 332 901 l 171 901 l 182 1047 l 344 1047 z "},"š":{"ha":669,"x_min":35,"x_max":619,"o":"m 319 -10 q 35 76 156 -10 l 85 178 q 322 97 193 97 q 431 119 394 97 q 468 183 468 142 q 431 245 468 224 q 314 289 393 267 q 197 329 242 310 q 121 387 153 349 q 89 486 89 425 q 165 638 89 581 q 365 694 240 694 q 507 671 439 694 q 619 607 575 647 l 569 508 q 365 588 472 588 q 258 564 296 588 q 221 494 221 540 q 258 433 221 454 q 374 390 294 413 q 490 350 446 369 q 567 292 535 331 q 599 192 599 254 q 523 44 599 97 q 319 -10 447 -10 m 618 1049 l 428 767 l 335 767 l 189 1049 l 307 1049 l 388 861 l 494 1049 l 618 1049 z "},"ṧ":{"ha":669,"x_min":35,"x_max":619,"o":"m 319 -10 q 35 76 156 -10 l 85 178 q 322 97 193 97 q 431 119 394 97 q 468 183 468 142 q 431 245 468 224 q 314 289 393 267 q 197 329 242 310 q 121 387 153 349 q 89 486 89 425 q 165 638 89 581 q 365 694 240 694 q 507 671 439 694 q 619 607 575 647 l 569 508 q 365 588 472 588 q 258 564 296 588 q 221 494 221 540 q 258 433 221 454 q 374 390 294 413 q 490 350 446 369 q 567 292 535 331 q 599 192 599 254 q 523 44 599 97 q 319 -10 447 -10 m 618 1049 l 428 767 l 335 767 l 189 1049 l 307 1049 l 388 861 l 494 1049 l 618 1049 m 500 1247 l 488 1101 l 326 1101 l 338 1247 l 500 1247 z "},"ş":{"ha":669,"x_min":35,"x_max":619,"o":"m 221 494 q 258 433 221 454 q 374 390 294 413 q 490 350 446 369 q 567 292 535 331 q 599 192 599 254 q 528 48 599 101 q 336 -10 457 -6 l 326 -58 q 349 -57 335 -57 q 426 -81 397 -57 q 456 -150 456 -106 q 411 -236 456 -203 q 286 -269 367 -269 q 219 -262 254 -269 q 157 -243 183 -256 l 178 -178 q 285 -197 235 -197 q 340 -186 319 -197 q 360 -153 360 -175 q 313 -118 360 -118 q 254 -129 290 -118 l 229 -106 l 249 -6 q 35 76 128 11 l 85 178 q 322 97 193 97 q 431 119 394 97 q 468 183 468 142 q 431 245 468 224 q 314 289 393 267 q 197 329 242 310 q 121 387 153 349 q 89 486 89 425 q 165 638 89 581 q 365 694 240 694 q 507 671 439 694 q 619 607 575 647 l 569 508 q 365 588 472 588 q 258 564 296 588 q 221 494 221 540 z "},"ŝ":{"ha":669,"x_min":35,"x_max":619,"o":"m 319 -10 q 35 76 156 -10 l 85 178 q 322 97 193 97 q 431 119 394 97 q 468 183 468 142 q 431 245 468 224 q 314 289 393 267 q 197 329 242 310 q 121 387 153 349 q 89 486 89 425 q 165 638 89 581 q 365 694 240 694 q 507 671 439 694 q 619 607 575 647 l 569 508 q 365 588 472 588 q 258 564 296 588 q 221 494 221 540 q 258 433 221 454 q 374 390 294 413 q 490 350 446 369 q 567 292 535 331 q 599 192 599 254 q 523 44 599 97 q 319 -10 447 -10 m 167 767 l 357 1049 l 450 1049 l 596 767 l 478 767 l 397 954 l 290 767 l 167 767 z "},"ș":{"ha":669,"x_min":35,"x_max":619,"o":"m 319 -10 q 35 76 156 -10 l 85 178 q 322 97 193 97 q 431 119 394 97 q 468 183 468 142 q 431 245 468 224 q 314 289 393 267 q 197 329 242 310 q 121 387 153 349 q 89 486 89 425 q 165 638 89 581 q 365 694 240 694 q 507 671 439 694 q 619 607 575 647 l 569 508 q 365 588 472 588 q 258 564 296 588 q 221 494 221 540 q 258 433 221 454 q 374 390 294 413 q 490 350 446 369 q 567 292 535 331 q 599 192 599 254 q 523 44 599 97 q 319 -10 447 -10 m 378 -97 l 371 -181 q 347 -283 367 -239 q 282 -367 326 -328 l 228 -325 q 285 -225 276 -278 l 211 -225 l 221 -97 l 378 -97 z "},"ṡ":{"ha":669,"x_min":35,"x_max":619,"o":"m 319 -10 q 35 76 156 -10 l 85 178 q 322 97 193 97 q 431 119 394 97 q 468 183 468 142 q 431 245 468 224 q 314 289 393 267 q 197 329 242 310 q 121 387 153 349 q 89 486 89 425 q 165 638 89 581 q 365 694 240 694 q 507 671 439 694 q 619 607 575 647 l 569 508 q 365 588 472 588 q 258 564 296 588 q 221 494 221 540 q 258 433 221 454 q 374 390 294 413 q 490 350 446 369 q 567 292 535 331 q 599 192 599 254 q 523 44 599 97 q 319 -10 447 -10 m 479 981 l 467 835 l 306 835 l 317 981 l 479 981 z "},"ṣ":{"ha":669,"x_min":35,"x_max":619,"o":"m 319 -10 q 35 76 156 -10 l 85 178 q 322 97 193 97 q 431 119 394 97 q 468 183 468 142 q 431 245 468 224 q 314 289 393 267 q 197 329 242 310 q 121 387 153 349 q 89 486 89 425 q 165 638 89 581 q 365 694 240 694 q 507 671 439 694 q 619 607 575 647 l 569 508 q 365 588 472 588 q 258 564 296 588 q 221 494 221 540 q 258 433 221 454 q 374 390 294 413 q 490 350 446 369 q 567 292 535 331 q 599 192 599 254 q 523 44 599 97 q 319 -10 447 -10 m 371 -119 l 360 -260 l 213 -260 l 225 -119 l 371 -119 z "},"ṩ":{"ha":669,"x_min":35,"x_max":619,"o":"m 319 -10 q 35 76 156 -10 l 85 178 q 322 97 193 97 q 431 119 394 97 q 468 183 468 142 q 431 245 468 224 q 314 289 393 267 q 197 329 242 310 q 121 387 153 349 q 89 486 89 425 q 165 638 89 581 q 365 694 240 694 q 507 671 439 694 q 619 607 575 647 l 569 508 q 365 588 472 588 q 258 564 296 588 q 221 494 221 540 q 258 433 221 454 q 374 390 294 413 q 490 350 446 369 q 567 292 535 331 q 599 192 599 254 q 523 44 599 97 q 319 -10 447 -10 m 371 -119 l 360 -260 l 213 -260 l 225 -119 l 371 -119 m 479 981 l 467 835 l 306 835 l 317 981 l 479 981 z "},"ß":{"ha":881,"x_min":71,"x_max":832,"o":"m 124 654 q 228 903 138 819 q 472 988 319 988 q 652 941 586 988 q 718 814 718 894 q 688 710 718 753 q 599 615 657 668 q 536 553 556 578 q 517 500 517 529 q 547 444 517 464 q 642 401 578 424 q 740 359 701 379 q 805 302 778 339 q 832 207 832 265 q 758 51 832 111 q 558 -10 685 -10 q 418 13 488 -10 q 299 76 349 36 l 349 178 q 569 99 460 99 q 663 124 628 99 q 699 196 699 150 q 667 253 699 233 q 568 299 636 274 q 471 338 508 319 q 407 391 433 357 q 381 479 381 425 q 410 574 381 535 q 494 664 439 614 q 563 733 540 706 q 585 796 585 761 q 554 858 585 836 q 467 881 524 881 q 265 665 282 881 l 211 0 l 71 0 l 124 654 z "},"t":{"ha":490,"x_min":28,"x_max":493,"o":"m 274 251 l 272 228 q 400 99 272 99 q 463 103 429 99 l 447 -3 q 378 -10 414 -10 q 195 48 258 -10 q 132 214 132 106 q 133 247 132 236 l 158 569 l 28 569 l 36 678 l 167 678 l 183 882 l 324 882 l 307 678 l 493 678 l 485 569 l 299 569 l 274 251 z "},"ŧ":{"ha":504,"x_min":35,"x_max":500,"o":"m 306 569 l 296 439 l 454 439 l 446 336 l 288 336 l 281 251 l 279 228 q 407 99 279 99 q 469 103 436 99 l 454 -3 q 385 -10 421 -10 q 202 48 265 -10 q 139 214 139 106 q 140 247 139 236 l 147 336 l 43 336 l 51 439 l 156 439 l 165 569 l 35 569 l 43 678 l 174 678 l 190 882 l 331 882 l 314 678 l 500 678 l 492 569 l 306 569 z "},"ť":{"ha":490,"x_min":28,"x_max":519,"o":"m 460 742 l 382 742 l 403 979 l 519 979 l 460 742 m 307 678 l 493 678 l 485 569 l 299 569 l 274 251 l 272 228 q 400 99 272 99 q 463 103 429 99 l 447 -3 q 378 -10 414 -10 q 195 48 258 -10 q 132 214 132 106 q 133 247 132 236 l 158 569 l 28 569 l 36 678 l 167 678 l 183 882 l 324 882 l 307 678 z "},"ţ":{"ha":490,"x_min":28,"x_max":493,"o":"m 274 251 l 272 228 q 400 99 272 99 q 463 103 429 99 l 447 -3 q 378 -10 414 -10 q 318 -6 346 -10 l 307 -58 q 329 -57 315 -57 q 407 -81 378 -57 q 436 -150 436 -106 q 392 -236 436 -203 q 267 -269 347 -269 q 199 -262 235 -269 q 138 -243 164 -256 l 158 -178 q 265 -197 215 -197 q 320 -186 300 -197 q 340 -153 340 -175 q 293 -118 340 -118 q 235 -129 271 -118 l 210 -106 l 235 21 q 158 96 185 47 q 132 213 132 144 q 133 247 132 236 l 158 569 l 28 569 l 36 678 l 167 678 l 183 882 l 324 882 l 307 678 l 493 678 l 485 569 l 299 569 l 274 251 z "},"ț":{"ha":490,"x_min":28,"x_max":493,"o":"m 274 251 l 272 228 q 400 99 272 99 q 463 103 429 99 l 447 -3 q 378 -10 414 -10 q 195 48 258 -10 q 132 214 132 106 q 133 247 132 236 l 158 569 l 28 569 l 36 678 l 167 678 l 183 882 l 324 882 l 307 678 l 493 678 l 485 569 l 299 569 l 274 251 m 358 -97 l 351 -181 q 327 -283 347 -239 q 263 -367 307 -328 l 208 -325 q 265 -225 257 -278 l 192 -225 l 201 -97 l 358 -97 z "},"ẗ":{"ha":490,"x_min":28,"x_max":493,"o":"m 274 251 l 272 228 q 400 99 272 99 q 463 103 429 99 l 447 -3 q 378 -10 414 -10 q 195 48 258 -10 q 132 214 132 106 q 133 247 132 236 l 158 569 l 28 569 l 36 678 l 167 678 l 183 882 l 324 882 l 307 678 l 493 678 l 485 569 l 299 569 l 274 251 m 224 1142 l 213 1004 l 69 1004 l 79 1142 l 224 1142 m 468 1142 l 458 1004 l 314 1004 l 325 1142 l 468 1142 z "},"ṭ":{"ha":490,"x_min":28,"x_max":493,"o":"m 274 251 l 272 228 q 400 99 272 99 q 463 103 429 99 l 447 -3 q 378 -10 414 -10 q 195 48 258 -10 q 132 214 132 106 q 133 247 132 236 l 158 569 l 28 569 l 36 678 l 167 678 l 183 882 l 324 882 l 307 678 l 493 678 l 485 569 l 299 569 l 274 251 m 351 -119 l 340 -260 l 193 -260 l 206 -119 l 351 -119 z "},"ṯ":{"ha":490,"x_min":28,"x_max":493,"o":"m 274 251 l 272 228 q 400 99 272 99 q 463 103 429 99 l 447 -3 q 378 -10 414 -10 q 195 48 258 -10 q 132 214 132 106 q 133 247 132 236 l 158 569 l 28 569 l 36 678 l 167 678 l 183 882 l 324 882 l 307 678 l 493 678 l 485 569 l 299 569 l 274 251 m 65 -143 l 488 -143 l 479 -236 l 58 -236 l 65 -143 z "},"u":{"ha":790,"x_min":86,"x_max":718,"o":"m 718 678 l 665 0 l 528 0 l 536 103 q 444 19 501 49 q 315 -10 386 -10 q 144 51 203 -10 q 86 228 86 111 q 88 265 86 253 l 121 678 l 261 678 l 228 274 l 226 249 q 361 104 226 104 q 492 156 443 104 q 547 297 540 207 l 578 678 l 718 678 z "},"ú":{"ha":790,"x_min":86,"x_max":718,"o":"m 718 678 l 665 0 l 528 0 l 536 103 q 444 19 501 49 q 315 -10 386 -10 q 144 51 203 -10 q 86 228 86 111 q 88 265 86 253 l 121 678 l 261 678 l 228 274 l 226 249 q 361 104 226 104 q 492 156 443 104 q 547 297 540 207 l 578 678 l 718 678 m 382 767 l 538 1049 l 696 1049 l 475 767 l 382 767 z "},"ŭ":{"ha":790,"x_min":86,"x_max":718,"o":"m 718 678 l 665 0 l 528 0 l 536 103 q 444 19 501 49 q 315 -10 386 -10 q 144 51 203 -10 q 86 228 86 111 q 88 265 86 253 l 121 678 l 261 678 l 228 274 l 226 249 q 361 104 226 104 q 492 156 443 104 q 547 297 540 207 l 578 678 l 718 678 m 435 806 q 294 852 356 806 q 208 989 232 899 l 289 1022 q 442 903 336 903 q 531 931 490 903 q 607 1022 572 958 l 683 989 q 583 851 650 896 q 435 806 517 806 z "},"û":{"ha":790,"x_min":86,"x_max":718,"o":"m 718 678 l 665 0 l 528 0 l 536 103 q 444 19 501 49 q 315 -10 386 -10 q 144 51 203 -10 q 86 228 86 111 q 88 265 86 253 l 121 678 l 261 678 l 228 274 l 226 249 q 361 104 226 104 q 492 156 443 104 q 547 297 540 207 l 578 678 l 718 678 m 214 767 l 404 1049 l 497 1049 l 643 767 l 525 767 l 444 954 l 338 767 l 214 767 z "},"ȕ":{"ha":790,"x_min":86,"x_max":718,"o":"m 718 678 l 665 0 l 528 0 l 536 103 q 444 19 501 49 q 315 -10 386 -10 q 144 51 203 -10 q 86 228 86 111 q 88 265 86 253 l 121 678 l 261 678 l 228 274 l 226 249 q 361 104 226 104 q 492 156 443 104 q 547 297 540 207 l 578 678 l 718 678 m 224 1049 l 336 1049 l 374 767 l 308 767 l 224 1049 m 399 1049 l 511 1049 l 549 767 l 483 767 l 399 1049 z "},"ü":{"ha":790,"x_min":86,"x_max":718,"o":"m 718 678 l 665 0 l 528 0 l 536 103 q 444 19 501 49 q 315 -10 386 -10 q 144 51 203 -10 q 86 228 86 111 q 88 265 86 253 l 121 678 l 261 678 l 228 274 l 226 249 q 361 104 226 104 q 492 156 443 104 q 547 297 540 207 l 578 678 l 718 678 m 394 976 l 383 839 l 240 839 l 250 976 l 394 976 m 639 976 l 629 839 l 485 839 l 496 976 l 639 976 z "},"ụ":{"ha":790,"x_min":86,"x_max":718,"o":"m 718 678 l 665 0 l 528 0 l 536 103 q 444 19 501 49 q 315 -10 386 -10 q 144 51 203 -10 q 86 228 86 111 q 88 265 86 253 l 121 678 l 261 678 l 228 274 l 226 249 q 361 104 226 104 q 492 156 443 104 q 547 297 540 207 l 578 678 l 718 678 m 432 -119 l 421 -260 l 274 -260 l 286 -119 l 432 -119 z "},"ù":{"ha":790,"x_min":86,"x_max":718,"o":"m 718 678 l 665 0 l 528 0 l 536 103 q 444 19 501 49 q 315 -10 386 -10 q 144 51 203 -10 q 86 228 86 111 q 88 265 86 253 l 121 678 l 261 678 l 228 274 l 226 249 q 361 104 226 104 q 492 156 443 104 q 547 297 540 207 l 578 678 l 718 678 m 214 1049 l 356 1049 l 475 767 l 382 767 l 214 1049 z "},"ủ":{"ha":790,"x_min":86,"x_max":718,"o":"m 718 678 l 665 0 l 528 0 l 536 103 q 444 19 501 49 q 315 -10 386 -10 q 144 51 203 -10 q 86 228 86 111 q 88 265 86 253 l 121 678 l 261 678 l 228 274 l 226 249 q 361 104 226 104 q 492 156 443 104 q 547 297 540 207 l 578 678 l 718 678 m 472 767 l 390 767 l 393 803 q 410 852 394 832 q 454 896 426 872 q 483 924 475 914 q 490 946 490 933 q 439 978 490 978 q 360 963 406 978 l 342 1032 q 461 1053 394 1053 q 558 1027 522 1053 q 594 961 594 1001 q 577 908 594 929 q 528 863 560 886 q 488 826 500 840 q 474 792 475 813 l 472 767 z "},"ư":{"ha":814,"x_min":86,"x_max":893,"o":"m 893 856 l 890 814 q 838 677 885 731 q 714 608 790 624 l 665 0 l 528 0 l 536 103 q 444 19 501 49 q 315 -10 386 -10 q 144 51 203 -10 q 86 228 86 111 q 88 265 86 253 l 121 678 l 261 678 l 228 274 l 226 249 q 361 104 226 104 q 492 156 443 104 q 547 297 540 207 l 578 678 l 618 678 q 727 714 692 678 q 768 833 763 750 l 769 856 l 893 856 z "},"ứ":{"ha":814,"x_min":86,"x_max":893,"o":"m 893 856 l 890 814 q 838 677 885 731 q 714 608 790 624 l 665 0 l 528 0 l 536 103 q 444 19 501 49 q 315 -10 386 -10 q 144 51 203 -10 q 86 228 86 111 q 88 265 86 253 l 121 678 l 261 678 l 228 274 l 226 249 q 361 104 226 104 q 492 156 443 104 q 547 297 540 207 l 578 678 l 618 678 q 727 714 692 678 q 768 833 763 750 l 769 856 l 893 856 m 382 767 l 538 1049 l 696 1049 l 475 767 l 382 767 z "},"ự":{"ha":814,"x_min":86,"x_max":893,"o":"m 893 856 l 890 814 q 838 677 885 731 q 714 608 790 624 l 665 0 l 528 0 l 536 103 q 444 19 501 49 q 315 -10 386 -10 q 144 51 203 -10 q 86 228 86 111 q 88 265 86 253 l 121 678 l 261 678 l 228 274 l 226 249 q 361 104 226 104 q 492 156 443 104 q 547 297 540 207 l 578 678 l 618 678 q 727 714 692 678 q 768 833 763 750 l 769 856 l 893 856 m 432 -119 l 421 -260 l 274 -260 l 286 -119 l 432 -119 z "},"ừ":{"ha":814,"x_min":86,"x_max":893,"o":"m 893 856 l 890 814 q 838 677 885 731 q 714 608 790 624 l 665 0 l 528 0 l 536 103 q 444 19 501 49 q 315 -10 386 -10 q 144 51 203 -10 q 86 228 86 111 q 88 265 86 253 l 121 678 l 261 678 l 228 274 l 226 249 q 361 104 226 104 q 492 156 443 104 q 547 297 540 207 l 578 678 l 618 678 q 727 714 692 678 q 768 833 763 750 l 769 856 l 893 856 m 214 1049 l 356 1049 l 475 767 l 382 767 l 214 1049 z "},"ử":{"ha":814,"x_min":86,"x_max":893,"o":"m 893 856 l 890 814 q 838 677 885 731 q 714 608 790 624 l 665 0 l 528 0 l 536 103 q 444 19 501 49 q 315 -10 386 -10 q 144 51 203 -10 q 86 228 86 111 q 88 265 86 253 l 121 678 l 261 678 l 228 274 l 226 249 q 361 104 226 104 q 492 156 443 104 q 547 297 540 207 l 578 678 l 618 678 q 727 714 692 678 q 768 833 763 750 l 769 856 l 893 856 m 472 767 l 390 767 l 393 803 q 410 852 394 832 q 454 896 426 872 q 483 924 475 914 q 490 946 490 933 q 439 978 490 978 q 360 963 406 978 l 342 1032 q 461 1053 394 1053 q 558 1027 522 1053 q 594 961 594 1001 q 577 908 594 929 q 528 863 560 886 q 488 826 500 840 q 474 792 475 813 l 472 767 z "},"ữ":{"ha":814,"x_min":86,"x_max":893,"o":"m 893 856 l 890 814 q 838 677 885 731 q 714 608 790 624 l 665 0 l 528 0 l 536 103 q 444 19 501 49 q 315 -10 386 -10 q 144 51 203 -10 q 86 228 86 111 q 88 265 86 253 l 121 678 l 261 678 l 228 274 l 226 249 q 361 104 226 104 q 492 156 443 104 q 547 297 540 207 l 578 678 l 618 678 q 727 714 692 678 q 768 833 763 750 l 769 856 l 893 856 m 204 826 q 247 954 208 911 q 346 997 286 997 q 398 986 374 997 q 458 953 422 975 q 481 940 464 950 q 513 924 499 929 q 538 919 526 919 q 585 939 567 919 q 606 993 603 958 l 675 993 q 631 865 669 907 q 533 822 592 822 q 481 833 506 822 q 419 865 457 843 q 377 890 394 882 q 343 899 360 899 q 296 880 314 899 q 274 826 278 861 l 204 826 z "},"ű":{"ha":790,"x_min":86,"x_max":718,"o":"m 718 678 l 665 0 l 528 0 l 536 103 q 444 19 501 49 q 315 -10 386 -10 q 144 51 203 -10 q 86 228 86 111 q 88 265 86 253 l 121 678 l 261 678 l 228 274 l 226 249 q 361 104 226 104 q 492 156 443 104 q 547 297 540 207 l 578 678 l 718 678 m 308 767 l 386 1049 l 507 1049 l 374 767 l 308 767 m 483 767 l 561 1049 l 682 1049 l 549 767 l 483 767 z "},"ȗ":{"ha":790,"x_min":86,"x_max":718,"o":"m 718 678 l 665 0 l 528 0 l 536 103 q 444 19 501 49 q 315 -10 386 -10 q 144 51 203 -10 q 86 228 86 111 q 88 265 86 253 l 121 678 l 261 678 l 228 274 l 226 249 q 361 104 226 104 q 492 156 443 104 q 547 297 540 207 l 578 678 l 718 678 m 444 1018 q 585 972 524 1018 q 671 836 647 926 l 590 803 q 438 922 543 922 q 348 894 389 922 q 272 803 307 867 l 196 835 q 296 973 229 928 q 444 1018 363 1018 z "},"ū":{"ha":790,"x_min":86,"x_max":718,"o":"m 718 678 l 665 0 l 528 0 l 536 103 q 444 19 501 49 q 315 -10 386 -10 q 144 51 203 -10 q 86 228 86 111 q 88 265 86 253 l 121 678 l 261 678 l 228 274 l 226 249 q 361 104 226 104 q 492 156 443 104 q 547 297 540 207 l 578 678 l 718 678 m 233 956 l 654 956 l 646 858 l 225 858 l 233 956 z "},"ṻ":{"ha":790,"x_min":86,"x_max":718,"o":"m 718 678 l 665 0 l 528 0 l 536 103 q 444 19 501 49 q 315 -10 386 -10 q 144 51 203 -10 q 86 228 86 111 q 88 265 86 253 l 121 678 l 261 678 l 228 274 l 226 249 q 361 104 226 104 q 492 156 443 104 q 547 297 540 207 l 578 678 l 718 678 m 233 956 l 654 956 l 646 858 l 225 858 l 233 956 m 415 1243 l 404 1106 l 261 1106 l 271 1243 l 415 1243 m 660 1243 l 650 1106 l 506 1106 l 517 1243 l 660 1243 z "}}}
